<svg xmlns="http://www.w3.org/2000/svg" xmlns:xlink="http://www.w3.org/1999/xlink" fill="none" version="1.1" width="52" height="52" viewBox="0 0 52 52"><defs><clipPath id="master_svg0_65_51658"><rect x="0" y="0" width="52" height="52" rx="0"/></clipPath><linearGradient x1="0.5" y1="-3.0616171314629196e-17" x2="0.5" y2="1" id="master_svg1_70_15524"><stop offset="0%" stop-color="#EFF3F7" stop-opacity="1"/><stop offset="47.884008288383484%" stop-color="#B1D4FF" stop-opacity="1"/><stop offset="100%" stop-color="#499CFF" stop-opacity="1"/></linearGradient></defs><g><g clip-path="url(#master_svg0_65_51658)"><g><path d="M28.6181,2.850822L28.8873,3.06332L50.3767,21.3419C51.1193,21.9739,51.2115,23.0922,50.5826,23.8387L49.4474,25.1899C48.8749,25.8718,47.8874,26.0183,47.1436,25.5317L47.1172,25.514L47.119,43.4985C47.1194,45.8702,45.291,47.8353,42.939,47.9911L42.6451,48L9.3533,48C6.99621,48.0005,5.04308,46.1608,4.8882200000000005,43.7943L4.87942,43.5003L4.87942,25.5122L4.85478,25.5317C4.181,25.9727,3.29588,25.8983,2.70409,25.351L2.55097,25.1917L1.415781,23.837C0.788546,23.0902,0.881513,21.9733,1.6234579999999998,21.3419L23.1128,3.06332C24.6818,1.729218,26.9521,1.641585,28.6181,2.850822ZM25.9992,7.56301L10.15937,21.0355L10.15937,42.6893L41.839,42.6893L41.839,21.0355L25.9992,7.56301ZM33.9191,31.1789C34.8911,31.1789,35.6791,31.9717,35.6791,32.9497L35.6791,34.7205C35.6791,35.6985,34.8911,36.4914,33.9191,36.4914L18.0793,36.4914C17.1073,36.4914,16.3193,35.6985,16.3193,34.7205L16.3193,32.9497C16.3193,31.9717,17.1073,31.1789,18.0793,31.1789L33.9191,31.1789Z" fill="url(#master_svg1_70_15524)" fill-opacity="1"/></g></g></g></svg>