<svg xmlns="http://www.w3.org/2000/svg" xmlns:xlink="http://www.w3.org/1999/xlink" fill="none" version="1.1" width="67" height="66" viewBox="0 0 67 66"><defs><linearGradient x1="0.5" y1="-3.0616171314629196e-17" x2="0.5" y2="1" id="master_svg0_16_29338"><stop offset="0%" stop-color="#EFF3F7" stop-opacity="1"/><stop offset="47.884008288383484%" stop-color="#B1D4FF" stop-opacity="1"/><stop offset="100%" stop-color="#499CFF" stop-opacity="1"/></linearGradient></defs><g><g><g><path d="M0.0938729,29.8913Q-1.40811,52.8676,21.1218,63.768Q12.0562,55.4858,10.7151,45.1198Q9.58861,27.8608,30.6701,22.3572Q50.6788,20.487,54.5947,38.8681Q52.7709,55.0583,41.0768,56.7148Q38.8774,50.6234,38.4483,27.3265Q27.3443,27.8608,19.3516,41.7535L27.5052,41.7535Q26.0032,53.6157,28.1489,65.745Q58.3497,68.6304,66.6107,38.8681Q69.8292,12.0446,46.4411,1.46479Q65.2696,15.678,63.3921,34.7003Q53.2537,-2.11526,24.8767,0.128942Q8.99854,4.83107,3.63428,17.8153Q22.3555,5.73943,43.8662,15.9452Q11.5734,10.7087,0.0938729,29.8913Z" fill="url(#master_svg0_16_29338)" fill-opacity="1"/></g></g></g></svg>