<svg width="24" height="25" viewBox="0 0 24 25" fill="none" xmlns="http://www.w3.org/2000/svg">
<g id="app">
<path id="app_2" fill-rule="evenodd" clip-rule="evenodd" d="M12.375 7.625C12.375 5.13972 14.3897 3.125 16.875 3.125C19.3604 3.125 21.375 5.13972 21.375 7.625C21.375 10.1103 19.3604 12.125 16.875 12.125C14.3897 12.125 12.375 10.1103 12.375 7.625ZM16.875 4.625C15.2181 4.625 13.875 5.96814 13.875 7.625C13.875 9.28185 15.2181 10.625 16.875 10.625C18.5319 10.625 19.875 9.28185 19.875 7.625C19.875 5.96814 18.5319 4.625 16.875 4.625ZM3 5C3 4.17157 3.67157 3.5 4.5 3.5H9.75C10.5784 3.5 11.25 4.17157 11.25 5V10.25C11.25 11.0784 10.5784 11.75 9.75 11.75H4.5C3.67157 11.75 3 11.0784 3 10.25V5ZM4.5 10.25V5H9.75V10.25H4.5ZM3 14.75C3 13.9216 3.67157 13.25 4.5 13.25H9.75C10.5784 13.25 11.25 13.9216 11.25 14.75V20C11.25 20.8285 10.5784 21.5 9.75 21.5H4.5C3.67157 21.5 3 20.8285 3 20V14.75ZM4.5 20V14.75H9.75V20H4.5ZM12.75 14.75C12.75 13.9216 13.4216 13.25 14.25 13.25H19.5C20.3285 13.25 21 13.9216 21 14.75V20C21 20.8285 20.3285 21.5 19.5 21.5H14.25C13.4216 21.5 12.75 20.8285 12.75 20V14.75ZM19.5 14.75V20H14.25V14.75H19.5Z" fill="#84C1FF"/>
</g>
</svg>
