<svg width="20" height="20" viewBox="0 0 20 20" fill="none" xmlns="http://www.w3.org/2000/svg">
<g id="&#229;&#175;&#134;&#231;&#160;&#129;">
<path id="Union" fill-rule="evenodd" clip-rule="evenodd" d="M8.89201 14.1599C8.89201 14.6171 9.26287 14.9882 9.7203 14.9882C10.1777 14.9882 10.5486 14.6173 10.5486 14.1599V11.3802C10.5486 10.923 10.1777 10.5519 9.7203 10.5519C9.26262 10.5519 8.89201 10.923 8.89201 11.3802V14.1599ZM14.3659 7.54034H14.5697C15.6013 7.54034 16.4404 8.37942 16.4404 9.41096V16.1294C16.4406 17.1609 15.6015 18 14.5697 18H4.87062C3.83908 18 3 17.1609 3 16.1294V9.41096C3 8.37942 3.83908 7.54034 4.87062 7.54034H5.07449V6.64556C5.07449 4.08415 7.15865 2 9.7203 2C10.9601 2 12.1264 2.48378 13.0044 3.3615C13.8826 4.23997 14.3659 5.40626 14.3659 6.64556V7.54034ZM6.73108 7.54034H12.7093V6.64556C12.7093 5.84863 12.3981 5.09787 11.8328 4.5328C11.268 3.96772 10.5175 3.65658 9.7203 3.65658C8.072 3.65658 6.73108 4.99776 6.73108 6.64556V7.54034ZM4.65658 9.41096C4.65658 9.29303 4.75243 9.19693 4.87062 9.19693H14.5697C14.6877 9.19693 14.7838 9.29278 14.7838 9.41096V16.1294C14.7838 16.2473 14.6879 16.3434 14.5697 16.3434H4.87062C4.75269 16.3434 4.65658 16.2476 4.65658 16.1294V9.41096Z" fill="white"/>
</g>
</svg>
