<svg width="20" height="20" viewBox="0 0 20 20" fill="none" xmlns="http://www.w3.org/2000/svg">
<g id="&#231;&#148;&#168;&#230;&#136;&#183;&#229;&#144;&#141;">
<path id="Vector" d="M10 3.33333C9.6717 3.33333 9.34661 3.398 9.04329 3.52363C8.73998 3.64927 8.46438 3.83342 8.23223 4.06556C8.00009 4.29771 7.81594 4.57331 7.6903 4.87662C7.56466 5.17994 7.5 5.50503 7.5 5.83333C7.5 6.16164 7.56466 6.48673 7.6903 6.79004C7.81594 7.09335 8.00009 7.36895 8.23223 7.6011C8.46438 7.83325 8.73998 8.01739 9.04329 8.14303C9.34661 8.26867 9.6717 8.33333 10 8.33333C10.663 8.33333 11.2989 8.06994 11.7678 7.6011C12.2366 7.13226 12.5 6.49637 12.5 5.83333C12.5 5.17029 12.2366 4.53441 11.7678 4.06556C11.2989 3.59672 10.663 3.33333 10 3.33333V3.33333ZM10 1.66666C10.5472 1.66672 11.0891 1.77456 11.5946 1.98402C12.1002 2.19349 12.5595 2.50048 12.9465 2.88747C13.3334 3.27446 13.6403 3.73386 13.8496 4.23946C14.059 4.74505 14.1667 5.28694 14.1667 5.83417C14.1666 6.38139 14.0588 6.92325 13.8493 7.42881C13.6398 7.93436 13.3328 8.39371 12.9459 8.78062C12.5589 9.16753 12.0995 9.47443 11.5939 9.68379C11.0883 9.89316 10.5464 10.0009 9.99917 10.0008C8.89399 10.0007 7.83412 9.56159 7.05272 8.78003C6.27131 7.99847 5.83239 6.93851 5.8325 5.83333C5.83261 4.72815 6.27175 3.66828 7.0533 2.88688C7.83486 2.10548 8.89482 1.66655 10 1.66666V1.66666ZM13.3333 11.6667C13.8805 11.6667 14.4223 11.7744 14.9278 11.9838C15.4334 12.1932 15.8927 12.5001 16.2796 12.8871C16.6665 13.274 16.9734 13.7333 17.1828 14.2388C17.3922 14.7443 17.5 15.2862 17.5 15.8333V17.5C17.5 17.721 17.4122 17.9329 17.2559 18.0892C17.0996 18.2454 16.8877 18.3332 16.6667 18.3332C16.4457 18.3332 16.2337 18.2454 16.0775 18.0892C15.9212 17.9329 15.8334 17.721 15.8333 17.5V15.8333C15.8333 15.1703 15.5699 14.5344 15.1011 14.0656C14.6323 13.5967 13.9964 13.3333 13.3333 13.3333H6.66667C6.00363 13.3333 5.36774 13.5967 4.8989 14.0656C4.43006 14.5344 4.16667 15.1703 4.16667 15.8333V17.5C4.16663 17.721 4.07882 17.9329 3.92254 18.0892C3.76627 18.2454 3.55433 18.3332 3.33333 18.3332C3.11234 18.3332 2.9004 18.2454 2.74412 18.0892C2.58785 17.9329 2.50003 17.721 2.5 17.5V15.8333C2.5 15.2862 2.60777 14.7443 2.81717 14.2388C3.02656 13.7333 3.33348 13.274 3.72039 12.8871C4.1073 12.5001 4.56663 12.1932 5.07215 11.9838C5.57768 11.7744 6.11949 11.6667 6.66667 11.6667H13.3333Z" fill="white"/>
</g>
</svg>
