<svg width="40" height="37" viewBox="0 0 40 37" fill="none" xmlns="http://www.w3.org/2000/svg">
<g id="&#229;&#156;&#186;&#231;&#171;&#153; ">
<path id="Vector" d="M21.9834 26.4842V34.4846H18.8917V26.4842H21.9834ZM15.0757 26.4842V34.4846H11.9839V26.4842H15.0757ZM33.7321 2.48486C34.5601 2.48486 35.2378 3.07357 35.2378 3.79145V31.8715H37.9844V34.4846H24.1604V24.7371C24.1604 24.0171 23.4827 23.4305 22.6568 23.4305H11.7573C10.9314 23.4305 10.2538 24.0192 10.2538 24.7371V34.4846H1.98438V31.8693H4.73096V15.5592C4.73096 14.8392 5.40861 14.2526 6.23449 14.2526H15.1561V11.5209C15.1561 10.8009 15.8338 10.2122 16.6597 10.2122H22.4176C23.2434 10.2122 23.9211 10.8009 23.9211 11.5187V14.2505H26.314V3.79357C26.314 3.07357 26.9917 2.48698 27.8197 2.48698H33.7343L33.7321 2.48486ZM23.7326 18.9009H10.6985V21.514H23.7326V18.9009Z" fill="url(#paint0_linear_212_9540)"/>
</g>
<defs>
<linearGradient id="paint0_linear_212_9540" x1="19.9844" y1="2.48486" x2="19.9844" y2="34.4846" gradientUnits="userSpaceOnUse">
<stop stop-color="#F8FCFE"/>
<stop offset="1" stop-color="#2ED1FF"/>
</linearGradient>
</defs>
</svg>
