<svg width="40" height="47" viewBox="0 0 40 47" fill="none" xmlns="http://www.w3.org/2000/svg">
<g id="&#230;&#161;&#165;&#230;&#162;&#129;">
<g id="Ellipse 9">
<g filter="url(#filter0_ii_218_9764)">
<path d="M40 20.0066C40 27.7252 35.6304 34.4229 29.2308 37.7595C26.9677 38.9393 23.248 40.7324 21.1322 45.5758C20.7955 46.3465 19.2045 46.3465 18.8678 45.5758C16.752 40.7324 13.0323 38.9393 10.7692 37.7595C4.36957 34.4229 0 27.7252 0 20.0066C0 8.95725 8.9543 0 20 0C31.0457 0 40 8.95725 40 20.0066Z" fill="url(#paint0_linear_218_9764)" fill-opacity="0.3"/>
</g>
<path d="M38.8462 20.0066C38.8462 27.2786 34.7306 33.5908 28.6973 36.7363C28.6115 36.7811 28.523 36.827 28.4321 36.8741C26.1499 38.0576 22.3462 40.0301 20.1314 44.9859C20.1281 44.9866 20.1247 44.9874 20.1211 44.9881C20.0861 44.9954 20.0446 45 20 45C19.9554 45 19.9139 44.9954 19.8789 44.9881C19.8753 44.9874 19.8719 44.9866 19.8686 44.9859C17.6538 40.0301 13.8501 38.0576 11.5679 36.8741C11.477 36.827 11.3885 36.7811 11.3027 36.7363C5.26937 33.5908 1.15385 27.2786 1.15385 20.0066C1.15385 9.59415 9.59191 1.15385 20 1.15385C30.4081 1.15385 38.8462 9.59415 38.8462 20.0066Z" stroke="url(#paint1_linear_218_9764)" stroke-width="2.30769"/>
</g>
<path id="Vector" d="M24.7868 13.5365C24.7868 9.98838 21.8656 7.1123 18.2618 7.1123C18.0977 7.1123 17.9366 7.12462 17.7755 7.13638H12.0115V7.14859H9.0625V30.6987H12.3729V19.9402H17.7523C18.0049 19.9692 18.0018 19.9609 18.2619 19.9609C21.8657 19.9607 24.7868 17.085 24.7868 13.5365ZM17.7522 16.6297H12.3729V10.4225H17.7523C19.3247 10.4962 20.7662 11.9341 20.7662 13.5002C20.7662 15.0663 19.3246 16.5552 17.7522 16.6296L17.7522 16.6297ZM32.8417 24.9006C32.7371 24.6914 32.4491 24.4529 32.4491 24.4529L31.2619 21.2746C31.0154 20.6722 30.2898 20.3545 29.9733 20.3545H23.7381C23.4213 20.3545 22.6963 20.6722 22.4497 21.2746L21.2622 24.4529C21.2622 24.4529 20.9748 24.6913 20.8693 24.9006C20.7639 25.1091 20.649 25.2956 20.649 26.7045C20.649 28.0793 20.9248 28.5674 21.2543 28.737L21.5149 28.8843V30.1605C21.5149 30.5741 21.613 30.6971 22.0062 30.6971H22.8879C23.2805 30.6971 23.5453 30.6987 23.5453 30.2851V29.0439H30.1662V30.2851C30.1662 30.6987 30.4305 30.6971 30.8231 30.6971H31.7051C32.098 30.6971 32.1962 30.5741 32.1962 30.1605V28.8843L32.4568 28.737C32.7865 28.5675 33.062 28.0796 33.0625 26.7045C33.0626 25.2956 32.9477 25.109 32.8417 24.9006ZM22.8435 24.0797C22.8928 23.8997 23.2227 22.4905 23.3687 22.0021C23.4289 21.8336 23.8194 21.3311 24.2749 21.3597H29.4366C29.8919 21.331 30.2828 21.8334 30.3419 22.0021C30.4886 22.4905 30.818 23.8997 30.8679 24.0797C30.9267 24.2931 30.7327 24.2745 30.7327 24.2745H22.9789C22.9789 24.2743 22.7844 24.2931 22.8435 24.0797V24.0797ZM22.9712 27.5298C22.4478 27.5298 22.0223 27.1033 22.0223 26.5815C22.0223 26.0587 22.4478 25.6332 22.9712 25.6332C23.4936 25.6332 23.919 26.0587 23.919 26.5815C23.9192 27.1034 23.4937 27.5298 22.9712 27.5298ZM30.7696 27.5298C30.2468 27.5298 29.8208 27.1033 29.8208 26.5815C29.8208 26.0587 30.2468 25.6332 30.7696 25.6332C31.2919 25.6332 31.7176 26.0587 31.7176 26.5815C31.7176 27.1034 31.2919 27.5298 30.7696 27.5298Z" fill="url(#paint2_linear_218_9764)"/>
</g>
<defs>
<filter id="filter0_ii_218_9764" x="0" y="0" width="40" height="47.0192" filterUnits="userSpaceOnUse" color-interpolation-filters="sRGB">
<feFlood flood-opacity="0" result="BackgroundImageFix"/>
<feBlend mode="normal" in="SourceGraphic" in2="BackgroundImageFix" result="shape"/>
<feColorMatrix in="SourceAlpha" type="matrix" values="0 0 0 0 0 0 0 0 0 0 0 0 0 0 0 0 0 0 127 0" result="hardAlpha"/>
<feOffset dy="0.865385"/>
<feGaussianBlur stdDeviation="5.38462"/>
<feComposite in2="hardAlpha" operator="arithmetic" k2="-1" k3="1"/>
<feColorMatrix type="matrix" values="0 0 0 0 0.996078 0 0 0 0 0.929412 0 0 0 0 0.47451 0 0 0 0.6 0"/>
<feBlend mode="normal" in2="shape" result="effect1_innerShadow_218_9764"/>
<feColorMatrix in="SourceAlpha" type="matrix" values="0 0 0 0 0 0 0 0 0 0 0 0 0 0 0 0 0 0 127 0" result="hardAlpha"/>
<feOffset dy="0.865385"/>
<feGaussianBlur stdDeviation="3.46154"/>
<feComposite in2="hardAlpha" operator="arithmetic" k2="-1" k3="1"/>
<feColorMatrix type="matrix" values="0 0 0 0 0.996078 0 0 0 0 0.929412 0 0 0 0 0.47451 0 0 0 0.5 0"/>
<feBlend mode="normal" in2="effect1_innerShadow_218_9764" result="effect2_innerShadow_218_9764"/>
</filter>
<linearGradient id="paint0_linear_218_9764" x1="-20" y1="0" x2="-20" y2="46.1538" gradientUnits="userSpaceOnUse">
<stop stop-color="#0183FC" stop-opacity="0.05"/>
<stop offset="1" stop-color="#37BCFF" stop-opacity="0.05"/>
</linearGradient>
<linearGradient id="paint1_linear_218_9764" x1="-15.2375" y1="5.49515" x2="-15.2375" y2="46.1538" gradientUnits="userSpaceOnUse">
<stop stop-color="#FEED79"/>
<stop offset="1" stop-color="#FEED79"/>
</linearGradient>
<linearGradient id="paint2_linear_218_9764" x1="2.39583" y1="32.5866" x2="3.75874" y2="8.78248" gradientUnits="userSpaceOnUse">
<stop stop-color="white"/>
<stop offset="1" stop-color="#FFEC6B"/>
</linearGradient>
</defs>
</svg>
