<svg width="40" height="47" viewBox="0 0 40 47" fill="none" xmlns="http://www.w3.org/2000/svg">
<g id="&#230;&#161;&#165;&#230;&#162;&#129;">
<g id="Ellipse 9">
<g filter="url(#filter0_ii_218_9804)">
<path d="M40 20.0066C40 27.7252 35.6304 34.4229 29.2308 37.7595C26.9677 38.9393 23.248 40.7324 21.1322 45.5758C20.7955 46.3465 19.2045 46.3465 18.8678 45.5758C16.752 40.7324 13.0323 38.9393 10.7692 37.7595C4.36957 34.4229 0 27.7252 0 20.0066C0 8.95725 8.9543 0 20 0C31.0457 0 40 8.95725 40 20.0066Z" fill="url(#paint0_linear_218_9804)" fill-opacity="0.3"/>
</g>
<path d="M38.8462 20.0066C38.8462 27.2786 34.7306 33.5908 28.6973 36.7363C28.6115 36.7811 28.523 36.827 28.4321 36.8741C26.1499 38.0576 22.3462 40.0301 20.1314 44.9859C20.1281 44.9866 20.1247 44.9874 20.1211 44.9881C20.0861 44.9954 20.0446 45 20 45C19.9554 45 19.9139 44.9954 19.8789 44.9881C19.8753 44.9874 19.8719 44.9866 19.8686 44.9859C17.6538 40.0301 13.8501 38.0576 11.5679 36.8741C11.477 36.827 11.3885 36.7811 11.3027 36.7363C5.26937 33.5908 1.15385 27.2786 1.15385 20.0066C1.15385 9.59415 9.59191 1.15385 20 1.15385C30.4081 1.15385 38.8462 9.59415 38.8462 20.0066Z" stroke="url(#paint1_linear_218_9804)" stroke-width="2.30769"/>
</g>
<path id="Vector" d="M31.6785 16.3075H30.7554V25.0767C30.7554 25.9336 30.415 26.7553 29.8091 27.3612C29.2033 27.9671 28.3815 28.3075 27.5246 28.3075C26.6678 28.3075 25.846 27.9671 25.2401 27.3612C24.6343 26.7553 24.2939 25.9336 24.2939 25.0767V15.3844C24.2939 15.1396 24.1966 14.9048 24.0235 14.7317C23.8504 14.5586 23.6156 14.4613 23.3708 14.4613V29.2306H25.217V31.0767H8.60156V29.2306H10.4477V10.769C10.4477 10.5266 10.4955 10.2865 10.5882 10.0625C10.681 9.83852 10.817 9.635 10.9884 9.46357C11.1599 9.29214 11.3634 9.15615 11.5874 9.06337C11.8114 8.9706 12.0514 8.92285 12.2939 8.92285H21.5246C21.7671 8.92285 22.0071 8.9706 22.2311 9.06337C22.4551 9.15615 22.6586 9.29214 22.8301 9.46357C23.0015 9.635 23.1375 9.83852 23.2303 10.0625C23.3231 10.2865 23.3708 10.5266 23.3708 10.769V12.6152C24.1053 12.6152 24.8096 12.9069 25.3289 13.4263C25.8483 13.9456 26.14 14.65 26.14 15.3844V25.0767C26.14 25.4439 26.2859 25.7961 26.5456 26.0558C26.8052 26.3154 27.1574 26.4613 27.5247 26.4613C27.8919 26.4613 28.2441 26.3154 28.5037 26.0558C28.7634 25.7961 28.9093 25.4439 28.9093 25.0767V16.3075H27.9862C27.7414 16.3075 27.5066 16.2102 27.3335 16.0371C27.1604 15.864 27.0631 15.6292 27.0631 15.3844V13.5382C27.0631 13.2934 27.1604 13.0586 27.3335 12.8855C27.5066 12.7124 27.7414 12.6152 27.9862 12.6152V12.1536C27.9862 12.0312 28.0348 11.9138 28.1214 11.8273C28.2079 11.7407 28.3253 11.6921 28.4477 11.6921C28.5701 11.6921 28.6875 11.7407 28.7741 11.8273C28.8606 11.9138 28.9093 12.0312 28.9093 12.1536V12.6152H30.7554V12.1536C30.7554 12.0312 30.804 11.9138 30.8906 11.8273C30.9772 11.7407 31.0945 11.6921 31.217 11.6921C31.3394 11.6921 31.4568 11.7407 31.5433 11.8273C31.6299 11.9138 31.6785 12.0312 31.6785 12.1536V12.6152C31.9233 12.6152 32.1581 12.7124 32.3312 12.8855C32.5043 13.0586 32.6016 13.2934 32.6016 13.5382V15.3844C32.6016 15.6292 32.5043 15.864 32.3312 16.0371C32.1581 16.2102 31.9233 16.3075 31.6785 16.3075ZM15.9862 26.4613L19.6785 22.769H16.9093V19.9998L14.14 23.6921H16.9093L15.9862 26.4613ZM21.5246 11.6921H12.2939V17.2305H21.5246V11.6921ZM30.7554 13.5382H28.9093C28.6644 13.5382 28.4297 13.6355 28.2565 13.8086C28.0834 13.9817 27.9862 14.2165 27.9862 14.4613C27.9862 14.7061 28.0834 14.9409 28.2565 15.114C28.4297 15.2871 28.6644 15.3844 28.9093 15.3844H30.7554C31.0002 15.3844 31.235 15.2871 31.4081 15.114C31.5812 14.9409 31.6785 14.7061 31.6785 14.4613C31.6785 14.2165 31.5812 13.9817 31.4081 13.8086C31.235 13.6355 31.0002 13.5382 30.7554 13.5382Z" fill="url(#paint2_linear_218_9804)"/>
</g>
<defs>
<filter id="filter0_ii_218_9804" x="0" y="0" width="40" height="47.0192" filterUnits="userSpaceOnUse" color-interpolation-filters="sRGB">
<feFlood flood-opacity="0" result="BackgroundImageFix"/>
<feBlend mode="normal" in="SourceGraphic" in2="BackgroundImageFix" result="shape"/>
<feColorMatrix in="SourceAlpha" type="matrix" values="0 0 0 0 0 0 0 0 0 0 0 0 0 0 0 0 0 0 127 0" result="hardAlpha"/>
<feOffset dy="0.865385"/>
<feGaussianBlur stdDeviation="5.38462"/>
<feComposite in2="hardAlpha" operator="arithmetic" k2="-1" k3="1"/>
<feColorMatrix type="matrix" values="0 0 0 0 0.996078 0 0 0 0 0.929412 0 0 0 0 0.47451 0 0 0 0.6 0"/>
<feBlend mode="normal" in2="shape" result="effect1_innerShadow_218_9804"/>
<feColorMatrix in="SourceAlpha" type="matrix" values="0 0 0 0 0 0 0 0 0 0 0 0 0 0 0 0 0 0 127 0" result="hardAlpha"/>
<feOffset dy="0.865385"/>
<feGaussianBlur stdDeviation="3.46154"/>
<feComposite in2="hardAlpha" operator="arithmetic" k2="-1" k3="1"/>
<feColorMatrix type="matrix" values="0 0 0 0 0.996078 0 0 0 0 0.929412 0 0 0 0 0.47451 0 0 0 0.5 0"/>
<feBlend mode="normal" in2="effect1_innerShadow_218_9804" result="effect2_innerShadow_218_9804"/>
</filter>
<linearGradient id="paint0_linear_218_9804" x1="-20" y1="0" x2="-20" y2="46.1538" gradientUnits="userSpaceOnUse">
<stop stop-color="#0183FC" stop-opacity="0.05"/>
<stop offset="1" stop-color="#37BCFF" stop-opacity="0.05"/>
</linearGradient>
<linearGradient id="paint1_linear_218_9804" x1="-15.2375" y1="5.49515" x2="-15.2375" y2="46.1538" gradientUnits="userSpaceOnUse">
<stop stop-color="#FEED79"/>
<stop offset="1" stop-color="#FEED79"/>
</linearGradient>
<linearGradient id="paint2_linear_218_9804" x1="1.9349" y1="32.8499" x2="3.13774" y2="10.483" gradientUnits="userSpaceOnUse">
<stop stop-color="white"/>
<stop offset="1" stop-color="#FFEC6B"/>
</linearGradient>
</defs>
</svg>
