<svg width="48" height="48" viewBox="0 0 48 48" fill="none" xmlns="http://www.w3.org/2000/svg">
<g id="&#230;&#161;&#165;&#230;&#162;&#129;">
<g id="Ellipse 9">
<g filter="url(#filter0_ii_218_9776)">
<path d="M44 20.0066C44 27.7252 39.6304 34.4229 33.2308 37.7595C30.9677 38.9393 27.248 40.7324 25.1322 45.5758C24.7955 46.3465 23.2045 46.3465 22.8678 45.5758C20.752 40.7324 17.0323 38.9393 14.7692 37.7595C8.36957 34.4229 4 27.7252 4 20.0066C4 8.95725 12.9543 0 24 0C35.0457 0 44 8.95725 44 20.0066Z" fill="url(#paint0_linear_218_9776)" fill-opacity="0.3"/>
</g>
<path d="M42.8462 20.0066C42.8462 27.2786 38.7306 33.5908 32.6973 36.7363C32.6115 36.7811 32.523 36.827 32.4321 36.8741C30.1499 38.0576 26.3462 40.0301 24.1314 44.9859C24.1281 44.9866 24.1247 44.9874 24.1211 44.9881C24.0861 44.9954 24.0446 45 24 45C23.9554 45 23.9139 44.9954 23.8789 44.9881C23.8753 44.9874 23.8719 44.9866 23.8686 44.9859C21.6538 40.0301 17.8501 38.0576 15.5679 36.8741C15.477 36.827 15.3885 36.7811 15.3027 36.7363C9.26937 33.5908 5.15385 27.2786 5.15385 20.0066C5.15385 9.59415 13.5919 1.15385 24 1.15385C34.4081 1.15385 42.8462 9.59415 42.8462 20.0066Z" stroke="url(#paint1_linear_218_9776)" stroke-width="2.30769"/>
</g>
<g id="Vector" filter="url(#filter1_di_218_9776)">
<path d="M33.3046 12.6356C33.2085 12.6473 33.0984 12.6707 33.0023 12.6848C32.6507 12.7809 32.3015 12.9989 32.107 13.252C31.9382 13.4582 31.7812 13.6762 31.671 13.9411C31.4062 14.6067 31.6101 15.3919 31.9007 15.8513C32.2031 16.3599 32.5288 16.8661 32.8429 17.363C33.0609 17.6771 33.2789 17.9911 33.4968 18.3169C33.5085 18.3169 33.5085 18.3286 33.5203 18.3286L34.282 17.0958C34.6804 16.5028 35.1164 16.0317 35.3578 15.2466C35.8195 13.7231 34.7297 12.6004 33.3046 12.6356ZM33.5578 15.6942C32.9648 15.7786 32.4327 15.0286 32.6273 14.4239C32.7609 13.9997 33.0374 13.9153 33.4382 13.7582C34.6945 13.7348 34.7179 15.5255 33.5578 15.6942ZM33.982 24.385C32.8828 23.6608 31.7694 22.9459 30.6702 22.2217C30.2952 21.9686 29.9085 21.7014 29.5335 21.4482L27.2834 20.2154C26.885 19.9857 26.4139 19.7795 26.0998 19.4654C26.0881 19.4654 26.0881 19.4537 26.0764 19.4537C27.5764 19.1396 29.135 19.1279 30.7054 18.8607C31.5163 18.7646 32.3132 18.6802 33.1218 18.5818V18.5701C32.9999 18.4013 32.6507 17.9302 32.4679 17.8458C32.2616 17.8575 32.0577 17.881 31.8632 17.895C31.139 17.9443 30.4007 17.9794 29.6764 18.0286C29.1092 18.113 28.528 18.0404 27.9233 18.1365C26.2311 18.2935 24.5271 18.4505 22.8349 18.5958C23.5966 19.1888 24.3701 19.7795 25.1318 20.3607C25.9545 20.9045 26.8358 21.3404 27.635 21.9076C28.6499 22.6928 29.6647 23.478 30.6702 24.2772C30.6819 24.2889 30.6819 24.3006 30.6936 24.3124C28.2514 24.4694 25.8092 24.6264 23.381 24.7717C22.8865 24.7952 22.3896 24.821 21.9068 24.8327C21.5083 24.8936 21.1333 24.9288 20.7583 24.978C20.4677 25.3882 20.1653 25.8007 19.8512 26.2343C19.3919 26.8741 18.9934 27.5632 18.5575 28.2523C18.4004 28.5054 18.2434 28.7609 18.0864 29.014C20.4442 28.5312 22.849 28.1327 25.2185 27.6007L29.6788 26.8038C31.7812 26.4405 33.8976 26.0796 36 25.7163V25.7046C35.3226 25.2686 34.6593 24.821 33.982 24.385ZM19.0637 20.6865C19.0145 20.6373 18.9559 20.6021 18.895 20.5787C18.834 20.5553 18.7614 20.5295 18.6887 20.5295C18.5434 20.5295 18.4098 20.5904 18.302 20.6865C18.2528 20.7357 18.2059 20.7943 18.1684 20.867C18.145 20.9396 18.1192 21.0123 18.1192 21.085C18.1192 21.1576 18.1309 21.2303 18.1684 21.2912C18.1918 21.3639 18.2411 21.4248 18.302 21.46C18.3512 21.5092 18.4098 21.5443 18.4708 21.5818C18.5317 21.617 18.6043 21.6311 18.677 21.6311C18.7497 21.6311 18.8223 21.6076 18.8833 21.5818C18.9442 21.5467 19.0051 21.5092 19.052 21.46C19.113 21.4107 19.1481 21.3521 19.1856 21.2912C19.209 21.2303 19.2348 21.1576 19.2348 21.085C19.2348 21.0123 19.2231 20.9396 19.1856 20.867C19.1622 20.7943 19.113 20.7357 19.0637 20.6865ZM15.7285 20.6865C15.6793 20.6373 15.6207 20.6021 15.5598 20.5787C15.3535 20.4943 15.1238 20.5435 14.9668 20.6865C14.9176 20.7357 14.8707 20.7943 14.8332 20.867C14.8097 20.9396 14.784 21.0123 14.784 21.085C14.784 21.1576 14.7957 21.2303 14.8332 21.2912C14.8566 21.3639 14.9058 21.4248 14.9668 21.46C15.016 21.5092 15.0746 21.5443 15.1355 21.5818C15.1965 21.617 15.2691 21.6311 15.3418 21.6311C15.4144 21.6311 15.4871 21.6076 15.548 21.5818C15.609 21.5467 15.6699 21.5092 15.7168 21.46C15.7777 21.4107 15.8129 21.3521 15.8504 21.2912C15.8738 21.2303 15.8996 21.1576 15.8996 21.085C15.8996 21.0123 15.8879 20.9396 15.8504 20.867C15.8363 20.7943 15.7894 20.7357 15.7285 20.6865ZM14.798 17.5669H19.2348V19.4162H14.798V17.5669Z" fill="url(#paint2_linear_218_9776)"/>
<path d="M16.7317 14.3653C16.4411 14.4731 16.0075 14.4497 15.7051 14.534C14.8238 14.7989 13.9895 15.3309 13.4691 15.9731C13.0215 16.5286 12.6113 17.0982 12.3207 17.8224C11.6433 19.538 12.1379 21.3639 12.8879 22.5967C13.7574 24.01 14.641 25.4022 15.5715 26.7429C16.0801 27.4812 16.5629 28.2288 17.0715 28.9554C17.0833 28.9671 17.095 28.9671 17.1067 28.9789C17.409 28.4702 17.7231 27.9757 18.0489 27.4671C18.4966 26.7546 18.9185 26.0397 19.3896 25.3647C20.3083 24.0709 21.1779 23.0561 21.7216 21.3146C22.9685 17.4591 20.5029 14.2926 16.7317 14.3653ZM19.9825 21.2537C19.9825 21.3381 19.9708 21.4225 19.9591 21.5068C19.9474 21.5795 19.9099 21.6521 19.8864 21.7248C19.8513 21.7975 19.8138 21.8584 19.7646 21.9193C19.7153 21.9803 19.6685 22.0272 19.6075 22.0764V22.7537C19.6075 22.8615 19.5724 22.9483 19.5114 23.0069C19.4505 23.0795 19.3544 23.1147 19.2466 23.1147H18.8833C18.7614 23.1147 18.677 23.0795 18.6044 23.0069C18.5317 22.9342 18.4966 22.8498 18.4966 22.742V22.3553H15.5481V22.742C15.5481 22.8498 15.5129 22.9365 15.4403 22.9951C15.3676 23.0678 15.2832 23.103 15.1613 23.103H14.7981C14.6762 23.103 14.5918 23.0678 14.5332 22.9951C14.4723 22.9225 14.4371 22.8381 14.4371 22.742V22.0647C14.3762 22.0154 14.3293 21.9686 14.2801 21.9076C14.2309 21.8467 14.1957 21.7857 14.1582 21.7131C14.123 21.6404 14.0973 21.5678 14.0855 21.4951C14.0621 21.4107 14.0621 21.3264 14.0621 21.242V17.5552C14.0621 17.2294 14.1348 16.9739 14.2918 16.77C14.4488 16.5755 14.6551 16.4185 14.9199 16.3224C15.1989 16.2145 15.5129 16.1536 15.8739 16.1278C16.2372 16.1044 16.6122 16.0786 17.0223 16.0786C17.4208 16.0786 17.8075 16.0903 18.1708 16.1278C18.5341 16.1513 18.8481 16.2239 19.1247 16.3224C19.3896 16.4302 19.5958 16.5755 19.7528 16.77C19.9099 16.9646 19.9825 17.2294 19.9825 17.5552V21.2537Z" fill="url(#paint3_linear_218_9776)"/>
</g>
</g>
<defs>
<filter id="filter0_ii_218_9776" x="4" y="0" width="40" height="47.0192" filterUnits="userSpaceOnUse" color-interpolation-filters="sRGB">
<feFlood flood-opacity="0" result="BackgroundImageFix"/>
<feBlend mode="normal" in="SourceGraphic" in2="BackgroundImageFix" result="shape"/>
<feColorMatrix in="SourceAlpha" type="matrix" values="0 0 0 0 0 0 0 0 0 0 0 0 0 0 0 0 0 0 127 0" result="hardAlpha"/>
<feOffset dy="0.865385"/>
<feGaussianBlur stdDeviation="5.38462"/>
<feComposite in2="hardAlpha" operator="arithmetic" k2="-1" k3="1"/>
<feColorMatrix type="matrix" values="0 0 0 0 0.160784 0 0 0 0 0.905882 0 0 0 0 0.643137 0 0 0 0.6 0"/>
<feBlend mode="normal" in2="shape" result="effect1_innerShadow_218_9776"/>
<feColorMatrix in="SourceAlpha" type="matrix" values="0 0 0 0 0 0 0 0 0 0 0 0 0 0 0 0 0 0 127 0" result="hardAlpha"/>
<feOffset dy="0.865385"/>
<feGaussianBlur stdDeviation="3.46154"/>
<feComposite in2="hardAlpha" operator="arithmetic" k2="-1" k3="1"/>
<feColorMatrix type="matrix" values="0 0 0 0 0.160784 0 0 0 0 0.905882 0 0 0 0 0.643137 0 0 0 0.5 0"/>
<feBlend mode="normal" in2="effect1_innerShadow_218_9776" result="effect2_innerShadow_218_9776"/>
</filter>
<filter id="filter1_di_218_9776" x="0.921846" y="8.94205" width="46.1563" height="38.5357" filterUnits="userSpaceOnUse" color-interpolation-filters="sRGB">
<feFlood flood-opacity="0" result="BackgroundImageFix"/>
<feColorMatrix in="SourceAlpha" type="matrix" values="0 0 0 0 0 0 0 0 0 0 0 0 0 0 0 0 0 0 127 0" result="hardAlpha"/>
<feOffset dy="7.38544"/>
<feGaussianBlur stdDeviation="5.53908"/>
<feColorMatrix type="matrix" values="0 0 0 0 0.0941176 0 0 0 0 1 0 0 0 0 0.984314 0 0 0 0.32 0"/>
<feBlend mode="normal" in2="BackgroundImageFix" result="effect1_dropShadow_218_9776"/>
<feBlend mode="normal" in="SourceGraphic" in2="effect1_dropShadow_218_9776" result="shape"/>
<feColorMatrix in="SourceAlpha" type="matrix" values="0 0 0 0 0 0 0 0 0 0 0 0 0 0 0 0 0 0 127 0" result="hardAlpha"/>
<feOffset dy="1.84636"/>
<feGaussianBlur stdDeviation="3.69272"/>
<feComposite in2="hardAlpha" operator="arithmetic" k2="-1" k3="1"/>
<feColorMatrix type="matrix" values="0 0 0 0 1 0 0 0 0 1 0 0 0 0 1 0 0 0 0.5 0"/>
<feBlend mode="normal" in2="shape" result="effect2_innerShadow_218_9776"/>
</filter>
<linearGradient id="paint0_linear_218_9776" x1="-16" y1="0" x2="-16" y2="46.1538" gradientUnits="userSpaceOnUse">
<stop stop-color="#0183FC" stop-opacity="0.05"/>
<stop offset="1" stop-color="#37BCFF" stop-opacity="0.05"/>
</linearGradient>
<linearGradient id="paint1_linear_218_9776" x1="-11.2375" y1="5.49515" x2="-11.2375" y2="46.1538" gradientUnits="userSpaceOnUse">
<stop stop-color="#29E7A4"/>
<stop offset="1" stop-color="#29E7A4"/>
</linearGradient>
<linearGradient id="paint2_linear_218_9776" x1="-0.94224" y1="10.9138" x2="-0.94224" y2="27.9361" gradientUnits="userSpaceOnUse">
<stop stop-color="#29E7A4"/>
<stop offset="1" stop-color="#B1FFE4"/>
</linearGradient>
<linearGradient id="paint3_linear_218_9776" x1="-0.94224" y1="10.9138" x2="-0.94224" y2="27.9361" gradientUnits="userSpaceOnUse">
<stop stop-color="#29E7A4"/>
<stop offset="1" stop-color="#B1FFE4"/>
</linearGradient>
</defs>
</svg>
