<svg width="48" height="49" viewBox="0 0 48 49" fill="none" xmlns="http://www.w3.org/2000/svg">
<g id="&#230;&#161;&#165;&#230;&#162;&#129;">
<g id="Ellipse 9">
<g filter="url(#filter0_ii_218_9772)">
<path d="M44 20.0066C44 27.7252 39.6304 34.4229 33.2308 37.7595C30.9677 38.9393 27.248 40.7324 25.1322 45.5758C24.7955 46.3465 23.2045 46.3465 22.8678 45.5758C20.752 40.7324 17.0323 38.9393 14.7692 37.7595C8.36957 34.4229 4 27.7252 4 20.0066C4 8.95725 12.9543 0 24 0C35.0457 0 44 8.95725 44 20.0066Z" fill="url(#paint0_linear_218_9772)" fill-opacity="0.3"/>
</g>
<path d="M42.8462 20.0066C42.8462 27.2786 38.7306 33.5908 32.6973 36.7363C32.6115 36.7811 32.523 36.827 32.4321 36.8741C30.1499 38.0576 26.3462 40.0301 24.1314 44.9859C24.1281 44.9866 24.1247 44.9874 24.1211 44.9881C24.0861 44.9954 24.0446 45 24 45C23.9554 45 23.9139 44.9954 23.8789 44.9881C23.8753 44.9874 23.8719 44.9866 23.8686 44.9859C21.6538 40.0301 17.8501 38.0576 15.5679 36.8741C15.477 36.827 15.3885 36.7811 15.3027 36.7363C9.26937 33.5908 5.15385 27.2786 5.15385 20.0066C5.15385 9.59415 13.5919 1.15385 24 1.15385C34.4081 1.15385 42.8462 9.59415 42.8462 20.0066Z" stroke="url(#paint1_linear_218_9772)" stroke-width="2.30769"/>
</g>
<g id="Vector" filter="url(#filter1_di_218_9772)">
<path d="M32.3208 21.9863C32.0869 21.7472 31.9115 21.4572 31.8085 21.139L26.131 21.3892C25.9343 21.9746 25.6998 21.363 25.2256 21.7346L28.3954 26.039C28.7299 25.9604 29.0852 25.9517 29.4405 26.0481C30.5936 26.3601 31.2786 27.5561 30.9692 28.7201C30.6601 29.8837 29.4747 30.5746 28.3208 30.2626C27.167 29.951 26.4827 28.7546 26.7918 27.591C26.8888 27.2244 27.0801 26.9121 27.323 26.6557C25.6438 23.5346 24.7212 21.9957 24.5554 22.039C24.3067 22.1045 24.5772 22.039 24.3081 22.039C23.6794 22.039 23.9019 22.3648 23.4136 22.039L17.8634 27.1212C18.0278 27.4288 18.1296 27.7753 18.1296 28.1495C18.1296 29.3543 17.1616 30.3313 15.9671 30.3313C14.7725 30.3313 13.8045 29.3543 13.8045 28.1495C13.8045 26.9444 14.7725 25.9677 15.9671 25.9677C16.3394 25.9677 16.6845 26.0714 16.9903 26.2386L22.615 22.0394C22.291 21.5463 23.0965 22.0586 23.0965 21.4226C22.9038 21.3797 22.6874 21.2645 22.4478 21.0772C21.1605 20.071 18.9256 18.3845 15.7438 16.0183C15.3625 16.2494 14.9253 16.3718 14.4794 16.3721C13.1144 16.3718 12.0078 15.2554 12.0078 13.8783C12.0078 12.5009 13.1144 11.3849 14.4791 11.3849C15.8442 11.3849 16.9507 12.5009 16.9507 13.8783C16.9507 14.3365 16.826 14.7641 16.6125 15.1332C20.2372 18.3194 22.3987 20.1168 23.0961 20.5252C23.7325 20.8976 23.5721 20.8132 22.6147 20.2717C23.1016 19.9492 23.6827 20.2717 24.3081 20.2717C24.6318 20.2717 24.7183 20.4121 25.011 20.5045L31.1728 13.4194C30.9914 13.2089 30.8594 12.9604 30.7866 12.6921C30.5219 11.6943 31.1085 10.6685 32.0976 10.4012C32.4612 10.3031 32.8277 10.3227 33.1605 10.4347C33.2914 10.4165 33.4281 10.4383 33.5514 10.51C33.675 10.5823 33.7626 10.6925 33.8125 10.8169C34.0818 11.0584 34.2748 11.3734 34.3677 11.723C34.6332 12.7209 34.0459 13.7463 33.0572 14.0139C32.7917 14.0841 32.5137 14.0935 32.2441 14.0412L26.1143 20.0277C26.7172 20.5488 26.0645 20.2306 26.131 21.0768L31.7666 19.8921C31.8605 19.5299 32.0394 19.1848 32.3208 18.9008C32.5207 18.6984 32.7588 18.5376 33.0213 18.4279C33.2838 18.3182 33.5654 18.2617 33.8499 18.2617C34.1344 18.2617 34.4161 18.3182 34.6786 18.4279C34.941 18.5376 35.1791 18.6984 35.379 18.9008C35.587 19.1115 35.7499 19.3624 35.8578 19.6381C35.9657 19.9138 36.0164 20.2086 36.0066 20.5045L36.0077 20.5154C36.0077 20.5608 36.0019 20.6052 35.9932 20.6481C35.9474 21.1361 35.7495 21.6125 35.379 21.9863C35.1791 22.1887 34.941 22.3494 34.6785 22.4591C34.416 22.5688 34.1344 22.6252 33.8499 22.6252C33.5654 22.6252 33.2838 22.5688 33.0213 22.4591C32.7588 22.3494 32.5207 22.1887 32.3208 21.9863Z" fill="url(#paint2_linear_218_9772)"/>
<path d="M28.3714 23.3895C28.3714 23.5859 28.3503 23.7565 28.3085 23.9015C28.272 24.0381 28.1924 24.1593 28.0816 24.247C27.9725 24.3321 27.8085 24.3746 27.5899 24.3746V25.1681C27.5915 25.2738 27.5717 25.3787 27.5315 25.4766C27.4914 25.5744 27.4319 25.663 27.3565 25.7372C27.2012 25.895 27.0143 25.9739 26.7958 25.9739C26.5772 25.9739 26.3921 25.895 26.2408 25.7375C26.1671 25.6624 26.1091 25.5734 26.0702 25.4756C26.0312 25.3779 26.0121 25.2733 26.0139 25.1681V24.3746H21.2743V25.1681C21.2743 25.3899 21.1987 25.5794 21.0474 25.7372C20.8961 25.895 20.7111 25.9739 20.4925 25.9739C20.2743 25.9739 20.0871 25.895 19.9318 25.7375C19.8564 25.6634 19.7968 25.5746 19.7567 25.4767C19.7165 25.3789 19.6967 25.2739 19.6983 25.1681V24.3746C19.4885 24.3746 19.3285 24.3321 19.2194 24.247C19.1086 24.1593 19.029 24.0381 18.9925 23.9015C18.9478 23.7367 18.9245 23.5669 18.9234 23.3961C18.919 23.1893 18.9168 22.9825 18.9169 22.7757V15.5732C18.9169 15.3514 18.9591 15.1445 19.0431 14.9525C19.1267 14.7609 19.2405 14.5925 19.3834 14.447C19.5263 14.3023 19.6921 14.187 19.8812 14.1016C20.0735 14.0157 20.282 13.9722 20.4925 13.9739H26.7958C27.0139 13.9739 27.2179 14.0165 27.407 14.1019C27.5961 14.187 27.7619 14.3023 27.9052 14.4474C28.0478 14.5921 28.1612 14.7609 28.2452 14.9529C28.3292 15.1445 28.3714 15.3514 28.3714 15.5732V23.3895ZM22.043 14.767C21.934 14.767 21.8416 14.8056 21.766 14.8823C21.729 14.9191 21.6999 14.963 21.6804 15.0114C21.6609 15.0598 21.6514 15.1116 21.6525 15.1638C21.6525 15.283 21.6903 15.3812 21.766 15.4579C21.8416 15.5347 21.934 15.5732 22.043 15.5732H25.2452C25.3543 15.5732 25.4467 15.5347 25.5223 15.4579C25.5979 15.3812 25.6358 15.2834 25.6358 15.1634C25.6368 15.1113 25.6273 15.0595 25.6078 15.0112C25.5883 14.9629 25.5592 14.9191 25.5223 14.8823C25.4866 14.845 25.4435 14.8155 25.3958 14.7957C25.3481 14.7759 25.2969 14.7661 25.2452 14.767H22.043ZM21.2678 22.7306C21.3228 22.6765 21.3662 22.6117 21.3955 22.5403C21.4247 22.4688 21.4392 22.3922 21.438 22.315C21.4392 22.2378 21.4247 22.1612 21.3955 22.0898C21.3662 22.0183 21.3228 21.9535 21.2678 21.8994C21.2151 21.8439 21.1516 21.7999 21.0811 21.7702C21.0106 21.7405 20.9348 21.7256 20.8583 21.7266C20.69 21.7266 20.5514 21.7841 20.4423 21.8994C20.3332 22.0143 20.2783 22.1532 20.2783 22.315C20.2783 22.4772 20.3329 22.6157 20.442 22.731C20.5514 22.8459 20.69 22.9037 20.8583 22.9037C21.018 22.9037 21.1543 22.8455 21.2678 22.7306ZM26.3798 22.8779C26.531 22.8779 26.659 22.8226 26.7641 22.7117C26.8151 22.6593 26.8553 22.5973 26.8823 22.5292C26.9094 22.4612 26.9227 22.3885 26.9216 22.3154C26.9227 22.2421 26.9094 22.1694 26.8824 22.1013C26.8554 22.0332 26.8152 21.9712 26.7641 21.9186C26.7155 21.8652 26.6561 21.8228 26.5898 21.794C26.5236 21.7653 26.452 21.751 26.3798 21.7521C26.2198 21.7521 26.0878 21.8077 25.9827 21.9186C25.9316 21.9711 25.8913 22.0331 25.8643 22.1011C25.8372 22.1691 25.8238 22.2418 25.8249 22.315C25.8249 22.4685 25.8776 22.6008 25.9827 22.7114C26.0333 22.7657 26.0948 22.8086 26.1633 22.8373C26.2318 22.8661 26.3055 22.8799 26.3798 22.8779ZM27.5896 16.3667H19.6983V19.5648H27.5899L27.5896 16.3667Z" fill="url(#paint3_linear_218_9772)"/>
</g>
</g>
<defs>
<filter id="filter0_ii_218_9772" x="4" y="0" width="40" height="47.0192" filterUnits="userSpaceOnUse" color-interpolation-filters="sRGB">
<feFlood flood-opacity="0" result="BackgroundImageFix"/>
<feBlend mode="normal" in="SourceGraphic" in2="BackgroundImageFix" result="shape"/>
<feColorMatrix in="SourceAlpha" type="matrix" values="0 0 0 0 0 0 0 0 0 0 0 0 0 0 0 0 0 0 127 0" result="hardAlpha"/>
<feOffset dy="0.865385"/>
<feGaussianBlur stdDeviation="5.38462"/>
<feComposite in2="hardAlpha" operator="arithmetic" k2="-1" k3="1"/>
<feColorMatrix type="matrix" values="0 0 0 0 0.160784 0 0 0 0 0.905882 0 0 0 0 0.643137 0 0 0 0.6 0"/>
<feBlend mode="normal" in2="shape" result="effect1_innerShadow_218_9772"/>
<feColorMatrix in="SourceAlpha" type="matrix" values="0 0 0 0 0 0 0 0 0 0 0 0 0 0 0 0 0 0 127 0" result="hardAlpha"/>
<feOffset dy="0.865385"/>
<feGaussianBlur stdDeviation="3.46154"/>
<feComposite in2="hardAlpha" operator="arithmetic" k2="-1" k3="1"/>
<feColorMatrix type="matrix" values="0 0 0 0 0.160784 0 0 0 0 0.905882 0 0 0 0 0.643137 0 0 0 0.5 0"/>
<feBlend mode="normal" in2="effect1_innerShadow_218_9772" result="effect2_innerShadow_218_9772"/>
</filter>
<filter id="filter1_di_218_9772" x="0.929659" y="6.64517" width="46.1563" height="42.1558" filterUnits="userSpaceOnUse" color-interpolation-filters="sRGB">
<feFlood flood-opacity="0" result="BackgroundImageFix"/>
<feColorMatrix in="SourceAlpha" type="matrix" values="0 0 0 0 0 0 0 0 0 0 0 0 0 0 0 0 0 0 127 0" result="hardAlpha"/>
<feOffset dy="7.38544"/>
<feGaussianBlur stdDeviation="5.53908"/>
<feColorMatrix type="matrix" values="0 0 0 0 0.0941176 0 0 0 0 1 0 0 0 0 0.984314 0 0 0 0.32 0"/>
<feBlend mode="normal" in2="BackgroundImageFix" result="effect1_dropShadow_218_9772"/>
<feBlend mode="normal" in="SourceGraphic" in2="effect1_dropShadow_218_9772" result="shape"/>
<feColorMatrix in="SourceAlpha" type="matrix" values="0 0 0 0 0 0 0 0 0 0 0 0 0 0 0 0 0 0 127 0" result="hardAlpha"/>
<feOffset dy="1.84636"/>
<feGaussianBlur stdDeviation="3.69272"/>
<feComposite in2="hardAlpha" operator="arithmetic" k2="-1" k3="1"/>
<feColorMatrix type="matrix" values="0 0 0 0 1 0 0 0 0 1 0 0 0 0 1 0 0 0 0.5 0"/>
<feBlend mode="normal" in2="shape" result="effect2_innerShadow_218_9772"/>
</filter>
<linearGradient id="paint0_linear_218_9772" x1="-16" y1="0" x2="-16" y2="46.1538" gradientUnits="userSpaceOnUse">
<stop stop-color="#0183FC" stop-opacity="0.05"/>
<stop offset="1" stop-color="#37BCFF" stop-opacity="0.05"/>
</linearGradient>
<linearGradient id="paint1_linear_218_9772" x1="-11.2375" y1="5.49515" x2="-11.2375" y2="46.1538" gradientUnits="userSpaceOnUse">
<stop stop-color="#29E7A4"/>
<stop offset="1" stop-color="#29E7A4"/>
</linearGradient>
<linearGradient id="paint2_linear_218_9772" x1="-0.934428" y1="8.23657" x2="-0.934428" y2="29.0214" gradientUnits="userSpaceOnUse">
<stop stop-color="#29E7A4"/>
<stop offset="1" stop-color="#B1FFE4"/>
</linearGradient>
<linearGradient id="paint3_linear_218_9772" x1="-0.934428" y1="8.23657" x2="-0.934428" y2="29.0214" gradientUnits="userSpaceOnUse">
<stop stop-color="#29E7A4"/>
<stop offset="1" stop-color="#B1FFE4"/>
</linearGradient>
</defs>
</svg>
