<svg width="40" height="41" viewBox="0 0 40 41" fill="none" xmlns="http://www.w3.org/2000/svg">
<g id="&#232;&#183;&#175;&#231;&#189;&#145;" clip-path="url(#clip0_212_9526)">
<path id="Vector" d="M11.8789 40.4999C11.2205 40.4988 10.5894 40.2363 10.1243 39.7702C9.6593 39.304 9.39837 38.6723 9.39891 38.0139V34.1539H2.48491C1.8269 34.1539 1.19585 33.8925 0.730574 33.4272C0.265297 32.9619 0.00390625 32.3309 0.00390625 31.6729C0.00390625 31.0149 0.265297 30.3838 0.730574 29.9185C1.19585 29.4532 1.8269 29.1919 2.48491 29.1919H9.39891V18.8879H4.51291C3.8549 18.8879 3.22385 18.6265 2.75857 18.1612C2.2933 17.6959 2.03191 17.0649 2.03191 16.4069C2.03191 15.7489 2.2933 15.1178 2.75857 14.6525C3.22385 14.1872 3.8549 13.9259 4.51291 13.9259H14.8129L20.4229 8.92586H28.7489V2.98786C28.7489 2.32959 29.0104 1.69829 29.4759 1.23282C29.9413 0.767355 30.5726 0.505859 31.2309 0.505859C31.8892 0.505859 32.5205 0.767355 32.9859 1.23282C33.4514 1.69829 33.7129 2.32959 33.7129 2.98786V8.91986H37.5129C38.1709 8.91986 38.802 9.18125 39.2672 9.64653C39.7325 10.1118 39.9939 10.7429 39.9939 11.4009C39.9939 12.0589 39.7325 12.6899 39.2672 13.1552C38.802 13.6205 38.1709 13.8819 37.5129 13.8819H33.7129V25.4819C34.7489 25.8958 35.6656 26.5609 36.3804 27.4174C37.0953 28.2739 37.5858 29.2948 37.8077 30.3881C38.0297 31.4814 37.9761 32.6128 37.6519 33.6802C37.3276 34.7477 36.7429 35.7177 35.9503 36.5028C35.1578 37.2879 34.1823 37.8635 33.1119 38.1777C32.0414 38.4919 30.9096 38.5349 29.8185 38.3026C28.7273 38.0704 27.7111 37.5703 26.8613 36.8475C26.0116 36.1246 25.3551 35.2017 24.9509 34.1619H14.3609V38.0219C14.3593 38.6793 14.0972 39.3092 13.6319 39.7737C13.1667 40.2382 12.5363 40.4993 11.8789 40.4999ZM31.2169 29.9559C30.8678 29.9566 30.5268 30.0609 30.2369 30.2554C29.947 30.45 29.7212 30.726 29.5882 31.0488C29.4551 31.3716 29.4207 31.7265 29.4893 32.0688C29.5579 32.4111 29.7264 32.7254 29.9736 32.972C30.2207 33.2186 30.5354 33.3864 30.8778 33.4542C31.2203 33.522 31.5752 33.4868 31.8976 33.353C32.2201 33.2193 32.4957 32.9929 32.6896 32.7026C32.8834 32.4122 32.9869 32.071 32.9869 31.7219C32.9872 31.4893 32.9416 31.2589 32.8527 31.0439C32.7639 30.8289 32.6336 30.6336 32.4692 30.469C32.3048 30.3044 32.1096 30.1739 31.8947 30.0848C31.6798 29.9957 31.4495 29.9499 31.2169 29.9499V29.9559ZM24.9829 29.1979C25.3279 28.3556 25.8389 27.5914 26.4856 26.9509C27.1323 26.3104 27.9013 25.8067 28.7469 25.4699V13.8819H22.3189L16.7049 18.8819H14.3609V29.1859H24.9849L24.9829 29.1979Z" fill="url(#paint0_linear_212_9526)"/>
</g>
<defs>
<linearGradient id="paint0_linear_212_9526" x1="19.9989" y1="0.505859" x2="19.9989" y2="40.4999" gradientUnits="userSpaceOnUse">
<stop stop-color="#F8FCFE"/>
<stop offset="1" stop-color="#2ED1FF"/>
</linearGradient>
<clipPath id="clip0_212_9526">
<rect width="40" height="40" fill="white" transform="translate(0 0.5)"/>
</clipPath>
</defs>
</svg>
