<svg width="40" height="47" viewBox="0 0 40 47" fill="none" xmlns="http://www.w3.org/2000/svg">
<g id="&#230;&#161;&#165;&#230;&#162;&#129;">
<g id="Ellipse 9">
<g filter="url(#filter0_ii_218_9756)">
<path d="M40 20.0066C40 27.7252 35.6304 34.4229 29.2308 37.7595C26.9677 38.9393 23.248 40.7324 21.1322 45.5758C20.7955 46.3465 19.2045 46.3465 18.8678 45.5758C16.752 40.7324 13.0323 38.9393 10.7692 37.7595C4.36957 34.4229 0 27.7252 0 20.0066C0 8.95725 8.9543 0 20 0C31.0457 0 40 8.95725 40 20.0066Z" fill="url(#paint0_linear_218_9756)" fill-opacity="0.3"/>
</g>
<path d="M38.8462 20.0066C38.8462 27.2786 34.7306 33.5908 28.6973 36.7363C28.6115 36.7811 28.523 36.827 28.4321 36.8741C26.1499 38.0576 22.3462 40.0301 20.1314 44.9859C20.1281 44.9866 20.1247 44.9874 20.1211 44.9881C20.0861 44.9954 20.0446 45 20 45C19.9554 45 19.9139 44.9954 19.8789 44.9881C19.8753 44.9874 19.8719 44.9866 19.8686 44.9859C17.6538 40.0301 13.8501 38.0576 11.5679 36.8741C11.477 36.827 11.3885 36.7811 11.3027 36.7363C5.26937 33.5908 1.15385 27.2786 1.15385 20.0066C1.15385 9.59415 9.59191 1.15385 20 1.15385C30.4081 1.15385 38.8462 9.59415 38.8462 20.0066Z" stroke="url(#paint1_linear_218_9756)" stroke-width="2.30769"/>
</g>
<path id="Vector" d="M16.9171 15.5912C17.933 15.7936 18.9627 15.9189 19.9975 15.9662C21.0322 15.9129 22.0619 15.7876 23.0792 15.5912C23.114 15.585 23.1469 15.5708 23.1754 15.5498C23.2039 15.5289 23.2271 15.5016 23.2434 15.4703C23.2597 15.4389 23.2686 15.4042 23.2694 15.3688C23.2702 15.3335 23.2628 15.2984 23.2479 15.2663L21.4296 10.9299C21.3065 10.6535 21.1058 10.4187 20.852 10.2539C20.5982 10.0892 20.302 10.0015 19.9994 10.0015C19.6968 10.0015 19.4006 10.0892 19.1468 10.2539C18.893 10.4187 18.6923 10.6535 18.5691 10.9299L16.7508 15.2663C16.7354 15.2982 16.7276 15.3331 16.728 15.3685C16.7284 15.4039 16.737 15.4387 16.7531 15.4702C16.7692 15.5017 16.7924 15.529 16.8208 15.55C16.8493 15.571 16.8822 15.5851 16.9171 15.5912ZM19.9988 25.6262C24.0852 25.6262 26.5146 24.6014 26.5146 23.3268C26.5095 23.1244 26.4344 22.9301 26.3021 22.7769L24.4589 17.8782C24.4409 17.8315 24.4064 17.793 24.362 17.77C24.3175 17.747 24.2662 17.741 24.2177 17.7532C21.4569 18.5197 18.5394 18.5197 15.7786 17.7532C15.7301 17.7413 15.6789 17.7474 15.6345 17.7703C15.5902 17.7933 15.5556 17.8316 15.5374 17.8782L13.6954 22.7769C13.5646 22.931 13.4897 23.1248 13.4829 23.3268C13.4842 24.6014 15.9098 25.6262 19.9988 25.6262ZM29.5563 21.1523H28.8278C28.6117 21.1565 28.4002 21.215 28.2126 21.3224C28.0251 21.4297 27.8675 21.5825 27.7545 21.7667C27.6415 21.9509 27.5767 22.1606 27.5659 22.3764C27.5552 22.5923 27.5989 22.8073 27.693 23.0018L28.6241 24.9888C28.6546 25.055 28.6919 25.1178 28.7353 25.1763C28.8591 25.3478 28.9292 25.5522 28.9365 25.7636C28.9365 27.2882 24.975 28.5254 20.09 28.5254C15.205 28.5254 11.2435 27.2882 11.2435 25.7636C11.2476 25.5517 11.318 25.3463 11.4447 25.1763C11.4886 25.1184 11.5255 25.0554 11.5547 24.9888L12.4869 23.0018C12.5811 22.8073 12.6248 22.5923 12.6141 22.3764C12.6033 22.1606 12.5385 21.9509 12.4254 21.7667C12.3124 21.5825 12.1549 21.4297 11.9674 21.3224C11.7798 21.215 11.5683 21.1565 11.3522 21.1523H10.4437C10.385 21.1526 10.327 21.1646 10.2729 21.1874C10.2188 21.2102 10.1697 21.2434 10.1285 21.2852C10.0873 21.327 10.0548 21.3765 10.0327 21.4309C10.0107 21.4853 9.99958 21.5435 10.0001 21.6022V28.7129C9.99641 29.0504 10.1269 29.3756 10.3629 29.6169C10.5988 29.8583 10.921 29.9961 11.2585 30.0001H28.7378C28.9049 29.9983 29.0701 29.9635 29.2239 29.8979C29.3776 29.8322 29.5169 29.7368 29.6338 29.6173C29.7507 29.4978 29.8428 29.3564 29.905 29.2012C29.9672 29.046 29.9982 28.8801 29.9962 28.7129V21.6022C29.9972 21.5436 29.9865 21.4854 29.9648 21.4309C29.9431 21.3764 29.9108 21.3268 29.8697 21.285C29.8287 21.2431 29.7797 21.2098 29.7257 21.1871C29.6717 21.1643 29.6137 21.1525 29.5551 21.1523H29.5563Z" fill="url(#paint2_linear_218_9756)"/>
</g>
<defs>
<filter id="filter0_ii_218_9756" x="0" y="0" width="40" height="47.0192" filterUnits="userSpaceOnUse" color-interpolation-filters="sRGB">
<feFlood flood-opacity="0" result="BackgroundImageFix"/>
<feBlend mode="normal" in="SourceGraphic" in2="BackgroundImageFix" result="shape"/>
<feColorMatrix in="SourceAlpha" type="matrix" values="0 0 0 0 0 0 0 0 0 0 0 0 0 0 0 0 0 0 127 0" result="hardAlpha"/>
<feOffset dy="0.865385"/>
<feGaussianBlur stdDeviation="5.38462"/>
<feComposite in2="hardAlpha" operator="arithmetic" k2="-1" k3="1"/>
<feColorMatrix type="matrix" values="0 0 0 0 0.996078 0 0 0 0 0.929412 0 0 0 0 0.47451 0 0 0 0.6 0"/>
<feBlend mode="normal" in2="shape" result="effect1_innerShadow_218_9756"/>
<feColorMatrix in="SourceAlpha" type="matrix" values="0 0 0 0 0 0 0 0 0 0 0 0 0 0 0 0 0 0 127 0" result="hardAlpha"/>
<feOffset dy="0.865385"/>
<feGaussianBlur stdDeviation="3.46154"/>
<feComposite in2="hardAlpha" operator="arithmetic" k2="-1" k3="1"/>
<feColorMatrix type="matrix" values="0 0 0 0 0.996078 0 0 0 0 0.929412 0 0 0 0 0.47451 0 0 0 0.5 0"/>
<feBlend mode="normal" in2="effect1_innerShadow_218_9756" result="effect2_innerShadow_218_9756"/>
</filter>
<linearGradient id="paint0_linear_218_9756" x1="-20" y1="0" x2="-20" y2="46.1538" gradientUnits="userSpaceOnUse">
<stop stop-color="#0183FC" stop-opacity="0.05"/>
<stop offset="1" stop-color="#37BCFF" stop-opacity="0.05"/>
</linearGradient>
<linearGradient id="paint1_linear_218_9756" x1="-15.2375" y1="5.49515" x2="-15.2375" y2="46.1538" gradientUnits="userSpaceOnUse">
<stop stop-color="#FEED79"/>
<stop offset="1" stop-color="#FEED79"/>
</linearGradient>
<linearGradient id="paint2_linear_218_9756" x1="4.44547" y1="31.6008" x2="5.62133" y2="11.4199" gradientUnits="userSpaceOnUse">
<stop stop-color="white"/>
<stop offset="1" stop-color="#FFEC6B"/>
</linearGradient>
</defs>
</svg>
