<svg width="48" height="48" viewBox="0 0 48 48" fill="none" xmlns="http://www.w3.org/2000/svg">
<g id="&#230;&#161;&#165;&#230;&#162;&#129;">
<g id="Ellipse 9">
<g filter="url(#filter0_ii_218_9768)">
<path d="M44 20.0066C44 27.7252 39.6304 34.4229 33.2308 37.7595C30.9677 38.9393 27.248 40.7324 25.1322 45.5758C24.7955 46.3465 23.2045 46.3465 22.8678 45.5758C20.752 40.7324 17.0323 38.9393 14.7692 37.7595C8.36957 34.4229 4 27.7252 4 20.0066C4 8.95725 12.9543 0 24 0C35.0457 0 44 8.95725 44 20.0066Z" fill="url(#paint0_linear_218_9768)" fill-opacity="0.3"/>
</g>
<path d="M42.8462 20.0066C42.8462 27.2786 38.7306 33.5908 32.6973 36.7363C32.6115 36.7811 32.523 36.827 32.4321 36.8741C30.1499 38.0576 26.3462 40.0301 24.1314 44.9859C24.1281 44.9866 24.1247 44.9874 24.1211 44.9881C24.0861 44.9954 24.0446 45 24 45C23.9554 45 23.9139 44.9954 23.8789 44.9881C23.8753 44.9874 23.8719 44.9866 23.8686 44.9859C21.6538 40.0301 17.8501 38.0576 15.5679 36.8741C15.477 36.827 15.3885 36.7811 15.3027 36.7363C9.26937 33.5908 5.15385 27.2786 5.15385 20.0066C5.15385 9.59415 13.5919 1.15385 24 1.15385C34.4081 1.15385 42.8462 9.59415 42.8462 20.0066Z" stroke="url(#paint1_linear_218_9768)" stroke-width="2.30769"/>
</g>
<g id="Vector" filter="url(#filter1_di_218_9768)">
<path d="M13.7691 27.8707V16.1315C13.765 15.6652 13.3841 15.2901 12.9177 15.2935C12.4514 15.2904 12.0702 15.6652 12.0664 16.1315V27.8684C12.0664 28.3324 12.4476 28.7064 12.9177 28.7064C13.3841 28.7096 13.765 28.3371 13.7691 27.8707ZM12.9175 12.7485C12.9175 13.2114 13.2984 13.5865 13.7688 13.5865H32.4989C32.9653 13.5897 33.3462 13.2149 33.3502 12.7485V11.9091C33.3456 11.4433 32.9647 11.0691 32.4989 11.0723H13.7691C13.3025 11.0691 12.9215 11.4439 12.9177 11.9103L12.9175 12.7485Z" fill="url(#paint2_linear_218_9768)"/>
<path d="M17.1686 26.7742C16.5724 26.7742 16.0889 26.2904 16.0889 25.6942V20.0003L18.8786 15.4356H34.9867C35.5829 15.4356 36.0664 15.9191 36.0664 16.5156V25.6944C36.0664 26.2907 35.5829 26.7745 34.9867 26.7745H34.4195C34.4294 26.6844 34.4465 26.5969 34.4465 26.5045C34.4465 25.1624 33.3587 24.0746 32.0169 24.0746C30.6748 24.0746 29.5872 25.1627 29.5872 26.5045C29.5872 26.5969 29.6043 26.6844 29.6142 26.7745H23.0836C22.9578 25.2627 21.8156 24.0746 20.4084 24.0746C19.0012 24.0746 17.8593 25.263 17.7332 26.7745L17.1686 26.7742ZM29.5875 20.8348C29.5875 21.1329 29.8289 21.375 30.1273 21.375H33.9067C34.2051 21.375 34.4465 21.1332 34.4465 20.8348V17.5951C34.4465 17.297 34.2051 17.0555 33.9067 17.0555H30.1273C29.8289 17.0555 29.5875 17.297 29.5875 17.5951V20.8348ZM23.6481 20.8348C23.6481 21.1329 23.8899 21.375 24.1883 21.375H27.9676C28.266 21.375 28.5078 21.1332 28.5078 20.8348V17.5951C28.5078 17.297 28.2663 17.0555 27.9676 17.0555H24.188C23.8899 17.0555 23.6479 17.297 23.6479 17.5951L23.6481 20.8348ZM18.2487 19.215V20.8351C18.2487 21.1332 18.4901 21.375 18.7885 21.375H22.0283C22.3264 21.375 22.5678 21.1332 22.5678 20.8351V17.5954C22.5678 17.2973 22.3264 17.0558 22.0283 17.0558H19.3287L18.4561 18.8003C18.4003 18.8988 18.3669 18.9941 18.2487 19.215ZM32.0172 25.1543C33.0608 25.1543 33.907 26.0004 33.907 27.0444C33.907 28.0878 33.0611 28.9342 32.0172 28.9342C30.9735 28.9342 30.1273 28.0878 30.1273 27.0444C30.1273 26.0004 30.9732 25.1543 32.0172 25.1543ZM20.1385 25.1543C21.1822 25.1543 22.0286 26.0004 22.0286 27.0444C22.0286 28.0878 21.1824 28.9342 20.1385 28.9342C19.0948 28.9342 18.2487 28.0878 18.2487 27.0444C18.2487 26.0004 19.0948 25.1543 20.1385 25.1543Z" fill="url(#paint3_linear_218_9768)"/>
</g>
</g>
<defs>
<filter id="filter0_ii_218_9768" x="4" y="0" width="40" height="47.0192" filterUnits="userSpaceOnUse" color-interpolation-filters="sRGB">
<feFlood flood-opacity="0" result="BackgroundImageFix"/>
<feBlend mode="normal" in="SourceGraphic" in2="BackgroundImageFix" result="shape"/>
<feColorMatrix in="SourceAlpha" type="matrix" values="0 0 0 0 0 0 0 0 0 0 0 0 0 0 0 0 0 0 127 0" result="hardAlpha"/>
<feOffset dy="0.865385"/>
<feGaussianBlur stdDeviation="5.38462"/>
<feComposite in2="hardAlpha" operator="arithmetic" k2="-1" k3="1"/>
<feColorMatrix type="matrix" values="0 0 0 0 0.160784 0 0 0 0 0.905882 0 0 0 0 0.643137 0 0 0 0.6 0"/>
<feBlend mode="normal" in2="shape" result="effect1_innerShadow_218_9768"/>
<feColorMatrix in="SourceAlpha" type="matrix" values="0 0 0 0 0 0 0 0 0 0 0 0 0 0 0 0 0 0 127 0" result="hardAlpha"/>
<feOffset dy="0.865385"/>
<feGaussianBlur stdDeviation="3.46154"/>
<feComposite in2="hardAlpha" operator="arithmetic" k2="-1" k3="1"/>
<feColorMatrix type="matrix" values="0 0 0 0 0.160784 0 0 0 0 0.905882 0 0 0 0 0.643137 0 0 0 0.5 0"/>
<feBlend mode="normal" in2="effect1_innerShadow_218_9768" result="effect2_innerShadow_218_9768"/>
</filter>
<filter id="filter1_di_218_9768" x="0.988253" y="7.37955" width="46.1563" height="40.0181" filterUnits="userSpaceOnUse" color-interpolation-filters="sRGB">
<feFlood flood-opacity="0" result="BackgroundImageFix"/>
<feColorMatrix in="SourceAlpha" type="matrix" values="0 0 0 0 0 0 0 0 0 0 0 0 0 0 0 0 0 0 127 0" result="hardAlpha"/>
<feOffset dy="7.38544"/>
<feGaussianBlur stdDeviation="5.53908"/>
<feColorMatrix type="matrix" values="0 0 0 0 0.0941176 0 0 0 0 1 0 0 0 0 0.984314 0 0 0 0.32 0"/>
<feBlend mode="normal" in2="BackgroundImageFix" result="effect1_dropShadow_218_9768"/>
<feBlend mode="normal" in="SourceGraphic" in2="effect1_dropShadow_218_9768" result="shape"/>
<feColorMatrix in="SourceAlpha" type="matrix" values="0 0 0 0 0 0 0 0 0 0 0 0 0 0 0 0 0 0 127 0" result="hardAlpha"/>
<feOffset dy="1.84636"/>
<feGaussianBlur stdDeviation="3.69272"/>
<feComposite in2="hardAlpha" operator="arithmetic" k2="-1" k3="1"/>
<feColorMatrix type="matrix" values="0 0 0 0 1 0 0 0 0 1 0 0 0 0 1 0 0 0 0.5 0"/>
<feBlend mode="normal" in2="shape" result="effect2_innerShadow_218_9768"/>
</filter>
<linearGradient id="paint0_linear_218_9768" x1="-16" y1="0" x2="-16" y2="46.1538" gradientUnits="userSpaceOnUse">
<stop stop-color="#0183FC" stop-opacity="0.05"/>
<stop offset="1" stop-color="#37BCFF" stop-opacity="0.05"/>
</linearGradient>
<linearGradient id="paint1_linear_218_9768" x1="-11.2375" y1="5.49515" x2="-11.2375" y2="46.1538" gradientUnits="userSpaceOnUse">
<stop stop-color="#29E7A4"/>
<stop offset="1" stop-color="#29E7A4"/>
</linearGradient>
<linearGradient id="paint2_linear_218_9768" x1="-0.875834" y1="9.19555" x2="-0.875834" y2="27.7587" gradientUnits="userSpaceOnUse">
<stop stop-color="#29E7A4"/>
<stop offset="1" stop-color="#B1FFE4"/>
</linearGradient>
<linearGradient id="paint3_linear_218_9768" x1="-0.875834" y1="9.19555" x2="-0.875834" y2="27.7587" gradientUnits="userSpaceOnUse">
<stop stop-color="#29E7A4"/>
<stop offset="1" stop-color="#B1FFE4"/>
</linearGradient>
</defs>
</svg>
