<svg width="56" height="58" viewBox="0 0 56 58" fill="none" xmlns="http://www.w3.org/2000/svg">
<g id="&#230;&#161;&#165;&#230;&#162;&#129;">
<g id="Ellipse 9">
<g filter="url(#filter0_ii_218_9744)">
<path d="M48 20.0066C48 27.7252 43.6304 34.4229 37.2308 37.7595C34.9677 38.9393 31.248 40.7324 29.1322 45.5758C28.7955 46.3465 27.2045 46.3465 26.8678 45.5758C24.752 40.7324 21.0323 38.9393 18.7692 37.7595C12.3696 34.4229 8 27.7252 8 20.0066C8 8.95725 16.9543 0 28 0C39.0457 0 48 8.95725 48 20.0066Z" fill="url(#paint0_linear_218_9744)" fill-opacity="0.3"/>
</g>
<path d="M46.8462 20.0066C46.8462 27.2786 42.7306 33.5908 36.6973 36.7363C36.6115 36.7811 36.523 36.827 36.4321 36.8741C34.1499 38.0576 30.3462 40.0301 28.1314 44.9859C28.1281 44.9866 28.1247 44.9874 28.1211 44.9881C28.0861 44.9954 28.0446 45 28 45C27.9554 45 27.9139 44.9954 27.8789 44.9881C27.8753 44.9874 27.8719 44.9866 27.8686 44.9859C25.6538 40.0301 21.8501 38.0576 19.5679 36.8741C19.477 36.827 19.3885 36.7811 19.3027 36.7363C13.2694 33.5908 9.15385 27.2786 9.15385 20.0066C9.15385 9.59415 17.5919 1.15385 28 1.15385C38.4081 1.15385 46.8462 9.59415 46.8462 20.0066Z" stroke="url(#paint1_linear_218_9744)" stroke-width="2.30769"/>
</g>
<g id="&#232;&#129;&#148;&#233;&#155;&#134; 17" filter="url(#filter1_di_218_9744)">
<path fill-rule="evenodd" clip-rule="evenodd" d="M39.4145 8.87651C39.4145 8.22578 38.8942 7.69238 38.2594 7.69238H17.1551C16.5203 7.69238 16 8.22578 16 8.87651V30.5082C16 31.159 16.5203 31.6924 17.1551 31.6924H38.2568C38.8916 31.6924 39.4119 31.159 39.4119 30.5082V25.2517C39.4119 24.8916 39.1284 24.6009 38.7772 24.6009H37.4477C37.0965 24.6009 36.8129 24.8916 36.8129 25.2517V28.3747C36.8129 28.7347 36.5294 29.0254 36.1781 29.0254H19.2364C18.8852 29.0254 18.6016 28.7347 18.6016 28.3747V11.0101C18.6016 10.65 18.8852 10.3593 19.2364 10.3593H36.1755C36.5268 10.3593 36.8103 10.65 36.8103 11.0101V14.1331C36.8103 14.4931 37.0939 14.7838 37.4451 14.7838H38.7746C39.1258 14.7838 39.4093 14.4931 39.4093 14.1331V8.87651H39.4145ZM31.4719 15.7926C31.4745 13.7284 29.8407 12.0535 27.827 12.0562C25.8472 12.0589 24.19 13.7577 24.1874 15.7873C24.1848 17.8515 25.8186 19.5264 27.8322 19.5237C29.8121 19.521 31.4693 17.8222 31.4719 15.7926ZM37.6117 16.8194C37.8172 16.6114 38.145 16.614 38.348 16.8221L39.8491 18.3742C40.052 18.5849 40.0494 18.921 39.8465 19.129L38.002 21.0092C37.7964 21.2172 37.4686 21.2146 37.2657 21.0065L35.762 19.4544C35.559 19.2437 35.5616 18.9076 35.7646 18.6996L37.6117 16.8194ZM22.2882 23.5775V26.6178C22.2882 26.9112 22.5223 27.1512 22.8085 27.1512H32.8507C33.1369 27.1512 33.3711 26.9112 33.3711 26.6178V23.6308H34.789C35.0751 23.6308 35.3093 23.3908 35.3093 23.0974V21.4706C35.3093 20.8678 34.8306 20.3771 34.2426 20.3771H30.4703C30.4573 20.3771 30.4436 20.3778 30.4299 20.3785C30.4163 20.3791 30.4026 20.3798 30.3896 20.3798C30.3428 20.3771 30.296 20.3771 30.2491 20.3771H25.4101C23.6931 20.3771 22.2882 21.8173 22.2882 23.5775Z" fill="url(#paint2_linear_218_9744)"/>
</g>
</g>
<defs>
<filter id="filter0_ii_218_9744" x="8" y="0" width="40" height="47.0192" filterUnits="userSpaceOnUse" color-interpolation-filters="sRGB">
<feFlood flood-opacity="0" result="BackgroundImageFix"/>
<feBlend mode="normal" in="SourceGraphic" in2="BackgroundImageFix" result="shape"/>
<feColorMatrix in="SourceAlpha" type="matrix" values="0 0 0 0 0 0 0 0 0 0 0 0 0 0 0 0 0 0 127 0" result="hardAlpha"/>
<feOffset dy="0.865385"/>
<feGaussianBlur stdDeviation="5.38462"/>
<feComposite in2="hardAlpha" operator="arithmetic" k2="-1" k3="1"/>
<feColorMatrix type="matrix" values="0 0 0 0 0.160784 0 0 0 0 0.905882 0 0 0 0 0.643137 0 0 0 0.6 0"/>
<feBlend mode="normal" in2="shape" result="effect1_innerShadow_218_9744"/>
<feColorMatrix in="SourceAlpha" type="matrix" values="0 0 0 0 0 0 0 0 0 0 0 0 0 0 0 0 0 0 127 0" result="hardAlpha"/>
<feOffset dy="0.865385"/>
<feGaussianBlur stdDeviation="3.46154"/>
<feComposite in2="hardAlpha" operator="arithmetic" k2="-1" k3="1"/>
<feColorMatrix type="matrix" values="0 0 0 0 0.160784 0 0 0 0 0.905882 0 0 0 0 0.643137 0 0 0 0.5 0"/>
<feBlend mode="normal" in2="effect1_innerShadow_218_9744" result="effect2_innerShadow_218_9744"/>
</filter>
<filter id="filter1_di_218_9744" x="0.492832" y="2.52333" width="55.0143" height="55.0143" filterUnits="userSpaceOnUse" color-interpolation-filters="sRGB">
<feFlood flood-opacity="0" result="BackgroundImageFix"/>
<feColorMatrix in="SourceAlpha" type="matrix" values="0 0 0 0 0 0 0 0 0 0 0 0 0 0 0 0 0 0 127 0" result="hardAlpha"/>
<feOffset dy="10.3381"/>
<feGaussianBlur stdDeviation="7.75358"/>
<feColorMatrix type="matrix" values="0 0 0 0 0.0941176 0 0 0 0 1 0 0 0 0 0.984314 0 0 0 0.32 0"/>
<feBlend mode="normal" in2="BackgroundImageFix" result="effect1_dropShadow_218_9744"/>
<feBlend mode="normal" in="SourceGraphic" in2="effect1_dropShadow_218_9744" result="shape"/>
<feColorMatrix in="SourceAlpha" type="matrix" values="0 0 0 0 0 0 0 0 0 0 0 0 0 0 0 0 0 0 127 0" result="hardAlpha"/>
<feOffset dy="2.58453"/>
<feGaussianBlur stdDeviation="5.16906"/>
<feComposite in2="hardAlpha" operator="arithmetic" k2="-1" k3="1"/>
<feColorMatrix type="matrix" values="0 0 0 0 1 0 0 0 0 1 0 0 0 0 1 0 0 0 0.5 0"/>
<feBlend mode="normal" in2="shape" result="effect2_innerShadow_218_9744"/>
</filter>
<linearGradient id="paint0_linear_218_9744" x1="-12" y1="0" x2="-12" y2="46.1538" gradientUnits="userSpaceOnUse">
<stop stop-color="#0183FC" stop-opacity="0.05"/>
<stop offset="1" stop-color="#37BCFF" stop-opacity="0.05"/>
</linearGradient>
<linearGradient id="paint1_linear_218_9744" x1="-7.23754" y1="5.49515" x2="-7.23754" y2="46.1538" gradientUnits="userSpaceOnUse">
<stop stop-color="#29E7A4"/>
<stop offset="1" stop-color="#29E7A4"/>
</linearGradient>
<linearGradient id="paint2_linear_218_9744" x1="3.05776" y1="5.17075" x2="3.05776" y2="30.113" gradientUnits="userSpaceOnUse">
<stop stop-color="#29E7A4"/>
<stop offset="1" stop-color="#B1FFE4"/>
</linearGradient>
</defs>
</svg>
