<svg width="40" height="47" viewBox="0 0 40 47" fill="none" xmlns="http://www.w3.org/2000/svg">
<g id="&#230;&#161;&#165;&#230;&#162;&#129;">
<g id="Ellipse 9">
<g filter="url(#filter0_ii_218_9760)">
<path d="M40 20.0066C40 27.7252 35.6304 34.4229 29.2308 37.7595C26.9677 38.9393 23.248 40.7324 21.1322 45.5758C20.7955 46.3465 19.2045 46.3465 18.8678 45.5758C16.752 40.7324 13.0323 38.9393 10.7692 37.7595C4.36957 34.4229 0 27.7252 0 20.0066C0 8.95725 8.9543 0 20 0C31.0457 0 40 8.95725 40 20.0066Z" fill="url(#paint0_linear_218_9760)" fill-opacity="0.3"/>
</g>
<path d="M38.8462 20.0066C38.8462 27.2786 34.7306 33.5908 28.6973 36.7363C28.6115 36.7811 28.523 36.827 28.4321 36.8741C26.1499 38.0576 22.3462 40.0301 20.1314 44.9859C20.1281 44.9866 20.1247 44.9874 20.1211 44.9881C20.0861 44.9954 20.0446 45 20 45C19.9554 45 19.9139 44.9954 19.8789 44.9881C19.8753 44.9874 19.8719 44.9866 19.8686 44.9859C17.6538 40.0301 13.8501 38.0576 11.5679 36.8741C11.477 36.827 11.3885 36.7811 11.3027 36.7363C5.26937 33.5908 1.15385 27.2786 1.15385 20.0066C1.15385 9.59415 9.59191 1.15385 20 1.15385C30.4081 1.15385 38.8462 9.59415 38.8462 20.0066Z" stroke="url(#paint1_linear_218_9760)" stroke-width="2.30769"/>
</g>
<path id="Vector" d="M12.4705 11.3258H8.43514C8.0338 11.3258 7.64889 11.4847 7.3651 11.7675C7.08131 12.0503 6.92188 12.434 6.92188 12.834V29.8115C6.92188 30.2115 7.08131 30.5951 7.3651 30.878C7.64889 31.1608 8.0338 31.3197 8.43514 31.3197C8.83648 31.3197 9.22138 31.1608 9.50518 30.878C9.78897 30.5951 9.9484 30.2115 9.9484 29.8115V22.3207H12.4705C13.2089 22.3429 13.9442 22.2172 14.633 21.9509C15.3217 21.6847 15.9498 21.2833 16.48 20.7706C17.0102 20.2579 17.4317 19.6444 17.7195 18.9663C18.0074 18.2882 18.1557 17.5595 18.1557 16.8232C18.1557 16.087 18.0074 15.3582 17.7195 14.6801C17.4317 14.0021 17.0102 13.3885 16.48 12.8758C15.9498 12.3631 15.3217 11.9617 14.633 11.6955C13.9442 11.4292 13.2089 11.3035 12.4705 11.3258ZM12.4705 19.3394H9.9484V14.312H12.4705C13.1394 14.312 13.7809 14.5769 14.2539 15.0483C14.7269 15.5197 14.9926 16.1591 14.9926 16.8257C14.9926 17.4924 14.7269 18.1318 14.2539 18.6032C13.7809 19.0746 13.1394 19.3394 12.4705 19.3394ZM32.9349 29.0423L27.9915 20.8778L29.4544 18.6507H29.8074C30.21 18.6668 30.6082 18.5623 30.9508 18.3509C31.2933 18.1394 31.5644 17.8306 31.7293 17.4642L32.9752 14.6891C33.0876 14.4375 33.1456 14.1651 33.1456 13.8897C33.1456 13.6143 33.0876 13.342 32.9752 13.0904L31.3207 15.9359C31.2975 15.9739 31.265 16.0054 31.2261 16.0274C31.1873 16.0494 31.1434 16.0612 31.0988 16.0616C31.0543 16.0619 31.0105 16.0497 30.9727 16.0264C30.944 16.0107 30.9188 15.9894 30.8986 15.9638C30.8783 15.9382 30.8635 15.9088 30.8551 15.8773C30.8466 15.8458 30.8446 15.8129 30.8492 15.7807C30.8538 15.7484 30.8649 15.7174 30.8819 15.6895L32.6726 12.6077L32.5969 12.5072L32.1833 12.0748C32.1074 11.9976 32.0265 11.9254 31.9411 11.8587L30.0042 15.1918C29.9819 15.2292 29.9501 15.2601 29.912 15.2813C29.8739 15.3025 29.8309 15.3132 29.7873 15.3125C29.7493 15.322 29.7099 15.3237 29.6713 15.3175C29.6424 15.3014 29.6171 15.2796 29.5968 15.2535C29.5766 15.2275 29.5618 15.1976 29.5533 15.1657C29.5448 15.1338 29.5429 15.1006 29.5475 15.0679C29.5522 15.0353 29.5634 15.0039 29.5805 14.9756L31.5174 11.6425C31.4159 11.5998 31.3114 11.5645 31.2047 11.5369L30.6549 11.4062C30.6062 11.4014 30.5572 11.4014 30.5086 11.4062L28.7078 14.5031C28.6846 14.5411 28.6521 14.5726 28.6132 14.5946C28.5744 14.6166 28.5305 14.6284 28.4859 14.6288C28.4414 14.6291 28.3976 14.6169 28.3598 14.5936C28.3309 14.5774 28.3056 14.5557 28.2853 14.5296C28.2651 14.5035 28.2503 14.4737 28.2418 14.4418C28.2333 14.4099 28.2314 14.3766 28.236 14.344C28.2407 14.3113 28.2519 14.28 28.269 14.2517L29.9336 11.3911C29.6585 11.4228 29.393 11.5106 29.1535 11.649C28.914 11.7874 28.7056 11.9734 28.5414 12.1955L26.7305 14.669C26.4966 14.9934 26.3649 15.38 26.3523 15.7794C26.3397 16.1787 26.4468 16.5727 26.6599 16.9112L26.8314 17.1877L26.2664 18.0474L22.3521 11.7983C22.2612 11.6534 22.1348 11.534 21.9848 11.4513C21.8347 11.3686 21.666 11.3254 21.4946 11.3258H20.0368C19.7693 11.3258 19.5127 11.4317 19.3235 11.6203C19.1343 11.8088 19.028 12.0646 19.028 12.3312V14.0607C19.0268 14.2368 19.072 14.4102 19.1591 14.5634L22.5892 20.5108C22.7177 20.7333 22.9266 20.8983 23.1733 20.9722C23.42 21.046 23.6856 21.023 23.9158 20.908L24.3446 20.6968L24.4202 20.8175L18.9574 29.1177C18.8104 29.3478 18.7289 29.6134 18.7214 29.8861C18.7139 30.1587 18.7807 30.4283 18.9147 30.6662C19.0488 30.904 19.2451 31.1011 19.4826 31.2365C19.7202 31.372 19.9902 31.4407 20.2638 31.4353C20.5079 31.4292 20.7469 31.3642 20.9603 31.246C21.1738 31.1278 21.3553 30.9599 21.4896 30.7566L26.1504 23.668L30.3421 30.5857C30.4769 30.8083 30.667 30.9923 30.8942 31.12C31.1213 31.2478 31.3777 31.3148 31.6385 31.3147C31.9044 31.3132 32.1653 31.242 32.3948 31.1081C32.6242 30.9742 32.8143 30.7824 32.9457 30.552C33.0772 30.3216 33.1454 30.0607 33.1434 29.7957C33.1415 29.5306 33.0696 29.2708 32.9349 29.0423Z" fill="url(#paint2_linear_218_9760)"/>
</g>
<defs>
<filter id="filter0_ii_218_9760" x="0" y="0" width="40" height="47.0192" filterUnits="userSpaceOnUse" color-interpolation-filters="sRGB">
<feFlood flood-opacity="0" result="BackgroundImageFix"/>
<feBlend mode="normal" in="SourceGraphic" in2="BackgroundImageFix" result="shape"/>
<feColorMatrix in="SourceAlpha" type="matrix" values="0 0 0 0 0 0 0 0 0 0 0 0 0 0 0 0 0 0 127 0" result="hardAlpha"/>
<feOffset dy="0.865385"/>
<feGaussianBlur stdDeviation="5.38462"/>
<feComposite in2="hardAlpha" operator="arithmetic" k2="-1" k3="1"/>
<feColorMatrix type="matrix" values="0 0 0 0 0.996078 0 0 0 0 0.929412 0 0 0 0 0.47451 0 0 0 0.6 0"/>
<feBlend mode="normal" in2="shape" result="effect1_innerShadow_218_9760"/>
<feColorMatrix in="SourceAlpha" type="matrix" values="0 0 0 0 0 0 0 0 0 0 0 0 0 0 0 0 0 0 127 0" result="hardAlpha"/>
<feOffset dy="0.865385"/>
<feGaussianBlur stdDeviation="3.46154"/>
<feComposite in2="hardAlpha" operator="arithmetic" k2="-1" k3="1"/>
<feColorMatrix type="matrix" values="0 0 0 0 0.996078 0 0 0 0 0.929412 0 0 0 0 0.47451 0 0 0 0.5 0"/>
<feBlend mode="normal" in2="effect1_innerShadow_218_9760" result="effect2_innerShadow_218_9760"/>
</filter>
<linearGradient id="paint0_linear_218_9760" x1="-20" y1="0" x2="-20" y2="46.1538" gradientUnits="userSpaceOnUse">
<stop stop-color="#0183FC" stop-opacity="0.05"/>
<stop offset="1" stop-color="#37BCFF" stop-opacity="0.05"/>
</linearGradient>
<linearGradient id="paint1_linear_218_9760" x1="-15.2375" y1="5.49515" x2="-15.2375" y2="46.1538" gradientUnits="userSpaceOnUse">
<stop stop-color="#FEED79"/>
<stop offset="1" stop-color="#FEED79"/>
</linearGradient>
<linearGradient id="paint2_linear_218_9760" x1="-0.362507" y1="33.0454" x2="0.545611" y2="12.7215" gradientUnits="userSpaceOnUse">
<stop stop-color="white"/>
<stop offset="1" stop-color="#FFEC6B"/>
</linearGradient>
</defs>
</svg>
