<svg width="40" height="47" viewBox="0 0 40 47" fill="none" xmlns="http://www.w3.org/2000/svg">
<g id="&#230;&#161;&#165;&#230;&#162;&#129;">
<g id="Ellipse 9">
<g filter="url(#filter0_ii_218_9796)">
<path d="M40 20.0066C40 27.7252 35.6304 34.4229 29.2308 37.7595C26.9677 38.9393 23.248 40.7324 21.1322 45.5758C20.7955 46.3465 19.2045 46.3465 18.8678 45.5758C16.752 40.7324 13.0323 38.9393 10.7692 37.7595C4.36957 34.4229 0 27.7252 0 20.0066C0 8.95725 8.9543 0 20 0C31.0457 0 40 8.95725 40 20.0066Z" fill="url(#paint0_linear_218_9796)" fill-opacity="0.3"/>
</g>
<path d="M38.8462 20.0066C38.8462 27.2786 34.7306 33.5908 28.6973 36.7363C28.6115 36.7811 28.523 36.827 28.4321 36.8741C26.1499 38.0576 22.3462 40.0301 20.1314 44.9859C20.1281 44.9866 20.1247 44.9874 20.1211 44.9881C20.0861 44.9954 20.0446 45 20 45C19.9554 45 19.9139 44.9954 19.8789 44.9881C19.8753 44.9874 19.8719 44.9866 19.8686 44.9859C17.6538 40.0301 13.8501 38.0576 11.5679 36.8741C11.477 36.827 11.3885 36.7811 11.3027 36.7363C5.26937 33.5908 1.15385 27.2786 1.15385 20.0066C1.15385 9.59415 9.59191 1.15385 20 1.15385C30.4081 1.15385 38.8462 9.59415 38.8462 20.0066Z" stroke="url(#paint1_linear_218_9796)" stroke-width="2.30769"/>
</g>
<path id="Vector" d="M17.4909 10.8137C18.0909 10.541 18.5818 10.1591 18.9091 9.61368C19.0182 9.3955 19.1818 9.28641 19.4545 9.28641H20.3818C20.4909 9.28641 20.6 9.23186 20.7091 9.17732C20.9818 8.95914 21.2545 8.7955 21.5273 8.57732C21.6364 8.46823 21.7455 8.46823 21.8545 8.57732C22.2364 8.90459 22.6182 9.17732 23 9.50459C23.1091 9.61368 23.2182 9.61368 23.3273 9.50459L24.4182 8.41368C24.5273 8.30459 24.5818 8.30459 24.6909 8.41368C25.1818 8.74095 25.6727 9.06823 26.1091 9.45004C26.2182 9.50459 26.2727 9.50459 26.3273 9.45004C26.8182 8.90459 27.2545 8.41368 27.7455 7.86823C27.8545 7.75914 27.8 7.70459 27.7455 7.65004C27.4727 7.43186 27.2 7.21368 26.8727 6.9955C26.7091 6.88641 26.6 6.83186 26.4364 6.83186H19.2909C19.1818 6.83186 19.1273 6.77732 19.0727 6.66823C18.9636 6.34095 18.8 6.06823 18.5818 5.7955C17.9818 5.03186 17.1091 4.70459 16.1818 4.70459C14.4364 4.70459 13.0182 6.12277 13.0182 7.86823C12.9636 10.1591 15.3636 11.741 17.4909 10.8137ZM14.7091 7.43186C14.9818 7.43186 15.2545 7.65004 15.2545 7.92277C15.2545 8.1955 14.9818 8.46823 14.7091 8.46823C14.4364 8.46823 14.1636 8.25004 14.1636 7.97732C14.1636 7.70459 14.3818 7.48641 14.7091 7.43186ZM32 27.1773V23.5228V23.1955C32 22.9773 31.9455 22.8137 31.8909 22.5955C31.6727 21.8864 31.2364 21.2319 30.6909 20.6864C30.6364 20.6319 30.5818 20.5228 30.5273 20.4682L29.5455 17.5228C29.3273 16.9773 29.1636 16.3773 28.8364 15.8319C28.4 15.1228 27.8 14.741 26.9818 14.741H13.2909C13.0182 14.741 12.6909 14.7955 12.4182 14.85C11.4909 15.1228 10.9455 15.8319 10.6727 16.7591C10.2909 17.9046 9.96364 19.1046 9.63636 20.25C9.58182 20.4137 9.52727 20.4682 9.41818 20.5773C8.49091 21.2864 8 22.1591 8 23.3046V27.1773C8 27.6137 8.27273 27.8864 8.70909 27.8864H9.03636C9.2 27.8864 9.25455 27.941 9.25455 28.1046V30.5591C9.25455 30.941 9.58182 31.2137 9.90909 31.2137H12.0364C12.1455 31.2137 12.2 31.2137 12.3091 31.1591C12.5273 31.05 12.6364 30.8864 12.6364 30.5591V28.1046C12.6364 27.9955 12.6364 27.8864 12.6909 27.8864C12.7455 27.8319 12.8 27.8319 12.9091 27.8319H26.9273C27.0909 27.8319 27.1455 27.8864 27.1455 28.05V30.3955C27.1455 30.941 27.3636 31.1591 27.9091 31.1591H29.7636C29.9818 31.1591 30.2 31.1046 30.3636 30.9955C30.5273 30.8864 30.6364 30.7773 30.6364 30.5591V27.9955C30.6364 27.941 30.6364 27.8864 30.6909 27.8319C30.7455 27.8319 30.7455 27.7773 30.8545 27.7773H31.2909C31.4 27.7773 31.5091 27.7773 31.6182 27.7228C31.7818 27.7773 32 27.5046 32 27.1773ZM28.9455 21.7228C30.0364 21.7228 30.9091 22.5955 30.9091 23.6864C30.9091 24.7228 30.0364 25.5955 28.9455 25.5955C27.9091 25.5955 27.0364 24.7228 27.0364 23.6319C26.9818 22.5955 27.8545 21.7228 28.9455 21.7228ZM11.7091 19.3228L12.5273 17.0319C12.5818 16.8682 12.6909 16.7591 12.9091 16.7046C13.0727 16.65 13.2909 16.5955 13.4545 16.5955C17.9273 16.5955 22.3455 16.541 26.8182 16.541C27.0364 16.541 27.2545 16.65 27.3091 16.8682C27.4727 17.3591 27.6364 17.85 27.8545 18.341C28.0727 18.941 28.2364 19.4864 28.4545 20.0864V20.1955H11.4364C11.5455 19.8682 11.6 19.5955 11.7091 19.3228ZM11.3818 21.7228C12.4727 21.7228 13.2909 22.5955 13.2909 23.6864C13.2909 24.7773 12.4182 25.65 11.3273 25.5955C10.2909 25.5955 9.41818 24.7228 9.41818 23.6319C9.47273 22.5955 10.3455 21.7228 11.3818 21.7228Z" fill="url(#paint2_linear_218_9796)"/>
</g>
<defs>
<filter id="filter0_ii_218_9796" x="0" y="0" width="40" height="47.0192" filterUnits="userSpaceOnUse" color-interpolation-filters="sRGB">
<feFlood flood-opacity="0" result="BackgroundImageFix"/>
<feBlend mode="normal" in="SourceGraphic" in2="BackgroundImageFix" result="shape"/>
<feColorMatrix in="SourceAlpha" type="matrix" values="0 0 0 0 0 0 0 0 0 0 0 0 0 0 0 0 0 0 127 0" result="hardAlpha"/>
<feOffset dy="0.865385"/>
<feGaussianBlur stdDeviation="5.38462"/>
<feComposite in2="hardAlpha" operator="arithmetic" k2="-1" k3="1"/>
<feColorMatrix type="matrix" values="0 0 0 0 1 0 0 0 0 0.596078 0 0 0 0 0.239216 0 0 0 0.6 0"/>
<feBlend mode="normal" in2="shape" result="effect1_innerShadow_218_9796"/>
<feColorMatrix in="SourceAlpha" type="matrix" values="0 0 0 0 0 0 0 0 0 0 0 0 0 0 0 0 0 0 127 0" result="hardAlpha"/>
<feOffset dy="0.865385"/>
<feGaussianBlur stdDeviation="3.46154"/>
<feComposite in2="hardAlpha" operator="arithmetic" k2="-1" k3="1"/>
<feColorMatrix type="matrix" values="0 0 0 0 1 0 0 0 0 0.596078 0 0 0 0 0.239216 0 0 0 0.5 0"/>
<feBlend mode="normal" in2="effect1_innerShadow_218_9796" result="effect2_innerShadow_218_9796"/>
</filter>
<linearGradient id="paint0_linear_218_9796" x1="-20" y1="0" x2="-20" y2="46.1538" gradientUnits="userSpaceOnUse">
<stop stop-color="#0183FC" stop-opacity="0.05"/>
<stop offset="1" stop-color="#37BCFF" stop-opacity="0.05"/>
</linearGradient>
<linearGradient id="paint1_linear_218_9796" x1="-15.2375" y1="5.49515" x2="-15.2375" y2="46.1538" gradientUnits="userSpaceOnUse">
<stop stop-color="#FF983D"/>
<stop offset="1" stop-color="#FF983D"/>
</linearGradient>
<linearGradient id="paint2_linear_218_9796" x1="-18.9675" y1="-1.71551" x2="-13.4041" y2="36.1248" gradientUnits="userSpaceOnUse">
<stop stop-color="white"/>
<stop offset="1" stop-color="#FFAD64"/>
</linearGradient>
</defs>
</svg>
