<svg width="40" height="47" viewBox="0 0 40 47" fill="none" xmlns="http://www.w3.org/2000/svg">
<g id="&#230;&#161;&#165;&#230;&#162;&#129;">
<g id="Ellipse 9">
<g filter="url(#filter0_ii_218_9788)">
<path d="M40 20.0066C40 27.7252 35.6304 34.4229 29.2308 37.7595C26.9677 38.9393 23.248 40.7324 21.1322 45.5758C20.7955 46.3465 19.2045 46.3465 18.8678 45.5758C16.752 40.7324 13.0323 38.9393 10.7692 37.7595C4.36957 34.4229 0 27.7252 0 20.0066C0 8.95725 8.9543 0 20 0C31.0457 0 40 8.95725 40 20.0066Z" fill="url(#paint0_linear_218_9788)" fill-opacity="0.3"/>
</g>
<path d="M38.8462 20.0066C38.8462 27.2786 34.7306 33.5908 28.6973 36.7363C28.6115 36.7811 28.523 36.827 28.4321 36.8741C26.1499 38.0576 22.3462 40.0301 20.1314 44.9859C20.1281 44.9866 20.1247 44.9874 20.1211 44.9881C20.0861 44.9954 20.0446 45 20 45C19.9554 45 19.9139 44.9954 19.8789 44.9881C19.8753 44.9874 19.8719 44.9866 19.8686 44.9859C17.6538 40.0301 13.8501 38.0576 11.5679 36.8741C11.477 36.827 11.3885 36.7811 11.3027 36.7363C5.26937 33.5908 1.15385 27.2786 1.15385 20.0066C1.15385 9.59415 9.59191 1.15385 20 1.15385C30.4081 1.15385 38.8462 9.59415 38.8462 20.0066Z" stroke="url(#paint1_linear_218_9788)" stroke-width="2.30769"/>
</g>
<path id="Vector" d="M29.2685 9.32617C31.3927 9.96819 32.9102 11.8931 32.9102 14.1643C32.9102 15.9911 31.8983 17.6202 30.3309 18.5086L30.2848 28.9735C30.2835 29.2703 30.1647 29.5545 29.9543 29.7639C29.744 29.9733 29.4592 30.0908 29.1624 30.0908H26.7515C26.6036 30.0909 26.4572 30.0617 26.3207 30.005C26.1841 29.9484 26.0602 29.8652 25.9559 29.7605C25.8515 29.6557 25.769 29.5313 25.7129 29.3945C25.6568 29.2577 25.6283 29.1112 25.6291 28.9634L25.6751 18.5086C24.1576 17.6696 23.0958 16.0404 23.0958 14.1649C23.0958 11.8931 24.6632 9.96819 26.7369 9.32617V13.868H29.2679L29.2685 9.32617ZM22.2265 12.442C22.0615 12.992 21.9739 13.57 21.9739 14.1649L21.9762 14.345C21.9795 14.4449 21.9846 14.5443 21.993 14.643H14.1591C14.1591 14.643 13.1899 16.8441 12.7488 17.898C12.7583 18.1719 12.8712 18.4323 13.0665 18.6265C13.2483 18.8083 13.4885 18.9189 13.7433 18.9408L13.8398 18.9441L19.9429 18.9817L24.3226 18.9559L24.3821 19.0019L24.5493 19.1243L24.5117 27.6064L21.117 27.6271L21.1254 27.6417L19.9429 27.6344L18.761 27.6417L18.7689 27.6271L12.7808 27.5912V28.6912C12.7808 29.3511 12.1635 29.7799 11.1269 29.7799C10.1212 29.7799 9.52187 29.4561 9.47529 28.7776L9.47249 28.6912V23.2789C9.47249 22.1896 10.1347 21.1446 10.564 20.0553C10.8048 19.4346 10.2599 19.1984 9.73232 18.9958L9.56733 18.9323C9.21489 18.796 8.91016 18.6574 8.91016 18.4048C8.91016 17.7706 9.0224 17.3497 9.89395 17.3183L10.0023 17.3161H11.6561C11.6561 17.3161 11.9839 16.3996 12.2987 15.4725L12.384 15.22L12.5019 14.8664C12.5873 14.6097 12.6693 14.3519 12.7477 14.0931C13.0451 13.0851 14.2461 12.4863 15.3102 12.4448L15.428 12.4426H22.2259L22.2265 12.442ZM13.2881 22.0796C12.8495 22.0789 12.4286 22.2526 12.118 22.5622C11.9645 22.7153 11.8427 22.8973 11.7597 23.0976C11.6766 23.2979 11.634 23.5127 11.6343 23.7295C11.6337 24.1673 11.8077 24.5876 12.118 24.8968C12.4286 25.2065 12.8495 25.3801 13.2881 25.3795C13.7267 25.3801 14.1476 25.2065 14.4582 24.8968C14.7686 24.5876 14.9426 24.1673 14.942 23.7295C14.9422 23.5127 14.8996 23.2979 14.8166 23.0976C14.7336 22.8973 14.6118 22.7153 14.4582 22.5622C14.1476 22.2526 13.7267 22.0789 13.2881 22.0796ZM22.2646 22.652L20.2673 22.6896L20.265 22.7025L19.9429 22.6958L19.6213 22.7025L19.6185 22.6896L17.6223 22.6515C17.5668 22.6515 17.5062 22.6818 17.4444 22.7188L17.3198 22.7957L17.2581 22.8277C17.1515 22.8759 17.0965 23.0252 17.0841 23.1723L17.0819 23.2346V23.7733C17.0819 23.8839 17.1369 24.0158 17.2581 24.137C17.3064 24.2425 17.4556 24.298 17.5741 24.3104L17.6223 24.3126L19.9429 24.3587L22.2646 24.3126C22.3858 24.3126 22.5733 24.2576 22.6283 24.137C22.7495 24.0158 22.8051 23.8839 22.8051 23.7739V23.2351C22.8051 23.0696 22.7495 22.8827 22.6283 22.8277L22.5666 22.7957L22.4425 22.7188C22.3802 22.6818 22.3196 22.6515 22.2646 22.6515V22.652Z" fill="url(#paint2_linear_218_9788)"/>
</g>
<defs>
<filter id="filter0_ii_218_9788" x="0" y="0" width="40" height="47.0192" filterUnits="userSpaceOnUse" color-interpolation-filters="sRGB">
<feFlood flood-opacity="0" result="BackgroundImageFix"/>
<feBlend mode="normal" in="SourceGraphic" in2="BackgroundImageFix" result="shape"/>
<feColorMatrix in="SourceAlpha" type="matrix" values="0 0 0 0 0 0 0 0 0 0 0 0 0 0 0 0 0 0 127 0" result="hardAlpha"/>
<feOffset dy="0.865385"/>
<feGaussianBlur stdDeviation="5.38462"/>
<feComposite in2="hardAlpha" operator="arithmetic" k2="-1" k3="1"/>
<feColorMatrix type="matrix" values="0 0 0 0 1 0 0 0 0 0.596078 0 0 0 0 0.239216 0 0 0 0.6 0"/>
<feBlend mode="normal" in2="shape" result="effect1_innerShadow_218_9788"/>
<feColorMatrix in="SourceAlpha" type="matrix" values="0 0 0 0 0 0 0 0 0 0 0 0 0 0 0 0 0 0 127 0" result="hardAlpha"/>
<feOffset dy="0.865385"/>
<feGaussianBlur stdDeviation="3.46154"/>
<feComposite in2="hardAlpha" operator="arithmetic" k2="-1" k3="1"/>
<feColorMatrix type="matrix" values="0 0 0 0 1 0 0 0 0 0.596078 0 0 0 0 0.239216 0 0 0 0.5 0"/>
<feBlend mode="normal" in2="effect1_innerShadow_218_9788" result="effect2_innerShadow_218_9788"/>
</filter>
<linearGradient id="paint0_linear_218_9788" x1="-20" y1="0" x2="-20" y2="46.1538" gradientUnits="userSpaceOnUse">
<stop stop-color="#0183FC" stop-opacity="0.05"/>
<stop offset="1" stop-color="#37BCFF" stop-opacity="0.05"/>
</linearGradient>
<linearGradient id="paint1_linear_218_9788" x1="-15.2375" y1="5.49515" x2="-15.2375" y2="46.1538" gradientUnits="userSpaceOnUse">
<stop stop-color="#FF983D"/>
<stop offset="1" stop-color="#FF983D"/>
</linearGradient>
<linearGradient id="paint2_linear_218_9788" x1="-18.0573" y1="4.29729" x2="-14.6157" y2="34.1821" gradientUnits="userSpaceOnUse">
<stop stop-color="white"/>
<stop offset="1" stop-color="#FFAD64"/>
</linearGradient>
</defs>
</svg>
