<svg width="40" height="47" viewBox="0 0 40 47" fill="none" xmlns="http://www.w3.org/2000/svg">
<g id="&#230;&#161;&#165;&#230;&#162;&#129;">
<g id="Ellipse 9">
<g filter="url(#filter0_ii_218_9748)">
<path d="M40 20.0066C40 27.7252 35.6304 34.4229 29.2308 37.7595C26.9677 38.9393 23.248 40.7324 21.1322 45.5758C20.7955 46.3465 19.2045 46.3465 18.8678 45.5758C16.752 40.7324 13.0323 38.9393 10.7692 37.7595C4.36957 34.4229 0 27.7252 0 20.0066C0 8.95725 8.9543 0 20 0C31.0457 0 40 8.95725 40 20.0066Z" fill="url(#paint0_linear_218_9748)" fill-opacity="0.3"/>
</g>
<path d="M38.8462 20.0066C38.8462 27.2786 34.7306 33.5908 28.6973 36.7363C28.6115 36.7811 28.523 36.827 28.4321 36.8741C26.1499 38.0576 22.3462 40.0301 20.1314 44.9859C20.1281 44.9866 20.1247 44.9874 20.1211 44.9881C20.0861 44.9954 20.0446 45 20 45C19.9554 45 19.9139 44.9954 19.8789 44.9881C19.8753 44.9874 19.8719 44.9866 19.8686 44.9859C17.6538 40.0301 13.8501 38.0576 11.5679 36.8741C11.477 36.827 11.3885 36.7811 11.3027 36.7363C5.26937 33.5908 1.15385 27.2786 1.15385 20.0066C1.15385 9.59415 9.59191 1.15385 20 1.15385C30.4081 1.15385 38.8462 9.59415 38.8462 20.0066Z" stroke="url(#paint1_linear_218_9748)" stroke-width="2.30769"/>
</g>
<path id="&#232;&#129;&#148;&#233;&#155;&#134; 16" fill-rule="evenodd" clip-rule="evenodd" d="M31.3034 17.1002H21.7709C21.2229 17.1002 20.7798 16.6571 20.7798 16.1091V8.52972C20.7798 7.98168 21.2229 7.53857 21.7709 7.53857H31.3034C31.8515 7.53857 32.2946 7.98168 32.2946 8.52972V16.1091C32.2946 16.6571 31.8515 17.1002 31.3034 17.1002ZM10.1249 23.9071H11.4426C11.7253 23.9071 11.9731 23.703 12.0198 23.4232C12.2705 21.9015 13.591 20.7442 15.1827 20.7442C16.7744 20.7442 18.0949 21.9044 18.3456 23.4232C18.3923 23.703 18.6371 23.9071 18.9228 23.9071H23.4238C23.7066 23.9071 23.9544 23.703 24.001 23.4232C24.2517 21.9015 25.5723 20.7442 27.1639 20.7442C28.7556 20.7442 30.0762 21.9044 30.3269 23.4232C30.3735 23.703 30.6184 23.9071 30.9041 23.9071H31.7261C32.0468 23.9071 32.3092 23.6447 32.3092 23.3241V18.8931C32.3092 18.5724 32.0468 18.31 31.7261 18.31H20.153C19.8324 18.31 19.57 18.0477 19.57 17.727V12.5963C19.57 12.2757 19.3076 12.0133 18.987 12.0133H13.6989C13.5036 12.0133 13.3228 12.1095 13.215 12.2699L9.64102 17.5783C9.57688 17.6745 9.5419 17.7882 9.5419 17.9048V23.3241C9.5419 23.6447 9.80426 23.9071 10.1249 23.9071ZM14.2528 14.7215L13.2325 16.354C12.9905 16.7417 13.2704 17.246 13.728 17.246H16.8735C17.1942 17.246 17.4565 16.9836 17.4565 16.663V15.0305C17.4565 14.7098 17.1942 14.4475 16.8735 14.4475H14.7483C14.5472 14.4475 14.3606 14.5524 14.2528 14.7215ZM8.9443 27.5365H31.7699C32.0905 27.5365 32.3529 27.7988 32.3529 28.1195V29.3147C32.3529 29.6354 32.0905 29.8977 31.7699 29.8977H6.58303C6.26236 29.8977 6 29.6354 6 29.3147V17.5375C6 17.2169 6.26236 16.9545 6.58303 16.9545H7.77824C8.0989 16.9545 8.36127 17.2169 8.36127 17.5375V26.9534C8.36127 27.2741 8.62363 27.5365 8.9443 27.5365ZM16.7685 22.313C14.381 20.5988 11.7428 23.2371 13.4569 25.6246C13.4948 25.677 13.5414 25.7237 13.5968 25.7645C15.9843 27.4786 18.6225 24.8404 16.9084 22.4529C16.8676 22.4004 16.821 22.3538 16.7685 22.313ZM25.4382 25.6246C23.724 23.2371 26.3623 20.5988 28.7498 22.313C28.8022 22.3538 28.8489 22.4004 28.8897 22.4529C30.6038 24.8404 27.9656 27.4786 25.5781 25.7645C25.5227 25.7237 25.476 25.677 25.4382 25.6246Z" fill="url(#paint2_linear_218_9748)"/>
</g>
<defs>
<filter id="filter0_ii_218_9748" x="0" y="0" width="40" height="47.0192" filterUnits="userSpaceOnUse" color-interpolation-filters="sRGB">
<feFlood flood-opacity="0" result="BackgroundImageFix"/>
<feBlend mode="normal" in="SourceGraphic" in2="BackgroundImageFix" result="shape"/>
<feColorMatrix in="SourceAlpha" type="matrix" values="0 0 0 0 0 0 0 0 0 0 0 0 0 0 0 0 0 0 127 0" result="hardAlpha"/>
<feOffset dy="0.865385"/>
<feGaussianBlur stdDeviation="5.38462"/>
<feComposite in2="hardAlpha" operator="arithmetic" k2="-1" k3="1"/>
<feColorMatrix type="matrix" values="0 0 0 0 1 0 0 0 0 0.596078 0 0 0 0 0.239216 0 0 0 0.6 0"/>
<feBlend mode="normal" in2="shape" result="effect1_innerShadow_218_9748"/>
<feColorMatrix in="SourceAlpha" type="matrix" values="0 0 0 0 0 0 0 0 0 0 0 0 0 0 0 0 0 0 127 0" result="hardAlpha"/>
<feOffset dy="0.865385"/>
<feGaussianBlur stdDeviation="3.46154"/>
<feComposite in2="hardAlpha" operator="arithmetic" k2="-1" k3="1"/>
<feColorMatrix type="matrix" values="0 0 0 0 1 0 0 0 0 0.596078 0 0 0 0 0.239216 0 0 0 0.5 0"/>
<feBlend mode="normal" in2="effect1_innerShadow_218_9748" result="effect2_innerShadow_218_9748"/>
</filter>
<linearGradient id="paint0_linear_218_9748" x1="-20" y1="0" x2="-20" y2="46.1538" gradientUnits="userSpaceOnUse">
<stop stop-color="#0183FC" stop-opacity="0.05"/>
<stop offset="1" stop-color="#37BCFF" stop-opacity="0.05"/>
</linearGradient>
<linearGradient id="paint1_linear_218_9748" x1="-15.2375" y1="5.49515" x2="-15.2375" y2="46.1538" gradientUnits="userSpaceOnUse">
<stop stop-color="#FF983D"/>
<stop offset="1" stop-color="#FF983D"/>
</linearGradient>
<linearGradient id="paint2_linear_218_9748" x1="-23.6113" y1="2.12352" x2="-19.9753" y2="34.3193" gradientUnits="userSpaceOnUse">
<stop stop-color="white"/>
<stop offset="1" stop-color="#FFAD64"/>
</linearGradient>
</defs>
</svg>
