<svg width="47" height="53" viewBox="0 0 47 53" fill="none" xmlns="http://www.w3.org/2000/svg">
<g id="&#230;&#161;&#165;&#230;&#162;&#129;">
<g id="Ellipse 9">
<g filter="url(#filter0_ii_218_9780)">
<path d="M44 20.0066C44 27.7252 39.6304 34.4229 33.2308 37.7595C30.9677 38.9393 27.248 40.7324 25.1322 45.5758C24.7955 46.3465 23.2045 46.3465 22.8678 45.5758C20.752 40.7324 17.0323 38.9393 14.7692 37.7595C8.36957 34.4229 4 27.7252 4 20.0066C4 8.95725 12.9543 0 24 0C35.0457 0 44 8.95725 44 20.0066Z" fill="url(#paint0_linear_218_9780)" fill-opacity="0.3"/>
</g>
<path d="M42.8462 20.0066C42.8462 27.2786 38.7306 33.5908 32.6973 36.7363C32.6115 36.7811 32.523 36.827 32.4321 36.8741C30.1499 38.0576 26.3462 40.0301 24.1314 44.9859C24.1281 44.9866 24.1247 44.9874 24.1211 44.9881C24.0861 44.9954 24.0446 45 24 45C23.9554 45 23.9139 44.9954 23.8789 44.9881C23.8753 44.9874 23.8719 44.9866 23.8686 44.9859C21.6538 40.0301 17.8501 38.0576 15.5679 36.8741C15.477 36.827 15.3885 36.7811 15.3027 36.7363C9.26937 33.5908 5.15385 27.2786 5.15385 20.0066C5.15385 9.59415 13.5919 1.15385 24 1.15385C34.4081 1.15385 42.8462 9.59415 42.8462 20.0066Z" stroke="url(#paint1_linear_218_9780)" stroke-width="2.30769"/>
</g>
<g id="Vector" filter="url(#filter1_di_218_9780)">
<path d="M35.6237 18.1622L34.9794 18.8062L33.2629 20.5229L34.2812 21.5413C32.7909 25.3161 29.3323 28.0956 25.1692 28.6168C25.1405 28.6205 25.1118 28.6232 25.0831 28.6269V20.7256H30.6382V18.0592H25.0831V16.6214C26.3867 16.0937 27.3077 14.8175 27.3077 13.3244C27.3077 11.3597 25.7148 9.7666 23.7499 9.7666C21.785 9.7666 20.1921 11.3597 20.1921 13.3244C20.1921 14.8173 21.1129 16.0935 22.4167 16.6214V18.0592H16.862V20.7256H22.4167V28.6269C22.3882 28.6232 22.3595 28.6205 22.331 28.6168C18.025 28.0778 14.4722 25.1233 13.0719 21.1506L13.968 20.2543L12.5204 18.8064L11.8766 18.1624C11.7945 18.7285 11.75 19.3069 11.75 19.8957C11.75 20.5236 11.7988 21.1399 11.8917 21.7419C11.9098 21.8604 11.933 21.9773 11.9547 22.0949C11.9639 22.1437 11.9711 22.1931 11.9812 22.2419C12.9314 27.0359 16.7367 30.7993 21.551 31.6911C21.6227 31.7045 21.6943 31.7176 21.7665 31.7297C21.8127 31.7375 21.8578 31.7473 21.9044 31.7545L21.9681 31.8183L23.7499 33.5999L25.5321 31.8179L25.5958 31.7543C25.642 31.7471 25.6875 31.7373 25.7337 31.7295C25.8055 31.7174 25.8772 31.7045 25.9488 31.6909C30.615 30.8264 34.3313 27.2644 35.4214 22.6815C35.4676 22.4876 35.5088 22.2922 35.5453 22.0947C35.5673 21.9773 35.5902 21.8602 35.6087 21.7417C35.7029 21.1308 35.7501 20.5136 35.75 19.8955C35.7493 19.3155 35.707 18.7362 35.6237 18.1622ZM23.7499 11.8177C23.9478 11.8176 24.1437 11.8566 24.3265 11.9323C24.5094 12.008 24.6755 12.119 24.8154 12.2589C24.9554 12.3988 25.0664 12.5649 25.1421 12.7477C25.2178 12.9305 25.2568 13.1265 25.2568 13.3244C25.2568 13.5222 25.2178 13.7182 25.1421 13.901C25.0664 14.0838 24.9554 14.2499 24.8154 14.3898C24.6755 14.5297 24.5094 14.6407 24.3265 14.7164C24.1437 14.7921 23.9478 14.8311 23.7499 14.8311C23.3503 14.831 22.9671 14.6722 22.6846 14.3897C22.4021 14.1071 22.2434 13.7239 22.2434 13.3244C22.2434 12.9248 22.4021 12.5416 22.6846 12.259C22.9671 11.9765 23.3503 11.8177 23.7499 11.8177Z" fill="url(#paint2_linear_218_9780)"/>
</g>
</g>
<defs>
<filter id="filter0_ii_218_9780" x="4" y="0" width="40" height="47.0192" filterUnits="userSpaceOnUse" color-interpolation-filters="sRGB">
<feFlood flood-opacity="0" result="BackgroundImageFix"/>
<feBlend mode="normal" in="SourceGraphic" in2="BackgroundImageFix" result="shape"/>
<feColorMatrix in="SourceAlpha" type="matrix" values="0 0 0 0 0 0 0 0 0 0 0 0 0 0 0 0 0 0 127 0" result="hardAlpha"/>
<feOffset dy="0.865385"/>
<feGaussianBlur stdDeviation="5.38462"/>
<feComposite in2="hardAlpha" operator="arithmetic" k2="-1" k3="1"/>
<feColorMatrix type="matrix" values="0 0 0 0 0.160784 0 0 0 0 0.905882 0 0 0 0 0.643137 0 0 0 0.6 0"/>
<feBlend mode="normal" in2="shape" result="effect1_innerShadow_218_9780"/>
<feColorMatrix in="SourceAlpha" type="matrix" values="0 0 0 0 0 0 0 0 0 0 0 0 0 0 0 0 0 0 127 0" result="hardAlpha"/>
<feOffset dy="0.865385"/>
<feGaussianBlur stdDeviation="3.46154"/>
<feComposite in2="hardAlpha" operator="arithmetic" k2="-1" k3="1"/>
<feColorMatrix type="matrix" values="0 0 0 0 0.160784 0 0 0 0 0.905882 0 0 0 0 0.643137 0 0 0 0.5 0"/>
<feBlend mode="normal" in2="effect1_innerShadow_218_9780" result="effect2_innerShadow_218_9780"/>
</filter>
<filter id="filter1_di_218_9780" x="0.671846" y="6.07388" width="46.1563" height="45.9893" filterUnits="userSpaceOnUse" color-interpolation-filters="sRGB">
<feFlood flood-opacity="0" result="BackgroundImageFix"/>
<feColorMatrix in="SourceAlpha" type="matrix" values="0 0 0 0 0 0 0 0 0 0 0 0 0 0 0 0 0 0 127 0" result="hardAlpha"/>
<feOffset dy="7.38544"/>
<feGaussianBlur stdDeviation="5.53908"/>
<feColorMatrix type="matrix" values="0 0 0 0 0.0941176 0 0 0 0 1 0 0 0 0 0.984314 0 0 0 0.32 0"/>
<feBlend mode="normal" in2="BackgroundImageFix" result="effect1_dropShadow_218_9780"/>
<feBlend mode="normal" in="SourceGraphic" in2="effect1_dropShadow_218_9780" result="shape"/>
<feColorMatrix in="SourceAlpha" type="matrix" values="0 0 0 0 0 0 0 0 0 0 0 0 0 0 0 0 0 0 127 0" result="hardAlpha"/>
<feOffset dy="1.84636"/>
<feGaussianBlur stdDeviation="3.69272"/>
<feComposite in2="hardAlpha" operator="arithmetic" k2="-1" k3="1"/>
<feColorMatrix type="matrix" values="0 0 0 0 1 0 0 0 0 1 0 0 0 0 1 0 0 0 0.5 0"/>
<feBlend mode="normal" in2="shape" result="effect2_innerShadow_218_9780"/>
</filter>
<linearGradient id="paint0_linear_218_9780" x1="-16" y1="0" x2="-16" y2="46.1538" gradientUnits="userSpaceOnUse">
<stop stop-color="#0183FC" stop-opacity="0.05"/>
<stop offset="1" stop-color="#37BCFF" stop-opacity="0.05"/>
</linearGradient>
<linearGradient id="paint1_linear_218_9780" x1="-11.2375" y1="5.49515" x2="-11.2375" y2="46.1538" gradientUnits="userSpaceOnUse">
<stop stop-color="#29E7A4"/>
<stop offset="1" stop-color="#29E7A4"/>
</linearGradient>
<linearGradient id="paint2_linear_218_9780" x1="-1.19224" y1="7.26249" x2="-1.19224" y2="32.0314" gradientUnits="userSpaceOnUse">
<stop stop-color="#29E7A4"/>
<stop offset="1" stop-color="#B1FFE4"/>
</linearGradient>
</defs>
</svg>
