<svg width="55" height="56" viewBox="0 0 55 56" fill="none" xmlns="http://www.w3.org/2000/svg">
<g id="&#230;&#161;&#165;&#230;&#162;&#129;">
<g id="Ellipse 9">
<g filter="url(#filter0_ii_218_9784)">
<path d="M48 20.0066C48 27.7252 43.6304 34.4229 37.2308 37.7595C34.9677 38.9393 31.248 40.7324 29.1322 45.5758C28.7955 46.3465 27.2045 46.3465 26.8678 45.5758C24.752 40.7324 21.0323 38.9393 18.7692 37.7595C12.3696 34.4229 8 27.7252 8 20.0066C8 8.95725 16.9543 0 28 0C39.0457 0 48 8.95725 48 20.0066Z" fill="url(#paint0_linear_218_9784)" fill-opacity="0.3"/>
</g>
<path d="M46.8462 20.0066C46.8462 27.2786 42.7306 33.5908 36.6973 36.7363C36.6115 36.7811 36.523 36.827 36.4321 36.8741C34.1499 38.0576 30.3462 40.0301 28.1314 44.9859C28.1281 44.9866 28.1247 44.9874 28.1211 44.9881C28.0861 44.9954 28.0446 45 28 45C27.9554 45 27.9139 44.9954 27.8789 44.9881C27.8753 44.9874 27.8719 44.9866 27.8686 44.9859C25.6538 40.0301 21.8501 38.0576 19.5679 36.8741C19.477 36.827 19.3885 36.7811 19.3027 36.7363C13.2694 33.5908 9.15385 27.2786 9.15385 20.0066C9.15385 9.59415 17.5919 1.15385 28 1.15385C38.4081 1.15385 46.8462 9.59415 46.8462 20.0066Z" stroke="url(#paint1_linear_218_9784)" stroke-width="2.30769"/>
</g>
<g id="Vector" filter="url(#filter1_di_218_9784)">
<path d="M28.2557 6H30.2829V22.2163H28.2557V6ZM28.6311 7.65088C28.5562 7.87608 28.4809 8.10128 28.331 8.47675C28.2557 8.85306 28.0309 9.52865 27.8053 10.6563C27.5801 11.7074 27.3549 12.7585 27.28 13.8095C27.205 14.8606 27.1297 16.0619 27.28 17.4131C27.3549 18.7643 27.5801 20.0405 27.9572 21.1669H27.7303C27.655 21.1669 27.4298 21.0916 27.0531 21.0916C26.6776 21.0167 26.3758 21.0167 26.0769 20.9417C25.7768 20.9417 25.326 20.8664 24.8756 20.8664C24.3503 20.8664 23.8999 20.7915 23.4495 20.7915H21.9493C21.424 20.7915 20.8982 20.8664 20.4478 20.9417C19.9974 21.0171 19.5471 21.1669 19.0217 21.3172C18.5709 21.4671 18.1205 21.6173 17.8204 21.8425C17.9079 21.6462 17.9831 21.4446 18.0456 21.2389C18.1205 21.0137 18.4211 20.4884 18.7229 19.7374L19.8493 17.4851C20.2243 16.7345 20.8229 15.9087 21.4257 14.9325C22.1013 13.9567 22.777 13.0559 23.4529 12.2302C24.1302 11.4043 24.9543 10.5793 25.8551 9.75258C26.7542 8.85306 27.655 8.17705 28.6311 7.65088ZM16.771 22.5164C16.846 22.5164 17.1465 22.6667 17.8221 22.8919C18.4229 23.1177 18.8733 23.2678 19.1733 23.3423L20.5998 23.7178C21.2771 23.868 21.8761 24.0179 22.4018 24.0179C22.9276 24.0179 23.5278 24.0932 24.2034 24.0932C24.9099 24.0885 25.6141 24.0131 26.3055 23.868C26.9828 23.7178 27.6567 23.4926 28.3327 23.2674C29.609 22.7416 30.8099 22.4415 31.9363 22.2163C33.0623 22.066 34.0384 21.9911 34.7889 22.066C35.5394 22.141 36.2155 22.2912 36.8161 22.4415C37.4168 22.5918 37.7897 22.817 38.0924 22.9668C38.395 23.1167 38.4678 23.192 38.4678 23.2674V25.2941L37.4917 24.7688C35.1635 23.868 32.0861 24.0179 28.2574 25.2941C27.1153 25.6706 25.9294 25.8983 24.7291 25.9714C23.5278 26.0464 22.4767 26.0464 21.5759 25.8961C20.6752 25.7458 19.8493 25.596 19.0984 25.3708C18.3474 25.1456 17.7446 24.994 17.37 24.8438L16.771 24.5436V22.5164ZM16.0938 26.5725L16.3939 26.6479C17.2947 26.9478 18.0455 27.1736 18.6463 27.3252C19.535 27.558 20.4378 27.7335 21.3491 27.8505C22.475 28.0761 23.6772 28.0761 24.8773 28.0007C26.0773 27.9254 27.2055 27.6253 28.2557 27.1749C29.1569 26.7994 30.0577 26.4976 30.9585 26.349C31.8592 26.1238 32.6851 26.0489 33.3611 25.974C34.0384 25.974 34.7123 25.974 35.313 26.0489C35.9136 26.1238 36.439 26.1992 36.8893 26.349C37.3397 26.4989 37.7152 26.5742 38.0158 26.7245C38.3163 26.8748 38.616 26.9497 38.7663 27.025L38.9915 27.1749V29.2732C38.9167 29.1984 38.7666 29.1233 38.5411 29.048C38.3159 28.9731 37.9404 28.8228 37.2648 28.5976C36.5892 28.3724 35.8383 28.2975 35.0878 28.2221C34.3373 28.1468 33.2858 28.2221 32.0844 28.3724C30.8082 28.5227 29.5319 28.8228 28.1807 29.2732C27.0147 29.6568 25.803 29.8846 24.5772 29.9505C23.4512 30.0258 22.3248 30.0258 21.3491 29.8756C20.3733 29.7253 19.4721 29.5737 18.6463 29.3485C17.8204 29.1233 17.2197 28.9731 16.771 28.7479L16.0938 28.5227V26.5725Z" fill="url(#paint2_linear_218_9784)"/>
</g>
</g>
<defs>
<filter id="filter0_ii_218_9784" x="8" y="0" width="40" height="47.0192" filterUnits="userSpaceOnUse" color-interpolation-filters="sRGB">
<feFlood flood-opacity="0" result="BackgroundImageFix"/>
<feBlend mode="normal" in="SourceGraphic" in2="BackgroundImageFix" result="shape"/>
<feColorMatrix in="SourceAlpha" type="matrix" values="0 0 0 0 0 0 0 0 0 0 0 0 0 0 0 0 0 0 127 0" result="hardAlpha"/>
<feOffset dy="0.865385"/>
<feGaussianBlur stdDeviation="5.38462"/>
<feComposite in2="hardAlpha" operator="arithmetic" k2="-1" k3="1"/>
<feColorMatrix type="matrix" values="0 0 0 0 0.160784 0 0 0 0 0.905882 0 0 0 0 0.643137 0 0 0 0.6 0"/>
<feBlend mode="normal" in2="shape" result="effect1_innerShadow_218_9784"/>
<feColorMatrix in="SourceAlpha" type="matrix" values="0 0 0 0 0 0 0 0 0 0 0 0 0 0 0 0 0 0 127 0" result="hardAlpha"/>
<feOffset dy="0.865385"/>
<feGaussianBlur stdDeviation="3.46154"/>
<feComposite in2="hardAlpha" operator="arithmetic" k2="-1" k3="1"/>
<feColorMatrix type="matrix" values="0 0 0 0 0.160784 0 0 0 0 0.905882 0 0 0 0 0.643137 0 0 0 0.5 0"/>
<feBlend mode="normal" in2="effect1_innerShadow_218_9784" result="effect2_innerShadow_218_9784"/>
</filter>
<filter id="filter1_di_218_9784" x="0.586582" y="0.830943" width="53.9128" height="55.0143" filterUnits="userSpaceOnUse" color-interpolation-filters="sRGB">
<feFlood flood-opacity="0" result="BackgroundImageFix"/>
<feColorMatrix in="SourceAlpha" type="matrix" values="0 0 0 0 0 0 0 0 0 0 0 0 0 0 0 0 0 0 127 0" result="hardAlpha"/>
<feOffset dy="10.3381"/>
<feGaussianBlur stdDeviation="7.75358"/>
<feColorMatrix type="matrix" values="0 0 0 0 0.0941176 0 0 0 0 1 0 0 0 0 0.984314 0 0 0 0.32 0"/>
<feBlend mode="normal" in2="BackgroundImageFix" result="effect1_dropShadow_218_9784"/>
<feBlend mode="normal" in="SourceGraphic" in2="effect1_dropShadow_218_9784" result="shape"/>
<feColorMatrix in="SourceAlpha" type="matrix" values="0 0 0 0 0 0 0 0 0 0 0 0 0 0 0 0 0 0 127 0" result="hardAlpha"/>
<feOffset dy="2.58453"/>
<feGaussianBlur stdDeviation="5.16906"/>
<feComposite in2="hardAlpha" operator="arithmetic" k2="-1" k3="1"/>
<feColorMatrix type="matrix" values="0 0 0 0 1 0 0 0 0 1 0 0 0 0 1 0 0 0 0.5 0"/>
<feBlend mode="normal" in2="shape" result="effect2_innerShadow_218_9784"/>
</filter>
<linearGradient id="paint0_linear_218_9784" x1="-12" y1="0" x2="-12" y2="46.1538" gradientUnits="userSpaceOnUse">
<stop stop-color="#0183FC" stop-opacity="0.05"/>
<stop offset="1" stop-color="#37BCFF" stop-opacity="0.05"/>
</linearGradient>
<linearGradient id="paint1_linear_218_9784" x1="-7.23754" y1="5.49515" x2="-7.23754" y2="46.1538" gradientUnits="userSpaceOnUse">
<stop stop-color="#29E7A4"/>
<stop offset="1" stop-color="#29E7A4"/>
</linearGradient>
<linearGradient id="paint2_linear_218_9784" x1="3.74593" y1="3.47837" x2="3.74593" y2="28.4206" gradientUnits="userSpaceOnUse">
<stop stop-color="#29E7A4"/>
<stop offset="1" stop-color="#B1FFE4"/>
</linearGradient>
</defs>
</svg>
