<svg width="40" height="41" viewBox="0 0 40 41" fill="none" xmlns="http://www.w3.org/2000/svg">
<g id="&#232;&#167;&#134;&#233;&#162;&#145;&#231;&#155;&#145;&#230;&#142;&#167;">
<g id="Vector">
<path d="M15.1911 25.9975L12.1404 24.3925C12.0616 24.3442 11.9734 24.313 11.8816 24.3011C11.7899 24.2891 11.6967 24.2967 11.6081 24.3233C11.5194 24.3499 11.4374 24.3949 11.3674 24.4553C11.2974 24.5158 11.2409 24.5903 11.2017 24.6741C11.2018 24.6864 11.1995 24.6986 11.1948 24.71C11.1901 24.7214 11.1831 24.7317 11.1743 24.7403C11.1567 24.7577 11.1329 24.7676 11.1081 24.7677L10.3479 27.1521C10.2994 27.2908 10.2094 27.4112 10.0901 27.4968C9.97082 27.5825 9.82799 27.6293 9.68112 27.6308H6.86542C6.76524 27.6321 6.66582 27.6132 6.57303 27.5755C6.48023 27.5377 6.39593 27.4817 6.32508 27.4109C6.25424 27.34 6.19828 27.2557 6.16051 27.1629C6.12274 27.0701 6.10391 26.9707 6.10513 26.8705V22.9459C6.29269 22.8519 6.01112 22.5612 5.62642 22.4672L3.14841 21.9885C2.95959 21.9549 2.76513 21.9959 2.60584 22.1027C2.44656 22.2095 2.33483 22.3738 2.29412 22.5612V38.5838L6.19914 37.1568V32.0054C6.19779 31.9052 6.21653 31.8058 6.25426 31.7129C6.29199 31.6201 6.34794 31.5357 6.41881 31.4648C6.48968 31.394 6.57404 31.338 6.66689 31.3003C6.75974 31.2626 6.85921 31.2438 6.95943 31.2452H12.2075C12.3187 31.249 12.4292 31.2254 12.5291 31.1763C12.629 31.1273 12.7152 31.0544 12.7802 30.964L15.5398 27.153C15.6051 27.0751 15.6525 26.9838 15.6787 26.8855C15.7048 26.7873 15.7091 26.6845 15.6912 26.5844C15.6734 26.4843 15.6337 26.3894 15.5752 26.3063C15.5166 26.2232 15.4405 26.1539 15.3522 26.1034C15.3386 26.1246 15.317 26.1395 15.2924 26.1448C15.2677 26.1501 15.242 26.1454 15.2208 26.1317C15.1996 26.118 15.1847 26.0965 15.1794 26.0719C15.1741 26.0472 15.1788 26.0215 15.1925 26.0003L15.1911 25.9975ZM33.6543 29.7145C33.5151 29.5836 33.3361 29.5032 33.1458 29.4862C32.9555 29.4691 32.7649 29.5164 32.6047 29.6205L30.3426 31.3383C30.2192 31.4305 30.0694 31.4803 29.9154 31.4803C29.7614 31.4803 29.6116 31.4305 29.4883 31.3383L6.02071 15.8961C5.84955 15.8072 5.65375 15.7774 5.46388 15.8114C5.274 15.8454 5.10073 15.9413 4.97109 16.0842L3.92148 17.5107C3.8562 17.5887 3.80882 17.68 3.78269 17.7783C3.75656 17.8766 3.75231 17.9794 3.77023 18.0795C3.78816 18.1795 3.82784 18.2745 3.88646 18.3576C3.94508 18.4407 4.02121 18.5099 4.10949 18.5603L29.5809 34.5765C29.7292 34.6549 29.8973 34.6878 30.0641 34.6711C30.231 34.6545 30.3893 34.589 30.5192 34.483L33.7593 30.8595C33.8966 30.7194 33.9736 30.531 33.9736 30.3347C33.9736 30.1385 33.8966 29.9501 33.7593 29.8099L33.6543 29.7145Z" fill="url(#paint0_linear_212_9547)"/>
<path d="M39.3987 21.9989L11.3786 3.4134L9.66221 2.47468C9.50884 2.39004 9.33046 2.3624 9.15865 2.39664C8.98685 2.43088 8.8327 2.52481 8.72349 2.66179L2.34092 11.5233C2.23289 11.6893 2.19215 11.8902 2.22699 12.0852C2.26184 12.2802 2.36964 12.4546 2.52849 12.5729L3.36407 13.1264L28.82 28.7652C29.8425 28.9683 30.9038 28.7629 31.7767 28.193L39.286 23.237C39.3788 23.1909 39.4597 23.124 39.5225 23.0417C39.5853 22.9593 39.6284 22.8636 39.6483 22.7619C39.6713 22.6622 39.6709 22.5585 39.6472 22.459C39.6234 22.3595 39.577 22.2668 39.5114 22.1883M29.6834 24.6362C29.1344 24.6359 28.6025 24.4454 28.1783 24.097C27.7541 23.7486 27.4638 23.2639 27.3568 22.7255C27.2498 22.1871 27.3328 21.6282 27.5917 21.1441C27.8505 20.6601 28.2692 20.2807 28.7764 20.0706C29.2835 19.8606 29.8479 19.8329 30.3732 19.9922C30.8985 20.1516 31.3523 20.4881 31.6573 20.9445C31.9624 21.4009 32.0997 21.949 32.046 22.4953C31.9923 23.0416 31.7508 23.5524 31.3628 23.9407C31.1423 24.1613 30.8805 24.3362 30.5923 24.4556C30.3041 24.5749 29.9953 24.6363 29.6834 24.6362Z" fill="url(#paint1_linear_212_9547)"/>
</g>
</g>
<defs>
<linearGradient id="paint0_linear_212_9547" x1="20.9401" y1="2.38232" x2="20.9401" y2="38.5838" gradientUnits="userSpaceOnUse">
<stop stop-color="#F8FCFE"/>
<stop offset="1" stop-color="#2ED1FF"/>
</linearGradient>
<linearGradient id="paint1_linear_212_9547" x1="20.9401" y1="2.38232" x2="20.9401" y2="38.5838" gradientUnits="userSpaceOnUse">
<stop stop-color="#F8FCFE"/>
<stop offset="1" stop-color="#2ED1FF"/>
</linearGradient>
</defs>
</svg>
