<svg width="40" height="41" viewBox="0 0 40 41" fill="none" xmlns="http://www.w3.org/2000/svg">
<g id="&#232;&#181;&#132;&#228;&#186;&#167;">
<g id="Vector">
<path d="M14.5312 35.3125C7.5625 35.3125 1.75 32.5625 0.34375 28.9375C0.125 29.5 0 30.0625 0 30.6875C0 35.1875 6.5 38.8125 14.5312 38.8125C22.5625 38.8125 29.0625 35.1875 29.0625 30.6875C29.0625 30.0938 28.9375 29.5 28.7188 28.9375C27.3125 32.5937 21.5 35.3125 14.5312 35.3125Z" fill="url(#paint0_linear_212_9533)"/>
<path d="M14.5312 30.375C7.5625 30.375 1.75 27.625 0.34375 24C0.125 24.5625 0 25.125 0 25.75C0 30.25 6.5 33.875 14.5312 33.875C22.5625 33.875 29.0625 30.2188 29.0625 25.75C29.0625 25.1562 28.9375 24.5625 28.7188 24C27.3125 27.625 21.5 30.375 14.5312 30.375Z" fill="url(#paint1_linear_212_9533)"/>
<path d="M14.5312 25.4375C7.59375 25.4375 1.78125 22.6875 0.34375 19.0312C0.125 19.5938 0 20.1875 0 20.7813C0 25.2813 6.5 28.9062 14.5312 28.9062C22.5625 28.9062 29.0625 25.2813 29.0625 20.7813C29.0625 20.1875 28.9375 19.5938 28.7188 19.0312C27.3125 22.6875 21.5 25.4375 14.5312 25.4375Z" fill="url(#paint2_linear_212_9533)"/>
<path d="M0.3125 15.3438C0.3125 17.4986 1.84347 19.5653 4.5686 21.089C7.29374 22.6127 10.9898 23.4688 14.8438 23.4688C18.6977 23.4688 22.3938 22.6127 25.1189 21.089C27.844 19.5653 29.375 17.4986 29.375 15.3438C29.375 13.1889 27.844 11.1222 25.1189 9.59851C22.3938 8.07477 18.6977 7.21875 14.8438 7.21875C10.9898 7.21875 7.29374 8.07477 4.5686 9.59851C1.84347 11.1222 0.3125 13.1889 0.3125 15.3438Z" fill="url(#paint3_linear_212_9533)"/>
<path d="M34.6562 33.625C32.1562 33.625 30.0625 32.625 29.5312 31.3125C29.4375 31.5312 29.4062 31.7188 29.4062 31.9375C29.4062 33.5625 31.75 34.875 34.6562 34.875C37.5625 34.875 39.9062 33.5625 39.9062 31.9375C39.9062 31.7188 39.875 31.5 39.7812 31.3125C39.25 32.625 37.1562 33.625 34.6562 33.625Z" fill="url(#paint4_linear_212_9533)"/>
<path d="M34.6562 31.8438C32.1562 31.8438 30.0625 30.8438 29.5312 29.5312C29.4375 29.75 29.4062 29.9375 29.4062 30.1562C29.4062 31.7812 31.75 33.0938 34.6562 33.0938C37.5625 33.0938 39.9062 31.7812 39.9062 30.1562C39.9062 29.9375 39.875 29.7188 39.7812 29.5312C39.25 30.8438 37.1562 31.8438 34.6562 31.8438Z" fill="url(#paint5_linear_212_9533)"/>
<path d="M34.6562 30.0625C32.1562 30.0625 30.0625 29.0625 29.5312 27.75C29.4375 27.9688 29.4062 28.1562 29.4062 28.375C29.4062 30 31.75 31.3125 34.6562 31.3125C37.5625 31.3125 39.9062 30 39.9062 28.375C39.9062 28.1562 39.875 27.9375 39.7812 27.75C39.25 29.0625 37.1562 30.0625 34.6562 30.0625Z" fill="url(#paint6_linear_212_9533)"/>
<path d="M29.5 26.4062C29.5 26.792 29.6358 27.174 29.8996 27.5304C30.1635 27.8868 30.5502 28.2106 31.0377 28.4834C31.5252 28.7561 32.104 28.9725 32.7409 29.1201C33.3779 29.2678 34.0606 29.3437 34.75 29.3438C35.4394 29.3437 36.1221 29.2678 36.7591 29.1201C37.396 28.9725 37.9748 28.7561 38.4623 28.4834C38.9498 28.2106 39.3365 27.8868 39.6004 27.5304C39.8642 27.174 40 26.792 40 26.4062C40 26.0205 39.8642 25.6385 39.6004 25.2821C39.3365 24.9257 38.9498 24.6019 38.4623 24.3291C37.9748 24.0564 37.396 23.84 36.7591 23.6924C36.1221 23.5447 35.4394 23.4688 34.75 23.4688C34.0606 23.4688 33.3779 23.5447 32.7409 23.6924C32.104 23.84 31.5252 24.0564 31.0377 24.3291C30.5502 24.6019 30.1635 24.9257 29.8996 25.2821C29.6358 25.6385 29.5 26.0205 29.5 26.4062Z" fill="url(#paint7_linear_212_9533)"/>
</g>
</g>
<defs>
<linearGradient id="paint0_linear_212_9533" x1="20" y1="7.21875" x2="20" y2="38.8125" gradientUnits="userSpaceOnUse">
<stop stop-color="#F8FCFE"/>
<stop offset="1" stop-color="#2ED1FF"/>
</linearGradient>
<linearGradient id="paint1_linear_212_9533" x1="20" y1="7.21875" x2="20" y2="38.8125" gradientUnits="userSpaceOnUse">
<stop stop-color="#F8FCFE"/>
<stop offset="1" stop-color="#2ED1FF"/>
</linearGradient>
<linearGradient id="paint2_linear_212_9533" x1="20" y1="7.21875" x2="20" y2="38.8125" gradientUnits="userSpaceOnUse">
<stop stop-color="#F8FCFE"/>
<stop offset="1" stop-color="#2ED1FF"/>
</linearGradient>
<linearGradient id="paint3_linear_212_9533" x1="20" y1="7.21875" x2="20" y2="38.8125" gradientUnits="userSpaceOnUse">
<stop stop-color="#F8FCFE"/>
<stop offset="1" stop-color="#2ED1FF"/>
</linearGradient>
<linearGradient id="paint4_linear_212_9533" x1="20" y1="7.21875" x2="20" y2="38.8125" gradientUnits="userSpaceOnUse">
<stop stop-color="#F8FCFE"/>
<stop offset="1" stop-color="#2ED1FF"/>
</linearGradient>
<linearGradient id="paint5_linear_212_9533" x1="20" y1="7.21875" x2="20" y2="38.8125" gradientUnits="userSpaceOnUse">
<stop stop-color="#F8FCFE"/>
<stop offset="1" stop-color="#2ED1FF"/>
</linearGradient>
<linearGradient id="paint6_linear_212_9533" x1="20" y1="7.21875" x2="20" y2="38.8125" gradientUnits="userSpaceOnUse">
<stop stop-color="#F8FCFE"/>
<stop offset="1" stop-color="#2ED1FF"/>
</linearGradient>
<linearGradient id="paint7_linear_212_9533" x1="20" y1="7.21875" x2="20" y2="38.8125" gradientUnits="userSpaceOnUse">
<stop stop-color="#F8FCFE"/>
<stop offset="1" stop-color="#2ED1FF"/>
</linearGradient>
</defs>
</svg>
