<svg width="55" height="60" viewBox="0 0 55 60" fill="none" xmlns="http://www.w3.org/2000/svg">
<g id="&#230;&#161;&#165;&#230;&#162;&#129;">
<g id="Ellipse 9">
<g filter="url(#filter0_ii_218_9740)">
<path d="M48 22.0066C48 29.7252 43.6304 36.4229 37.2308 39.7595C34.9677 40.9393 31.248 42.7324 29.1322 47.5758C28.7955 48.3465 27.2045 48.3465 26.8678 47.5758C24.752 42.7324 21.0323 40.9393 18.7692 39.7595C12.3696 36.4229 8 29.7252 8 22.0066C8 10.9573 16.9543 2 28 2C39.0457 2 48 10.9573 48 22.0066Z" fill="url(#paint0_linear_218_9740)" fill-opacity="0.3"/>
</g>
<path d="M46.8462 22.0066C46.8462 29.2786 42.7306 35.5908 36.6973 38.7363C36.6115 38.7811 36.523 38.827 36.4321 38.8741C34.1499 40.0576 30.3462 42.0301 28.1314 46.9859C28.1281 46.9866 28.1247 46.9874 28.1211 46.9881C28.0861 46.9954 28.0446 47 28 47C27.9554 47 27.9139 46.9954 27.8789 46.9881C27.8753 46.9874 27.8719 46.9866 27.8686 46.9859C25.6538 42.0301 21.8501 40.0576 19.5679 38.8741C19.477 38.827 19.3885 38.7811 19.3027 38.7363C13.2694 35.5908 9.15385 29.2786 9.15385 22.0066C9.15385 11.5941 17.5919 3.15385 28 3.15385C38.4081 3.15385 46.8462 11.5941 46.8462 22.0066Z" stroke="url(#paint1_linear_218_9740)" stroke-width="2.30769"/>
</g>
<g id="&#232;&#183;&#175;&#229;&#190;&#132;" filter="url(#filter1_di_218_9740)">
<path fill-rule="evenodd" clip-rule="evenodd" d="M36.664 33.7401V17.8094C36.664 12.7683 32.552 8.68197 27.482 8.68197C22.41 8.68197 18.298 12.7683 18.298 17.8094L18.298 33.7401H16V17.3669C16 10.9962 21.204 5.8335 27.624 5.8335C34.044 5.8335 39.248 10.9962 39.248 17.3669V33.7401H36.664ZM27.766 9.53511C34.438 9.46335 35.804 16.6533 35.804 16.6533V33.7401H35.514L30.638 24.9117V16.9383C30.638 16.9383 30.424 14.66 27.766 14.66C25.112 14.66 24.61 16.9383 24.61 16.9383V24.9117L19.606 33.7401H19.158V16.6553C19.158 16.6553 20.306 9.61484 27.766 9.53511ZM35.23 33.7401L30.244 24.9117H24.898L19.912 33.7401H35.23Z" fill="url(#paint2_linear_218_9740)"/>
</g>
</g>
<defs>
<filter id="filter0_ii_218_9740" x="8" y="2" width="40" height="47.0192" filterUnits="userSpaceOnUse" color-interpolation-filters="sRGB">
<feFlood flood-opacity="0" result="BackgroundImageFix"/>
<feBlend mode="normal" in="SourceGraphic" in2="BackgroundImageFix" result="shape"/>
<feColorMatrix in="SourceAlpha" type="matrix" values="0 0 0 0 0 0 0 0 0 0 0 0 0 0 0 0 0 0 127 0" result="hardAlpha"/>
<feOffset dy="0.865385"/>
<feGaussianBlur stdDeviation="5.38462"/>
<feComposite in2="hardAlpha" operator="arithmetic" k2="-1" k3="1"/>
<feColorMatrix type="matrix" values="0 0 0 0 0.160784 0 0 0 0 0.905882 0 0 0 0 0.643137 0 0 0 0.6 0"/>
<feBlend mode="normal" in2="shape" result="effect1_innerShadow_218_9740"/>
<feColorMatrix in="SourceAlpha" type="matrix" values="0 0 0 0 0 0 0 0 0 0 0 0 0 0 0 0 0 0 127 0" result="hardAlpha"/>
<feOffset dy="0.865385"/>
<feGaussianBlur stdDeviation="3.46154"/>
<feComposite in2="hardAlpha" operator="arithmetic" k2="-1" k3="1"/>
<feColorMatrix type="matrix" values="0 0 0 0 0.160784 0 0 0 0 0.905882 0 0 0 0 0.643137 0 0 0 0.5 0"/>
<feBlend mode="normal" in2="effect1_innerShadow_218_9740" result="effect2_innerShadow_218_9740"/>
</filter>
<filter id="filter1_di_218_9740" x="0.492832" y="0.664439" width="54.2624" height="58.9211" filterUnits="userSpaceOnUse" color-interpolation-filters="sRGB">
<feFlood flood-opacity="0" result="BackgroundImageFix"/>
<feColorMatrix in="SourceAlpha" type="matrix" values="0 0 0 0 0 0 0 0 0 0 0 0 0 0 0 0 0 0 127 0" result="hardAlpha"/>
<feOffset dy="10.3381"/>
<feGaussianBlur stdDeviation="7.75358"/>
<feColorMatrix type="matrix" values="0 0 0 0 0.0941176 0 0 0 0 1 0 0 0 0 0.984314 0 0 0 0.32 0"/>
<feBlend mode="normal" in2="BackgroundImageFix" result="effect1_dropShadow_218_9740"/>
<feBlend mode="normal" in="SourceGraphic" in2="effect1_dropShadow_218_9740" result="shape"/>
<feColorMatrix in="SourceAlpha" type="matrix" values="0 0 0 0 0 0 0 0 0 0 0 0 0 0 0 0 0 0 127 0" result="hardAlpha"/>
<feOffset dy="2.58453"/>
<feGaussianBlur stdDeviation="5.16906"/>
<feComposite in2="hardAlpha" operator="arithmetic" k2="-1" k3="1"/>
<feColorMatrix type="matrix" values="0 0 0 0 1 0 0 0 0 1 0 0 0 0 1 0 0 0 0.5 0"/>
<feBlend mode="normal" in2="shape" result="effect2_innerShadow_218_9740"/>
</filter>
<linearGradient id="paint0_linear_218_9740" x1="-12" y1="2" x2="-12" y2="48.1538" gradientUnits="userSpaceOnUse">
<stop stop-color="#0183FC" stop-opacity="0.05"/>
<stop offset="1" stop-color="#37BCFF" stop-opacity="0.05"/>
</linearGradient>
<linearGradient id="paint1_linear_218_9740" x1="-7.23754" y1="7.49515" x2="-7.23754" y2="48.1538" gradientUnits="userSpaceOnUse">
<stop stop-color="#29E7A4"/>
<stop offset="1" stop-color="#29E7A4"/>
</linearGradient>
<linearGradient id="paint2_linear_218_9740" x1="3.4633" y1="2.9014" x2="3.4633" y2="31.9036" gradientUnits="userSpaceOnUse">
<stop stop-color="#29E7A4"/>
<stop offset="1" stop-color="#B1FFE4"/>
</linearGradient>
</defs>
</svg>
