<svg width="40" height="47" viewBox="0 0 40 47" fill="none" xmlns="http://www.w3.org/2000/svg">
<g id="&#230;&#161;&#165;&#230;&#162;&#129;">
<g id="Ellipse 9">
<g filter="url(#filter0_ii_218_9792)">
<path d="M40 20.0066C40 27.7252 35.6304 34.4229 29.2308 37.7595C26.9677 38.9393 23.248 40.7324 21.1322 45.5758C20.7955 46.3465 19.2045 46.3465 18.8678 45.5758C16.752 40.7324 13.0323 38.9393 10.7692 37.7595C4.36957 34.4229 0 27.7252 0 20.0066C0 8.95725 8.9543 0 20 0C31.0457 0 40 8.95725 40 20.0066Z" fill="url(#paint0_linear_218_9792)" fill-opacity="0.3"/>
</g>
<path d="M38.8462 20.0066C38.8462 27.2786 34.7306 33.5908 28.6973 36.7363C28.6115 36.7811 28.523 36.827 28.4321 36.8741C26.1499 38.0576 22.3462 40.0301 20.1314 44.9859C20.1281 44.9866 20.1247 44.9874 20.1211 44.9881C20.0861 44.9954 20.0446 45 20 45C19.9554 45 19.9139 44.9954 19.8789 44.9881C19.8753 44.9874 19.8719 44.9866 19.8686 44.9859C17.6538 40.0301 13.8501 38.0576 11.5679 36.8741C11.477 36.827 11.3885 36.7811 11.3027 36.7363C5.26937 33.5908 1.15385 27.2786 1.15385 20.0066C1.15385 9.59415 9.59191 1.15385 20 1.15385C30.4081 1.15385 38.8462 9.59415 38.8462 20.0066Z" stroke="url(#paint1_linear_218_9792)" stroke-width="2.30769"/>
</g>
<path id="Vector" d="M20.0001 31.6319C13.3717 31.6319 8 26.2588 8 19.6319C8 13.0035 13.3717 7.63184 20.0001 7.63184C26.6269 7.63184 32 13.0035 32 19.6319C32 26.2588 26.6269 31.6319 20.0001 31.6319ZM29.0411 15.9624C28.6015 15.9187 27.944 15.4477 27.3825 14.7237C26.7172 13.8628 26.4252 12.9658 26.6735 12.603C24.9231 10.991 22.5814 9.99776 19.9985 9.99776C17.4474 9.99776 15.1356 10.967 13.3927 12.5383C13.7239 12.8514 13.4393 13.8101 12.732 14.7237C12.1193 15.5169 11.3879 16.0091 10.956 15.9638C10.4833 17.0942 10.2184 18.3313 10.2184 19.6303C10.2184 24.9508 14.5967 29.2597 20 29.2597C25.4002 29.2597 29.7814 24.9508 29.7814 19.6303C29.78 18.3314 29.5167 17.0943 29.0411 15.9624ZM26.052 21.6577C23.1457 21.6577 22.0214 24.6468 22.0214 24.6468L22.0454 28.4065L20.0768 28.444V28.4501L19.8796 28.4471L19.6855 28.4501V28.444L17.6762 28.4065L17.6958 24.6468C17.6958 24.6468 16.7747 21.6577 13.8698 21.6577C12.0533 21.6577 11.3322 21.6426 11.3322 21.6426C11.3322 21.6426 10.8144 20.7998 10.8943 18.9048C15.089 18.7272 14.21 16.003 19.6839 15.8736V15.8616C19.7517 15.8616 19.8104 15.8677 19.8796 15.8677C19.9474 15.8677 20.0046 15.8616 20.0754 15.8616V15.8736C25.5568 16.0015 24.8298 18.7272 29.0261 18.9048C29.1073 20.7997 28.5866 21.6426 28.5866 21.6426C28.5866 21.6426 27.8686 21.6577 26.052 21.6577ZM19.8875 16.7135C18.2004 16.7135 16.8343 18.0807 16.8343 19.7674C16.8343 21.4526 18.2017 22.8212 19.8875 22.8212C21.5733 22.8212 22.942 21.4527 22.942 19.7674C22.942 18.0807 21.5745 16.7135 19.8875 16.7135Z" fill="url(#paint2_linear_218_9792)"/>
</g>
<defs>
<filter id="filter0_ii_218_9792" x="0" y="0" width="40" height="47.0192" filterUnits="userSpaceOnUse" color-interpolation-filters="sRGB">
<feFlood flood-opacity="0" result="BackgroundImageFix"/>
<feBlend mode="normal" in="SourceGraphic" in2="BackgroundImageFix" result="shape"/>
<feColorMatrix in="SourceAlpha" type="matrix" values="0 0 0 0 0 0 0 0 0 0 0 0 0 0 0 0 0 0 127 0" result="hardAlpha"/>
<feOffset dy="0.865385"/>
<feGaussianBlur stdDeviation="5.38462"/>
<feComposite in2="hardAlpha" operator="arithmetic" k2="-1" k3="1"/>
<feColorMatrix type="matrix" values="0 0 0 0 1 0 0 0 0 0.596078 0 0 0 0 0.239216 0 0 0 0.6 0"/>
<feBlend mode="normal" in2="shape" result="effect1_innerShadow_218_9792"/>
<feColorMatrix in="SourceAlpha" type="matrix" values="0 0 0 0 0 0 0 0 0 0 0 0 0 0 0 0 0 0 127 0" result="hardAlpha"/>
<feOffset dy="0.865385"/>
<feGaussianBlur stdDeviation="3.46154"/>
<feComposite in2="hardAlpha" operator="arithmetic" k2="-1" k3="1"/>
<feColorMatrix type="matrix" values="0 0 0 0 1 0 0 0 0 0.596078 0 0 0 0 0.239216 0 0 0 0.5 0"/>
<feBlend mode="normal" in2="effect1_innerShadow_218_9792" result="effect2_innerShadow_218_9792"/>
</filter>
<linearGradient id="paint0_linear_218_9792" x1="-20" y1="0" x2="-20" y2="46.1538" gradientUnits="userSpaceOnUse">
<stop stop-color="#0183FC" stop-opacity="0.05"/>
<stop offset="1" stop-color="#37BCFF" stop-opacity="0.05"/>
</linearGradient>
<linearGradient id="paint1_linear_218_9792" x1="-15.2375" y1="5.49515" x2="-15.2375" y2="46.1538" gradientUnits="userSpaceOnUse">
<stop stop-color="#FF983D"/>
<stop offset="1" stop-color="#FF983D"/>
</linearGradient>
<linearGradient id="paint2_linear_218_9792" x1="-18.9675" y1="1.81939" x2="-14.3899" y2="36.2094" gradientUnits="userSpaceOnUse">
<stop stop-color="white"/>
<stop offset="1" stop-color="#FFAD64"/>
</linearGradient>
</defs>
</svg>
