<svg width="24" height="8" viewBox="0 0 24 8" fill="none" xmlns="http://www.w3.org/2000/svg">
<g id="Frame 1321315217" clip-path="url(#clip0_12_43379)">
<g id="&#228;&#184;&#138;">
<path d="M10 0.449707L3.85905 7.55024H6.11115e-05L6.14101 0.449707H10Z" fill="url(#paint0_linear_12_43379)"/>
<path d="M6.2116 0.604067H9.66242L3.78847 7.39588H0.33764L6.2116 0.604067Z" stroke="url(#paint1_linear_12_43379)" stroke-opacity="0.69" stroke-width="0.308719"/>
</g>
<g id="&#228;&#184;&#138;_2">
<path d="M17 0.449707L10.859 7.55024H7.00006L13.141 0.449707H17Z" fill="url(#paint2_linear_12_43379)"/>
<path d="M13.2116 0.604067H16.6624L10.7885 7.39588H7.33764L13.2116 0.604067Z" stroke="url(#paint3_linear_12_43379)" stroke-opacity="0.69" stroke-width="0.308719"/>
</g>
<g id="&#228;&#184;&#138;_3">
<path d="M24 0.449707L17.859 7.55024H14.0001L20.141 0.449707H24Z" fill="url(#paint4_linear_12_43379)"/>
<path d="M20.2116 0.604067H23.6624L17.7885 7.39588H14.3376L20.2116 0.604067Z" stroke="url(#paint5_linear_12_43379)" stroke-opacity="0.69" stroke-width="0.308719"/>
</g>
</g>
<defs>
<linearGradient id="paint0_linear_12_43379" x1="5" y1="0.449707" x2="5" y2="7.55024" gradientUnits="userSpaceOnUse">
<stop stop-color="#0283EB"/>
<stop offset="1" stop-color="#00EFD2"/>
</linearGradient>
<linearGradient id="paint1_linear_12_43379" x1="8.76518" y1="11.8724" x2="-168.748" y2="11.8724" gradientUnits="userSpaceOnUse">
<stop stop-color="#01FDFE"/>
<stop offset="0.342734" stop-color="#08385E"/>
<stop offset="1" stop-color="#0C394C"/>
</linearGradient>
<linearGradient id="paint2_linear_12_43379" x1="12" y1="0.449707" x2="12" y2="7.55024" gradientUnits="userSpaceOnUse">
<stop stop-color="#0283EB"/>
<stop offset="1" stop-color="#00EFD2"/>
</linearGradient>
<linearGradient id="paint3_linear_12_43379" x1="15.7652" y1="11.8724" x2="-161.748" y2="11.8724" gradientUnits="userSpaceOnUse">
<stop stop-color="#01FDFE"/>
<stop offset="0.342734" stop-color="#08385E"/>
<stop offset="1" stop-color="#0C394C"/>
</linearGradient>
<linearGradient id="paint4_linear_12_43379" x1="19" y1="0.449707" x2="19" y2="7.55024" gradientUnits="userSpaceOnUse">
<stop stop-color="#0283EB"/>
<stop offset="1" stop-color="#00EFD2"/>
</linearGradient>
<linearGradient id="paint5_linear_12_43379" x1="22.7652" y1="11.8724" x2="-154.748" y2="11.8724" gradientUnits="userSpaceOnUse">
<stop stop-color="#01FDFE"/>
<stop offset="0.342734" stop-color="#08385E"/>
<stop offset="1" stop-color="#0C394C"/>
</linearGradient>
<clipPath id="clip0_12_43379">
<rect width="24" height="7" fill="white" transform="translate(0 0.5)"/>
</clipPath>
</defs>
</svg>
