<svg width="21" height="20" viewBox="0 0 21 20" fill="none" xmlns="http://www.w3.org/2000/svg">
<g id="&#231;&#155;&#145;&#230;&#142;&#167;" clip-path="url(#clip0_42_9579)">
<g id="&#231;&#155;&#145;&#230;&#142;&#167;_2">
<path id="&#229;&#183;&#174;&#233;&#155;&#134;" fill-rule="evenodd" clip-rule="evenodd" d="M0.15918 10.5006V20L2.29257 19.2143V15.9298H5.69245L7.15936 13.5016L5.29255 12.2878L4.42597 13.9297H2.29257V13.8566V10.8567L0.15918 10.5006ZM3.15919 0L0.760543 4.07016V5.42784L14.4272 14.9988L15.5607 14.8564L20.1592 10.8567L4.89204 0H3.15919Z" fill="url(#paint0_linear_42_9579)"/>
<g id="&#229;&#189;&#162;&#231;&#138;&#182;_8" filter="url(#filter0_d_42_9579)">
<path fill-rule="evenodd" clip-rule="evenodd" d="M14.558 17.8562H15.8275L16.4288 17.1411L17.0302 15.0707C17.0302 15.0707 15.2966 16.427 15.1633 16.427C14.558 15.9269 0.760742 6.2854 0.760742 6.2854V8.42769L14.558 17.8562Z" fill="url(#paint1_linear_42_9579)"/>
</g>
</g>
</g>
<defs>
<filter id="filter0_d_42_9579" x="-19.2393" y="-13.7146" width="56.2695" height="51.5708" filterUnits="userSpaceOnUse" color-interpolation-filters="sRGB">
<feFlood flood-opacity="0" result="BackgroundImageFix"/>
<feColorMatrix in="SourceAlpha" type="matrix" values="0 0 0 0 0 0 0 0 0 0 0 0 0 0 0 0 0 0 127 0" result="hardAlpha"/>
<feOffset/>
<feGaussianBlur stdDeviation="10"/>
<feColorMatrix type="matrix" values="0 0 0 0 0.0941176 0 0 0 0 0.439216 0 0 0 0 0.65098 0 0 0 1 0"/>
<feBlend mode="normal" in2="BackgroundImageFix" result="effect1_dropShadow_42_9579"/>
<feBlend mode="normal" in="SourceGraphic" in2="effect1_dropShadow_42_9579" result="shape"/>
</filter>
<linearGradient id="paint0_linear_42_9579" x1="20.1629" y1="20" x2="20.1629" y2="-0.00463951" gradientUnits="userSpaceOnUse">
<stop stop-color="#70DBFF"/>
<stop offset="0.014" stop-color="#70DBFF"/>
<stop offset="1" stop-color="white"/>
</linearGradient>
<linearGradient id="paint1_linear_42_9579" x1="17.0332" y1="17.8562" x2="17.0332" y2="6.28272" gradientUnits="userSpaceOnUse">
<stop stop-color="#70DBFF"/>
<stop offset="0.014" stop-color="#70DBFF"/>
<stop offset="1" stop-color="white"/>
</linearGradient>
<clipPath id="clip0_42_9579">
<rect width="20" height="20" fill="white" transform="translate(0.15918)"/>
</clipPath>
</defs>
</svg>
