<svg width="20" height="20" viewBox="0 0 20 20" fill="none" xmlns="http://www.w3.org/2000/svg">
<g id="&#231;&#155;&#145;&#230;&#142;&#167;" clip-path="url(#clip0_42_9580)">
<g id="&#231;&#155;&#145;&#230;&#142;&#167;&#229;&#156;&#168;&#231;&#186;&#191;">
<path id="&#229;&#183;&#174;&#233;&#155;&#134;" fill-rule="evenodd" clip-rule="evenodd" d="M0 10.5006V20L2.13339 19.2143V15.9298H5.53327L7.00018 13.5016L5.13337 12.2878L4.26679 13.9297H2.13339V13.8566V10.8567L0 10.5006ZM2.99955 0L0.600905 4.07016V5.42784L14.2675 14.9988L15.4011 14.8564L19.9996 10.8567L4.7324 0H2.99955Z" fill="url(#paint0_linear_42_9580)"/>
<g id="&#229;&#189;&#162;&#231;&#138;&#182;_8" filter="url(#filter0_d_42_9580)">
<path fill-rule="evenodd" clip-rule="evenodd" d="M14.3978 17.8562H15.6674L16.2687 17.1411L16.87 15.0707C16.87 15.0707 15.1365 16.427 15.0032 16.427C14.3978 15.9269 0.600586 6.2854 0.600586 6.2854V8.42769L14.3978 17.8562Z" fill="url(#paint1_linear_42_9580)"/>
</g>
</g>
</g>
<defs>
<filter id="filter0_d_42_9580" x="-19.3994" y="-13.7146" width="56.2695" height="51.5708" filterUnits="userSpaceOnUse" color-interpolation-filters="sRGB">
<feFlood flood-opacity="0" result="BackgroundImageFix"/>
<feColorMatrix in="SourceAlpha" type="matrix" values="0 0 0 0 0 0 0 0 0 0 0 0 0 0 0 0 0 0 127 0" result="hardAlpha"/>
<feOffset/>
<feGaussianBlur stdDeviation="10"/>
<feColorMatrix type="matrix" values="0 0 0 0 0.0941176 0 0 0 0 0.439216 0 0 0 0 0.65098 0 0 0 1 0"/>
<feBlend mode="normal" in2="BackgroundImageFix" result="effect1_dropShadow_42_9580"/>
<feBlend mode="normal" in="SourceGraphic" in2="effect1_dropShadow_42_9580" result="shape"/>
</filter>
<linearGradient id="paint0_linear_42_9580" x1="20.0033" y1="20" x2="20.0033" y2="-0.00463951" gradientUnits="userSpaceOnUse">
<stop stop-color="#04E16B"/>
<stop offset="0.014" stop-color="#04E16B"/>
<stop offset="1" stop-color="white"/>
</linearGradient>
<linearGradient id="paint1_linear_42_9580" x1="16.873" y1="17.8562" x2="16.873" y2="6.28272" gradientUnits="userSpaceOnUse">
<stop stop-color="#04E16B"/>
<stop offset="0.014" stop-color="#04E16B"/>
<stop offset="1" stop-color="white"/>
</linearGradient>
<clipPath id="clip0_42_9580">
<rect width="19.9996" height="20" fill="white"/>
</clipPath>
</defs>
</svg>
