<svg width="70" height="50" viewBox="0 0 70 50" fill="none" xmlns="http://www.w3.org/2000/svg">
<g id="&#229;&#156;&#168;&#231;&#186;&#191;" clip-path="url(#clip0_12_43758)">
<path id="&#232;&#183;&#175;&#229;&#190;&#132;" d="M34.8785 15.0491C44.1536 15.0491 52.4097 16.9358 58.2396 19.8505C64.2436 22.8524 66.8506 26.4611 66.8506 29.5819C66.8506 32.7026 64.2436 36.3113 58.2396 39.3132C52.4097 42.2279 44.1536 44.1146 34.8785 44.1146C25.6017 44.1146 17.3457 42.2279 11.5164 39.3132C5.51296 36.3115 2.90648 32.7028 2.90648 29.5819C2.90648 26.4609 5.51296 22.8522 11.5164 19.8505C17.3457 16.9358 25.6017 15.0491 34.8785 15.0491Z" stroke="url(#paint0_linear_12_43758)" stroke-width="5.81296"/>
<g id="&#229;&#156;&#168;&#231;&#186;&#191;_2">
<g id="&#229;&#183;&#174;&#233;&#155;&#134;" filter="url(#filter0_d_12_43758)">
<path fill-rule="evenodd" clip-rule="evenodd" d="M23.1426 19.9863V33.2854L26.1294 32.1855V27.5872H30.8893L32.943 24.1876L30.3294 22.4883L29.1162 24.787H26.1294V24.6847V20.4849L23.1426 19.9863ZM27.3421 5.28564L23.984 10.9839V12.8846L43.1175 26.284L44.7045 26.0845L51.1425 20.4851L29.7681 5.28564H27.3421Z" fill="url(#paint1_linear_12_43758)"/>
</g>
<g id="&#229;&#189;&#162;&#231;&#138;&#182;_8" filter="url(#filter1_d_12_43758)">
<path fill-rule="evenodd" clip-rule="evenodd" d="M43.3008 30.2843H45.0782L45.92 29.2831L46.7619 26.3847C46.7619 26.3847 44.3349 28.2834 44.1483 28.2834C43.3008 27.5833 23.9844 14.0852 23.9844 14.0852V17.0844L43.3008 30.2843Z" fill="url(#paint2_linear_12_43758)"/>
</g>
</g>
</g>
<defs>
<filter id="filter0_d_12_43758" x="-4.85762" y="-22.7146" width="84.0004" height="84.0002" filterUnits="userSpaceOnUse" color-interpolation-filters="sRGB">
<feFlood flood-opacity="0" result="BackgroundImageFix"/>
<feColorMatrix in="SourceAlpha" type="matrix" values="0 0 0 0 0 0 0 0 0 0 0 0 0 0 0 0 0 0 127 0" result="hardAlpha"/>
<feOffset/>
<feGaussianBlur stdDeviation="14.0001"/>
<feColorMatrix type="matrix" values="0 0 0 0 0.0941176 0 0 0 0 0.439216 0 0 0 0 0.65098 0 0 0 1 0"/>
<feBlend mode="normal" in2="BackgroundImageFix" result="effect1_dropShadow_12_43758"/>
<feBlend mode="normal" in="SourceGraphic" in2="effect1_dropShadow_12_43758" result="shape"/>
</filter>
<filter id="filter1_d_12_43758" x="-4.01583" y="-13.915" width="78.7777" height="72.1996" filterUnits="userSpaceOnUse" color-interpolation-filters="sRGB">
<feFlood flood-opacity="0" result="BackgroundImageFix"/>
<feColorMatrix in="SourceAlpha" type="matrix" values="0 0 0 0 0 0 0 0 0 0 0 0 0 0 0 0 0 0 127 0" result="hardAlpha"/>
<feOffset/>
<feGaussianBlur stdDeviation="14.0001"/>
<feColorMatrix type="matrix" values="0 0 0 0 0.0941176 0 0 0 0 0.439216 0 0 0 0 0.65098 0 0 0 1 0"/>
<feBlend mode="normal" in2="BackgroundImageFix" result="effect1_dropShadow_12_43758"/>
<feBlend mode="normal" in="SourceGraphic" in2="effect1_dropShadow_12_43758" result="shape"/>
</filter>
<linearGradient id="paint0_linear_12_43758" x1="0" y1="12.1426" x2="0" y2="47.0211" gradientUnits="userSpaceOnUse">
<stop stop-color="#0AA992"/>
<stop offset="1" stop-color="#0BE18B"/>
</linearGradient>
<linearGradient id="paint1_linear_12_43758" x1="51.1477" y1="33.2856" x2="51.1477" y2="5.27915" gradientUnits="userSpaceOnUse">
<stop stop-color="#04E16B"/>
<stop offset="0.014" stop-color="#04E16B"/>
<stop offset="1" stop-color="white"/>
</linearGradient>
<linearGradient id="paint2_linear_12_43758" x1="46.7661" y1="30.2844" x2="46.7661" y2="14.0814" gradientUnits="userSpaceOnUse">
<stop stop-color="#04E16B"/>
<stop offset="0.014" stop-color="#04E16B"/>
<stop offset="1" stop-color="white"/>
</linearGradient>
<clipPath id="clip0_12_43758">
<rect width="70" height="50" fill="white"/>
</clipPath>
</defs>
</svg>
