<svg width="70" height="50" viewBox="0 0 70 50" fill="none" xmlns="http://www.w3.org/2000/svg">
<g id="&#230;&#128;&#187;&#230;&#149;&#176;" clip-path="url(#clip0_12_43747)">
<path id="&#232;&#183;&#175;&#229;&#190;&#132;" d="M34.9284 15.0495C44.2034 15.0495 52.4595 16.9363 58.2894 19.851C64.2934 22.8529 66.9004 26.4616 66.9004 29.5823C66.9004 32.7031 64.2934 36.3118 58.2894 39.3137C52.4595 42.2284 44.2034 44.1151 34.9284 44.1151C25.6515 44.1151 17.3955 42.2284 11.5662 39.3137C5.56277 36.312 2.95629 32.7033 2.95629 29.5823C2.95629 26.4614 5.56277 22.8527 11.5662 19.851C17.3955 16.9363 25.6515 15.0495 34.9284 15.0495Z" stroke="url(#paint0_linear_12_43747)" stroke-width="5.81296"/>
<g id="&#230;&#128;&#187;&#230;&#149;&#176;_2">
<g id="&#229;&#183;&#174;&#233;&#155;&#134;" filter="url(#filter0_d_12_43747)">
<path fill-rule="evenodd" clip-rule="evenodd" d="M24.7656 20.7008V33.9996L27.7524 32.8997V28.3016H32.5122L34.5659 24.9021L31.9524 23.2028L30.7391 25.5014H27.7524V25.3992V21.1994L24.7656 20.7008ZM28.9655 6.00024L25.6073 11.6983V13.599L44.7407 26.9981L46.3276 26.7986L52.7656 21.1993L31.3914 6.00024H28.9655Z" fill="url(#paint1_linear_12_43747)"/>
</g>
<g id="&#229;&#189;&#162;&#231;&#138;&#182;_8" filter="url(#filter1_d_12_43747)">
<path fill-rule="evenodd" clip-rule="evenodd" d="M44.9237 30.9983H46.701L47.5428 29.9971L48.3847 27.0987C48.3847 27.0987 45.9577 28.9974 45.7711 28.9974C44.9237 28.2973 25.6074 14.7996 25.6074 14.7996V17.7987L44.9237 30.9983Z" fill="url(#paint2_linear_12_43747)"/>
</g>
</g>
</g>
<defs>
<filter id="filter0_d_12_43747" x="-3.23352" y="-21.9989" width="83.9983" height="83.9978" filterUnits="userSpaceOnUse" color-interpolation-filters="sRGB">
<feFlood flood-opacity="0" result="BackgroundImageFix"/>
<feColorMatrix in="SourceAlpha" type="matrix" values="0 0 0 0 0 0 0 0 0 0 0 0 0 0 0 0 0 0 127 0" result="hardAlpha"/>
<feOffset/>
<feGaussianBlur stdDeviation="13.9996"/>
<feColorMatrix type="matrix" values="0 0 0 0 0.0941176 0 0 0 0 0.439216 0 0 0 0 0.65098 0 0 0 1 0"/>
<feBlend mode="normal" in2="BackgroundImageFix" result="effect1_dropShadow_12_43747"/>
<feBlend mode="normal" in="SourceGraphic" in2="effect1_dropShadow_12_43747" result="shape"/>
</filter>
<filter id="filter1_d_12_43747" x="-2.39172" y="-13.1996" width="78.7756" height="72.197" filterUnits="userSpaceOnUse" color-interpolation-filters="sRGB">
<feFlood flood-opacity="0" result="BackgroundImageFix"/>
<feColorMatrix in="SourceAlpha" type="matrix" values="0 0 0 0 0 0 0 0 0 0 0 0 0 0 0 0 0 0 127 0" result="hardAlpha"/>
<feOffset/>
<feGaussianBlur stdDeviation="13.9996"/>
<feColorMatrix type="matrix" values="0 0 0 0 0.0941176 0 0 0 0 0.439216 0 0 0 0 0.65098 0 0 0 1 0"/>
<feBlend mode="normal" in2="BackgroundImageFix" result="effect1_dropShadow_12_43747"/>
<feBlend mode="normal" in="SourceGraphic" in2="effect1_dropShadow_12_43747" result="shape"/>
</filter>
<linearGradient id="paint0_linear_12_43747" x1="90.1206" y1="47.0216" x2="90.1206" y2="-8.17059" gradientUnits="userSpaceOnUse">
<stop stop-color="#70DBFF"/>
<stop offset="1" stop-color="#2D558B"/>
</linearGradient>
<linearGradient id="paint1_linear_12_43747" x1="52.7708" y1="33.9996" x2="52.7708" y2="5.99375" gradientUnits="userSpaceOnUse">
<stop stop-color="#70DBFF"/>
<stop offset="0.014" stop-color="#70DBFF"/>
<stop offset="1" stop-color="white"/>
</linearGradient>
<linearGradient id="paint2_linear_12_43747" x1="48.3889" y1="30.9983" x2="48.3889" y2="14.7958" gradientUnits="userSpaceOnUse">
<stop stop-color="#70DBFF"/>
<stop offset="0.014" stop-color="#70DBFF"/>
<stop offset="1" stop-color="white"/>
</linearGradient>
<clipPath id="clip0_12_43747">
<rect width="70" height="50" fill="white"/>
</clipPath>
</defs>
</svg>
