<svg width="20" height="20" viewBox="0 0 20 20" fill="none" xmlns="http://www.w3.org/2000/svg">
<g id="&#229;&#155;&#155;&#229;&#177;&#143; 1">
<path id="Vector" d="M7.6119 1.31689H2.93564C2.21622 1.31689 1.6167 1.91641 1.6167 2.63584V7.3121C1.6167 8.03152 2.21622 8.63104 2.93564 8.63104H7.6119C8.33133 8.63104 8.93085 8.03152 8.93085 7.3121V2.63584C8.93085 1.91641 8.33133 1.31689 7.6119 1.31689ZM16.9644 1.31689H12.2882C11.5687 1.31689 10.9692 1.91641 10.9692 2.63584V7.3121C10.9692 8.03152 11.5687 8.63104 12.2882 8.63104H16.9644C17.6838 8.63104 18.2834 8.03152 18.2834 7.3121V2.63584C18.2834 1.91641 17.6838 1.31689 16.9644 1.31689ZM7.6119 10.6694H2.93564C2.21622 10.6694 1.6167 11.2689 1.6167 11.9884V16.6646C1.6167 17.384 2.21622 17.9836 2.93564 17.9836H7.6119C8.33133 17.9836 8.93085 17.384 8.93085 16.6646V11.9884C8.93085 11.2689 8.33133 10.6694 7.6119 10.6694ZM16.9644 10.6694H12.2882C11.5687 10.6694 10.9692 11.2689 10.9692 11.9884V16.6646C10.9692 17.384 11.5687 17.9836 12.2882 17.9836H16.9644C17.6838 17.9836 18.2834 17.384 18.2834 16.6646V11.9884C18.2834 11.2689 17.6838 10.6694 16.9644 10.6694Z" fill="#96CCFF"/>
</g>
</svg>
