<svg width="20" height="20" viewBox="0 0 20 20" fill="none" xmlns="http://www.w3.org/2000/svg">
<g id="9&#229;&#177;&#143; ">
<path id="Vector" d="M3 2.00049H5.5C6.16667 2.00049 6.5 2.33382 6.5 3.00049V5.50049C6.5 6.16716 6.16667 6.50049 5.5 6.50049H3C2.33333 6.50049 2 6.16716 2 5.50049V3.00049C2 2.33382 2.33333 2.00049 3 2.00049Z" fill="#96CCFF"/>
<path id="Vector_2" d="M3 7.75H5.5C6.16667 7.75 6.5 8.08333 6.5 8.75V11.25C6.5 11.9167 6.16667 12.25 5.5 12.25H3C2.33333 12.25 2 11.9167 2 11.25V8.75C2 8.08333 2.33333 7.75 3 7.75Z" fill="#96CCFF"/>
<path id="Vector_3" d="M3 13.5H5.5C6.16667 13.5 6.5 13.8333 6.5 14.5V17C6.5 17.6667 6.16667 18 5.5 18H3C2.33333 18 2 17.6667 2 17V14.5C2 13.8333 2.33333 13.5 3 13.5Z" fill="#96CCFF"/>
<path id="Vector_4" d="M8.75 2.00049H11.25C11.9167 2.00049 12.25 2.33382 12.25 3.00049V5.50049C12.25 6.16716 11.9167 6.50049 11.25 6.50049H8.75C8.08333 6.50049 7.75 6.16716 7.75 5.50049V3.00049C7.75 2.33382 8.08333 2.00049 8.75 2.00049Z" fill="#96CCFF"/>
<path id="Vector_5" d="M14.5 2.00049H17C17.6667 2.00049 18 2.33382 18 3.00049V5.50049C18 6.16716 17.6667 6.50049 17 6.50049H14.5C13.8333 6.50049 13.5 6.16716 13.5 5.50049V3.00049C13.5 2.33382 13.8333 2.00049 14.5 2.00049Z" fill="#96CCFF"/>
<path id="Vector_6" d="M8.75 7.75H11.25C11.9167 7.75 12.25 8.08333 12.25 8.75V11.25C12.25 11.9167 11.9167 12.25 11.25 12.25H8.75C8.08333 12.25 7.75 11.9167 7.75 11.25V8.75C7.75 8.08333 8.08333 7.75 8.75 7.75Z" fill="#96CCFF"/>
<path id="Vector_7" d="M8.75 13.5H11.25C11.9167 13.5 12.25 13.8333 12.25 14.5V17C12.25 17.6667 11.9167 18 11.25 18H8.75C8.08333 18 7.75 17.6667 7.75 17V14.5C7.75 13.8333 8.08333 13.5 8.75 13.5Z" fill="#96CCFF"/>
<path id="Vector_8" d="M14.5 7.75H17C17.6667 7.75 18 8.08333 18 8.75V11.25C18 11.9167 17.6667 12.25 17 12.25H14.5C13.8333 12.25 13.5 11.9167 13.5 11.25V8.75C13.5 8.08333 13.8333 7.75 14.5 7.75Z" fill="#96CCFF"/>
<path id="Vector_9" d="M14.5 13.5H17C17.6667 13.5 18 13.8333 18 14.5V17C18 17.6667 17.6667 18 17 18H14.5C13.8333 18 13.5 17.6667 13.5 17V14.5C13.5 13.8333 13.8333 13.5 14.5 13.5Z" fill="#96CCFF"/>
</g>
</svg>
