<svg xmlns="http://www.w3.org/2000/svg" xmlns:xlink="http://www.w3.org/1999/xlink" fill="none" version="1.1" width="46.720985412597656" height="46.79999542236328" viewBox="0 0 46.720985412597656 46.79999542236328"><defs><clipPath id="master_svg0_62_05645"><rect x="0" y="0" width="46.720985412597656" height="46.79999542236328" rx="0"/></clipPath><linearGradient x1="0.5" y1="0" x2="0.5" y2="1" id="master_svg1_1_2584"><stop offset="0%" stop-color="#E4F7FF" stop-opacity="1"/><stop offset="100%" stop-color="#9FE2FD" stop-opacity="1"/></linearGradient></defs><g><g clip-path="url(#master_svg0_62_05645)"><g><path d="M23.3600890625,5.849951171875C13.6838890625,5.849951171875,5.8397090625,13.707351171875,5.8397090625,23.399951171875C5.8397090625,33.092651171875005,13.6838890625,40.949951171875,23.3600890625,40.949951171875C33.0363890625,40.949951171875,40.8804890625,33.092651171875005,40.8804890625,23.399951171875C40.8804890625,13.707351171875,33.0363890625,5.849951171875,23.3600890625,5.849951171875C23.3600890625,5.849951171875,23.3600890625,5.849951171875,23.3600890625,5.849951171875ZM1.9462890625,23.399951171875C1.9462890625,11.553451171875,11.5335690625,1.949951171875,23.3600890625,1.949951171875C35.1864890625,1.949951171875,44.7738890625,11.553451171875,44.7738890625,23.399951171875C44.7738890625,35.246351171875,35.1864890625,44.849951171875,23.3600890625,44.849951171875C11.5335690625,44.849951171875,1.9462890625,35.246351171875,1.9462890625,23.399951171875C1.9462890625,23.399951171875,1.9462890625,23.399951171875,1.9462890625,23.399951171875ZM16.1433890625,16.171051171875C16.9036890625,15.409551171875,18.1362890625,15.409551171875,18.8964890625,16.171051171875C18.8964890625,16.171051171875,23.3600890625,20.642251171875,23.3600890625,20.642251171875C23.3600890625,20.642251171875,27.8236890625,16.171051171875,27.8236890625,16.171051171875C28.5838890625,15.409551171875,29.8164890625,15.409551171875,30.5766890625,16.171051171875C31.3368890625,16.932651171875,31.3368890625,18.167251171875,30.5766890625,18.928851171875C30.5766890625,18.928851171875,26.1130890625,23.399951171875,26.1130890625,23.399951171875C26.1130890625,23.399951171875,30.5766890625,27.871151171875,30.5766890625,27.871151171875C31.3368890625,28.632551171875,31.3368890625,29.867351171875,30.5766890625,30.628751171875C29.8164890625,31.390251171875,28.5838890625,31.390251171875,27.8236890625,30.628751171875C27.8236890625,30.628751171875,23.3600890625,26.157651171875,23.3600890625,26.157651171875C23.3600890625,26.157651171875,18.8964890625,30.628751171875,18.8964890625,30.628751171875C18.1362890625,31.390251171875,16.9036890625,31.390251171875,16.1433890625,30.628751171875C15.3831890625,29.867351171875,15.3831890625,28.632551171875,16.1433890625,27.871151171875C16.1433890625,27.871151171875,20.6069890625,23.399951171875,20.6069890625,23.399951171875C20.6069890625,23.399951171875,16.1433890625,18.928851171875,16.1433890625,18.928851171875C15.3831890625,18.167251171875,15.3831890625,16.932651171875,16.1433890625,16.171051171875C16.1433890625,16.171051171875,16.1433890625,16.171051171875,16.1433890625,16.171051171875Z" fill-rule="evenodd" fill="url(#master_svg1_1_2584)" fill-opacity="1"/></g></g></g></svg>