<svg width="116" height="96" viewBox="0 0 116 96" fill="none" xmlns="http://www.w3.org/2000/svg">
<g id="icon">
<rect id="&#231;&#159;&#169;&#229;&#189;&#162; 217" x="20" width="96" height="96" fill="url(#paint0_linear_221_10044)"/>
<rect id="&#231;&#159;&#169;&#229;&#189;&#162; 220" width="8" height="95.811" fill="#62FFD7"/>
<path id="&#232;&#183;&#175;&#229;&#190;&#132;" fill-rule="evenodd" clip-rule="evenodd" d="M60.6678 23.6585H71.1682C72.3812 23.6585 73.4071 22.3929 73.4071 20.8259C73.4071 19.2656 72.3812 18 71.1018 18H60.6618C59.3824 18 58.3565 19.2656 58.3565 20.8259C58.3626 22.3929 59.3885 23.6585 60.6678 23.6585ZM64.2706 59.2701C62.6593 59.6652 61.2351 60.5357 60.0885 61.8348C57.7953 64.4263 57.1194 68.1094 56.9565 70.8281H49.5881C45.4906 70.8281 44 68.5246 44 64.3996V26.3839C44 22.5469 45.038 19.8884 49.2683 19.8884H54.5305C54.4762 20.1964 54.4461 20.5112 54.4461 20.8259C54.4461 23.2031 56.003 25.5469 57.9522 25.5469H73.9261C75.7787 25.5469 77.3297 23.2031 77.3297 20.8259C77.3297 20.5112 77.2995 20.1964 77.2452 19.8884H82.441C86.3515 19.8884 88.2162 22.5469 88.2162 26.3839V58.0513C85.6636 53.8326 81.4996 51.3147 76.8227 51.3147C74.1433 51.3147 71.5665 52.1518 69.3397 53.6451H54.3676C53.5348 53.6451 52.8288 54.4353 52.8288 55.3594C52.8288 56.2902 53.6616 57.4219 54.4943 57.4219H65.4473C65.0189 58.0045 64.6266 58.6205 64.2706 59.2701ZM68.7423 70.6875C68.7423 70.3929 68.4405 70.0714 68.006 70.0714C67.5655 70.0714 67.2698 70.3929 67.2698 70.6875C67.2698 70.7411 67.2758 70.7879 67.2939 70.8281H68.7181C68.7302 70.7813 68.7423 70.7344 68.7423 70.6875ZM84.5471 70.5402C84.9273 70.4397 85.2713 70.3058 85.5911 70.1451C85.4946 70.0982 85.3799 70.0714 85.2532 70.0714C84.8911 70.0714 84.6256 70.2924 84.5471 70.5402ZM54.7599 33.2411H77.2995C78.1323 33.2411 78.8383 34.0982 78.8987 35.096C78.8987 36.0201 78.0236 37.0179 77.1908 37.0179H54.5909C53.7581 37.0179 53.2271 36.0268 53.2271 35.096C53.2271 34.1719 53.9271 33.2411 54.7599 33.2411ZM77.2995 43.5804H54.7599C53.9271 43.5804 53.2271 44.5045 53.2271 45.4353C53.2271 46.3661 53.7581 47.3571 54.5909 47.3571H77.1908C78.0236 47.3571 78.8987 46.3594 78.8987 45.4353C78.8383 44.4375 78.1323 43.5804 77.2995 43.5804ZM90.9741 68.9866C90.9741 68.9866 91.8974 68.9866 91.8974 70.2321C91.8974 71.3304 91.8491 72.0268 91.0767 72.1339C91.0707 72.288 91.0646 72.4286 91.0526 72.5759H88.8921C89.1516 72.0067 89.3025 71.3705 89.3025 70.6942V70.6875C89.2904 70.5335 89.2844 70.4197 89.2844 70.3259C89.0973 68.1295 87.3654 66.4085 85.2532 66.4085C83.0204 66.4085 81.21 68.3237 81.21 70.6942C81.21 71.3705 81.3548 72.0067 81.6203 72.5759H78.736C78.5863 71.9712 78.5064 71.3359 78.5064 70.6808C78.5064 67.033 80.982 63.9993 84.2118 63.4552L84.3902 63.4554L84.389 63.4279C84.672 63.3886 84.9604 63.3683 85.2532 63.3683C86.9254 63.3713 88.4571 64.0369 89.637 65.1347C90.2961 66.2789 90.7061 67.6185 90.9198 68.9933C90.9343 68.9901 90.9475 68.9884 90.9572 68.9875C90.9676 68.9866 90.9741 68.9866 90.9741 68.9866ZM84.389 63.4279C84.3297 63.4362 84.2706 63.4453 84.2118 63.4552L77.6857 63.4487V57.4085C81.5278 57.8955 84.2616 60.9287 84.389 63.4279ZM89.637 65.1347C91.08 66.4774 91.9967 68.4666 92 70.6808C92 74.7121 88.9766 77.9933 85.2532 77.9933C82.1349 77.9933 79.5076 75.6919 78.736 72.5759H74.5185C74.6674 71.9733 74.7468 71.3402 74.7468 70.6875C74.7468 67.021 72.2457 63.9749 68.9917 63.4487H75.9236L75.9236 57.3616C71.7898 57.683 68.7121 60.7634 68.7121 63.3683C68.7121 63.3817 68.7136 63.3951 68.7151 63.4085L68.7153 63.4103C68.4802 63.383 68.2416 63.3687 68 63.3683C64.2826 63.3683 61.2532 66.6496 61.2532 70.6808C61.2542 71.336 61.3346 71.9713 61.4846 72.5759H60.2273C60.1549 68.1897 61.4282 62.6987 66.3827 62.692C70.3415 52.808 82.7066 52.1786 86.5265 62.2969C87.9048 62.873 88.9188 63.8879 89.637 65.1347ZM68.7153 63.4103C68.808 63.4211 68.9002 63.4339 68.9917 63.4487H68.7181C68.7181 63.4359 68.7168 63.4231 68.7153 63.4103ZM61.4846 72.5759H64.3731C64.1076 72.0067 63.9628 71.3705 63.9628 70.6942C63.9628 68.3237 65.7732 66.4085 68.006 66.4085C70.2389 66.4085 72.0493 68.3304 72.0493 70.6942C72.0493 71.3705 71.8984 72.0067 71.6389 72.5759H74.5185C73.7478 75.6953 71.1155 78 68 78C64.8858 78 62.2587 75.6972 61.4846 72.5759ZM66.5215 70.5938C66.5215 71.4111 67.1186 72.0737 67.8552 72.0737C68.5917 72.0737 69.1888 71.4111 69.1888 70.5938C69.1888 69.7764 68.5917 69.1138 67.8552 69.1138C67.1186 69.1138 66.5215 69.7764 66.5215 70.5938ZM83.9316 70.5871C83.9316 69.7768 84.529 69.1071 85.2653 69.1071C86.0015 69.1071 86.5989 69.7701 86.5989 70.5871C86.5989 71.404 86.0015 72.067 85.2653 72.067C84.5351 72.067 83.9316 71.404 83.9316 70.5871ZM64.5663 70.6875C64.5663 72.6964 66.0991 74.3304 68 74.3304C69.9009 74.3304 71.4398 72.6964 71.4337 70.6875C71.4337 68.6786 69.9009 67.0513 68 67.0446C66.1051 67.0446 64.5663 68.6719 64.5663 70.6875ZM81.8134 70.6875C81.8134 72.6964 83.3462 74.3304 85.2472 74.3304C87.1481 74.3304 88.687 72.6964 88.687 70.6875C88.687 68.6786 87.1541 67.0513 85.2532 67.0446C83.3523 67.0446 81.8134 68.6719 81.8134 70.6875Z" fill="url(#paint1_linear_221_10044)"/>
</g>
<defs>
<linearGradient id="paint0_linear_221_10044" x1="19.3272" y1="107.603" x2="115.327" y2="108.949" gradientUnits="userSpaceOnUse">
<stop stop-color="#62FFD7" stop-opacity="0.4"/>
<stop offset="1" stop-color="#62FFD7" stop-opacity="0.1"/>
</linearGradient>
<linearGradient id="paint1_linear_221_10044" x1="56.3429" y1="48.8571" x2="56.3429" y2="78" gradientUnits="userSpaceOnUse">
<stop stop-color="white"/>
<stop offset="1" stop-color="#62FFD7"/>
</linearGradient>
</defs>
</svg>
