<svg width="116" height="96" viewBox="0 0 116 96" fill="none" xmlns="http://www.w3.org/2000/svg">
<g id="icon">
<rect id="&#231;&#159;&#169;&#229;&#189;&#162; 217" x="20" width="96" height="96" fill="url(#paint0_linear_221_10021)"/>
<rect id="&#231;&#159;&#169;&#229;&#189;&#162; 220" width="8" height="96" fill="#D57FF0"/>
<path id="&#232;&#129;&#148;&#233;&#155;&#134; 18" fill-rule="evenodd" clip-rule="evenodd" d="M93.7887 68.6872C95.0015 68.7266 95.9679 69.725 95.9803 70.9512L95.9999 73.7016C96.0134 74.9689 94.9991 76.0028 93.7451 76H72.6407V63.5599H65.4634V75.9263H42.2548C41.016 75.929 40.0081 74.9192 40 73.6672V70.9365C39.9946 69.6733 41.0049 68.6456 42.2548 68.643H44.393L44.2909 25.5374H43.9848C42.7689 25.4844 41.8151 24.4639 41.832 23.234V22.2518C41.848 21.0048 42.8529 20.0024 44.0868 20.0025H91.9568C93.2443 19.9424 94.3206 20.9811 94.3206 22.2837C94.3206 23.5863 93.2443 24.625 91.9568 24.565H91.7089L91.6506 68.6283L93.7887 68.6872ZM76.12 39.9664L84.3178 31.7451L84.3032 31.7549C85.935 30.1231 85.935 27.459 84.3032 25.8271C82.6658 24.1919 80.0316 24.1919 78.3942 25.8271L70.2644 33.9797L69.1905 35.0602C69.1739 35.084 69.156 35.107 69.137 35.1289L70.483 36.4893L80.1387 26.7996C80.3726 26.5694 80.7454 26.5694 80.9794 26.7996C81.218 27.0314 81.218 27.4173 80.9794 27.6492L71.3334 37.3341L72.835 38.8467L82.4858 29.1618C82.7176 28.9263 83.0947 28.9263 83.3265 29.1618C83.5646 29.3919 83.5646 29.7763 83.3265 30.0065L73.6806 39.6914L75.0315 41.0518L75.0995 40.9928L76.12 39.9664ZM83.9971 59.4738C82.0513 61.4076 78.9307 61.4076 76.985 59.4738L59.0586 41.5037C58.2517 41.6125 57.4335 41.6042 56.6289 41.4792C54.8635 41.2067 53.2287 40.3763 51.9591 39.107C49.6326 36.7748 48.8722 33.2822 50.0153 30.1785L54.8747 35.0504C55.6287 35.7895 56.8274 35.7895 57.5814 35.0504L59.6369 32.9729C60.3823 32.2225 60.3823 31.0026 59.6369 30.2521L54.6706 25.2771C57.8325 23.9533 61.4715 24.6753 63.9035 27.109C65.2983 28.5063 66.159 30.3574 66.3332 32.3344C66.4013 33.1083 66.367 33.8879 66.2311 34.6526L83.9777 52.4508C85.9116 54.3876 85.9116 57.5467 83.9777 59.4836L83.9971 59.4738ZM57.6591 56.527L58.1791 54.0714L63.6653 48.5513L61.6584 46.5377L56.1479 52.0775L53.7182 52.5686L49.3107 59.2774L50.1416 60.1122L50.9726 60.9471L57.6591 56.527ZM78.8024 54.2935C77.7973 55.3036 77.7973 56.9473 78.8024 57.9573C79.8151 58.9684 81.444 58.9684 82.4567 57.9573C83.4646 56.9484 83.4646 55.3024 82.4567 54.2935C81.444 53.2824 79.8151 53.2824 78.8024 54.2935Z" fill="url(#paint1_linear_221_10021)"/>
</g>
<defs>
<linearGradient id="paint0_linear_221_10021" x1="19.3272" y1="107.603" x2="115.327" y2="108.949" gradientUnits="userSpaceOnUse">
<stop stop-color="#D57FF0" stop-opacity="0.4"/>
<stop offset="1" stop-color="#D57FF0" stop-opacity="0.1"/>
</linearGradient>
<linearGradient id="paint1_linear_221_10021" x1="40.0327" y1="20.0654" x2="40.0327" y2="76" gradientUnits="userSpaceOnUse">
<stop stop-color="white"/>
<stop offset="0.458271" stop-color="white"/>
<stop offset="1" stop-color="#D57EF0"/>
</linearGradient>
</defs>
</svg>
