<svg width="116" height="96" viewBox="0 0 116 96" fill="none" xmlns="http://www.w3.org/2000/svg">
<g id="icon">
<rect id="&#231;&#159;&#169;&#229;&#189;&#162; 217" x="20" width="96" height="96" fill="url(#paint0_linear_221_9999)"/>
<rect id="&#231;&#159;&#169;&#229;&#189;&#162; 220" width="8" height="96" fill="#7DD2F0"/>
<path id="&#232;&#183;&#175;&#229;&#190;&#132;" fill-rule="evenodd" clip-rule="evenodd" d="M92 62.0085V65.0789C92 66.5501 91.68 67.6375 91.68 67.6375C91.36 68.725 90.528 69.3646 90.528 69.3646C89.696 70.0043 88.032 70.0043 88.032 70.0043V73.9702C88.032 75.6333 86.848 76.8166 86.848 76.8166C85.664 78 84 78 84 78C82.336 78 81.184 76.8166 81.184 76.8166C80.032 75.6333 80.032 73.9702 80.032 73.9702V70.0043H55.968V73.9702C55.968 75.6333 54.816 76.8166 54.816 76.8166C53.664 78 52 78 52 78C50.336 78 49.152 76.8166 49.152 76.8166C47.968 75.6333 47.968 73.9702 47.968 73.9702V70.0043C46.368 70.0043 45.536 69.3646 45.536 69.3646C44.704 68.725 44.384 67.6375 44.384 67.6375C44.064 66.5501 44.032 65.1109 44.032 65.1109C44 63.6716 44 62.0085 44 62.0085V25.9957C44 24.3326 44.64 22.8934 44.64 22.8934C45.28 21.4542 46.368 20.3667 46.368 20.3667C47.456 19.2793 48.896 18.6397 48.896 18.6397C50.336 18 52 18 52 18H84C85.664 18 87.104 18.6397 87.104 18.6397C88.544 19.2793 89.632 20.3667 89.632 20.3667C90.72 21.4542 91.36 22.8934 91.36 22.8934C92 24.3326 92 25.9957 92 25.9957V62.0085ZM59.872 21.9659C59.04 21.9659 58.464 22.5416 58.464 22.5416C57.888 23.1173 57.888 23.9488 57.888 23.9488C57.888 24.8443 58.464 25.42 58.464 25.42C59.04 25.9957 59.872 25.9957 59.872 25.9957H76.128C76.96 25.9957 77.536 25.42 77.536 25.42C78.112 24.8443 78.112 23.9488 78.112 23.9488C78.112 23.1173 77.536 22.5416 77.536 22.5416C76.96 21.9659 76.128 21.9659 76.128 21.9659L59.872 21.9659ZM55.936 61.7846C55.936 61.7846 55.072 62.6482 53.856 62.6482C53.856 62.6482 52.576 62.6482 51.744 61.7846C51.744 61.7846 50.912 60.9211 50.912 59.7058C50.912 59.7058 50.912 58.4904 51.744 57.6269C51.744 57.6269 52.576 56.7633 53.856 56.7633C53.856 56.7633 55.072 56.7633 55.936 57.6269C55.936 57.6269 56.8 58.4904 56.8 59.7058C56.8 59.7058 56.8 60.9211 55.936 61.7846ZM81.888 62.5203C83.04 62.5203 83.84 61.6887 83.84 61.6887C84.64 60.8572 84.64 59.7058 84.64 59.7058C84.64 58.5544 83.84 57.7228 83.84 57.7228C83.04 56.8913 81.888 56.8913 81.888 56.8913C80.672 56.8913 79.872 57.7228 79.872 57.7228C79.072 58.5544 79.072 59.7058 79.072 59.7058C79.072 60.8572 79.872 61.6887 79.872 61.6887C80.672 62.5203 81.888 62.5203 81.888 62.5203ZM47.968 29.9616H88.032V45.9531H47.968V29.9616Z" fill="url(#paint1_linear_221_9999)"/>
</g>
<defs>
<linearGradient id="paint0_linear_221_9999" x1="19.3272" y1="107.603" x2="115.327" y2="108.949" gradientUnits="userSpaceOnUse">
<stop stop-color="#7ED2F0" stop-opacity="0.4"/>
<stop offset="1" stop-color="#7ED2F0" stop-opacity="0.1"/>
</linearGradient>
<linearGradient id="paint1_linear_221_9999" x1="56.1714" y1="48.4286" x2="56.1714" y2="78" gradientUnits="userSpaceOnUse">
<stop stop-color="white"/>
<stop offset="1" stop-color="#7ED2F0"/>
</linearGradient>
</defs>
</svg>
