<svg width="116" height="96" viewBox="0 0 116 96" fill="none" xmlns="http://www.w3.org/2000/svg">
<g id="icon">
<rect id="&#231;&#159;&#169;&#229;&#189;&#162; 217" x="20" width="96" height="96" fill="url(#paint0_linear_221_9985)"/>
<rect id="&#231;&#159;&#169;&#229;&#189;&#162; 220" width="8" height="96" fill="#FF916A"/>
<path id="&#232;&#129;&#148;&#233;&#155;&#134; 15" fill-rule="evenodd" clip-rule="evenodd" d="M67.2325 54.6942V26.1289C67.2325 24.6625 65.5106 23.6343 63.8687 24.1231L39.6885 31.27C38.6808 31.5678 38 32.3769 38 33.2759V69.814C38 70.9883 39.1346 71.9435 40.5295 71.9435H55.2258C56.6207 71.9435 57.7553 70.9883 57.7553 69.814V56.9417C57.7553 55.6999 58.9499 54.6942 60.4249 54.6942H67.2325ZM78.0445 54.6942V28.1236C78.0445 27.4549 77.5973 26.8481 76.8899 26.5503L71.7241 24.3759C70.3359 23.7916 68.7008 24.64 68.7008 25.9491V54.6942H78.0445ZM93.3949 54.7504H79.446V40.9791C79.446 40.3386 79.9066 39.7655 80.614 39.5239L90.8254 36.9224C92.0534 36.501 93.3949 37.2596 93.3949 38.3777V54.7504ZM94.1958 39.3216V54.7504H96.0645C97.099 54.7504 97.9333 54.0481 97.9333 53.1772V39.3216C97.9333 38.8159 97.6396 38.3383 97.1524 38.0405C95.911 37.2989 94.1958 38.0405 94.1958 39.3216ZM63.4283 58.0657H96.3915C97.2725 58.0657 97.9933 58.6669 98 59.4142V71.9944C98 71.9972 97.9983 71.9986 97.9967 71.9993C97.995 72 97.9933 72 97.9933 72H94.5362C94.2759 72 94.069 71.8202 94.069 71.6067C94.069 70.3032 92.8142 69.2469 91.2658 69.2469C89.7175 69.2469 88.4627 70.3032 88.4627 71.6067C88.4627 71.8258 88.2492 72 87.9955 72H73.1123C72.8521 72 72.6452 71.8258 72.6452 71.6067C72.6452 70.3032 71.3904 69.2469 69.842 69.2469C68.2937 69.2469 67.0389 70.3032 67.0389 71.6067V71.6123C67.0389 71.8258 66.832 72 66.5784 72H62.287C62.0334 72 61.8265 71.8258 61.8265 71.6123V59.4142C61.8265 58.6669 62.5406 58.0657 63.4283 58.0657ZM72.9722 65.6565C72.9722 65.87 72.7653 66.0442 72.5117 66.0442H66.7519C66.4983 66.0442 66.2914 65.87 66.2914 65.6565V61.819C66.2914 61.6055 66.4983 61.4313 66.7519 61.4313H72.5117C72.7653 61.4313 72.9722 61.6055 72.9722 61.819V65.6565ZM82.8565 66.0442C83.1101 66.0442 83.317 65.87 83.317 65.6565V61.819C83.317 61.6055 83.1101 61.4313 82.8565 61.4313H77.0968C76.8432 61.4313 76.6363 61.6055 76.6363 61.819V65.6565C76.6363 65.87 76.8432 66.0442 77.0968 66.0442H82.8565ZM93.6618 65.6565C93.6618 65.87 93.4549 66.0442 93.2013 66.0442H87.4416C87.188 66.0442 86.9811 65.87 86.9811 65.6565V61.819C86.9811 61.6055 87.188 61.4313 87.4416 61.4313H93.2013C93.4549 61.4313 93.6618 61.6055 93.6618 61.819V65.6565Z" fill="url(#paint1_linear_221_9985)"/>
</g>
<defs>
<linearGradient id="paint0_linear_221_9985" x1="19.3272" y1="107.603" x2="115.327" y2="108.949" gradientUnits="userSpaceOnUse">
<stop stop-color="#FF936C" stop-opacity="0.4"/>
<stop offset="1" stop-color="#FF916A" stop-opacity="0.1"/>
</linearGradient>
<linearGradient id="paint1_linear_221_9985" x1="52.7857" y1="47.6571" x2="52.7857" y2="72" gradientUnits="userSpaceOnUse">
<stop stop-color="white"/>
<stop offset="1" stop-color="#FF926C"/>
</linearGradient>
</defs>
</svg>
