<svg width="116" height="96" viewBox="0 0 116 96" fill="none" xmlns="http://www.w3.org/2000/svg">
<g id="icon">
<rect id="&#231;&#159;&#169;&#229;&#189;&#162; 217" x="20" width="96" height="96" fill="url(#paint0_linear_221_10032)"/>
<rect id="&#231;&#159;&#169;&#229;&#189;&#162; 220" width="8" height="95.811" fill="#7F99F0"/>
<path id="&#232;&#183;&#175;&#229;&#190;&#132;" fill-rule="evenodd" clip-rule="evenodd" d="M68 20C75.4788 20 82.5105 22.912 87.7988 28.2021L87.7988 28.2012C93.088 33.4895 96 40.5212 96 48C96 55.4788 93.088 62.5105 87.7988 67.7988C82.5105 73.088 75.4788 76 68 76C60.5212 76 53.4895 73.088 48.2012 67.7988C42.912 62.5105 40 55.4788 40 48C40 40.5212 42.912 33.4895 48.2012 28.2012C53.4895 22.912 60.5212 20 68 20ZM68 25.3835C78.8547 25.3835 87.9472 33.0713 90.1219 43.2876C88.6323 42.6585 86.8981 42.0948 84.9671 41.6123L84.9521 41.6085C80.2453 40.4316 74.3728 39.7325 68 39.7325C61.6272 39.7325 55.7547 40.4316 51.0479 41.6085L51.0329 41.6113C49.1019 42.0939 47.3677 42.6576 45.8781 43.2867C48.0528 33.0704 57.1453 25.3825 68 25.3825V25.3835ZM68.0009 51.5734C69.9741 51.5734 71.5732 49.9731 71.5719 48C71.5705 46.0288 69.9721 44.4315 68.0009 44.4315C66.0297 44.4315 64.4314 46.0288 64.43 48C64.4286 49.9731 66.0278 51.5734 68.0009 51.5734ZM54.3313 59.8907C54.1615 61.7051 53.51 63.3104 52.4749 64.4313C48.3589 60.5393 45.6989 55.1223 45.4096 49.0939C47.0308 48.6925 48.7435 49.1592 50.2349 50.2512V50.2521C51.8328 51.4235 53.1768 53.3163 53.8796 55.6468C54.3192 57.1028 54.4555 58.5532 54.3304 59.8907H54.3313ZM83.5246 64.4309L83.5251 64.4313H83.5241L83.5246 64.4309ZM83.5246 64.4309C82.4889 63.3099 81.8385 61.7048 81.6696 59.8907C81.5445 58.5532 81.6808 57.1019 82.1195 55.6468C82.8232 53.3163 84.1672 51.4235 85.7641 50.2521C87.2565 49.1583 88.9692 48.6935 90.5895 49.0948C90.302 55.122 87.6422 60.5389 83.5246 64.4309ZM57.5495 68.0536C60.6771 69.6897 64.2321 70.6175 68 70.6175C71.6397 70.6216 75.226 69.7417 78.4505 68.0536C78.4505 68.0508 77.9895 65.3721 74.5371 63.6744C72.4959 64.1644 70.2951 64.4313 68 64.4313C65.7049 64.4313 63.5041 64.1644 61.462 63.6744C58.0105 65.3721 57.5495 68.0508 57.5495 68.0536Z" fill="url(#paint1_linear_221_10032)"/>
</g>
<defs>
<linearGradient id="paint0_linear_221_10032" x1="19.3272" y1="107.603" x2="115.327" y2="108.949" gradientUnits="userSpaceOnUse">
<stop stop-color="#7F99F0" stop-opacity="0.4"/>
<stop offset="1" stop-color="#7F99F0" stop-opacity="0.1"/>
</linearGradient>
<linearGradient id="paint1_linear_221_10032" x1="54" y1="48" x2="54" y2="76" gradientUnits="userSpaceOnUse">
<stop stop-color="white"/>
<stop offset="1" stop-color="#7E99F0"/>
</linearGradient>
</defs>
</svg>
