<svg xmlns="http://www.w3.org/2000/svg" xmlns:xlink="http://www.w3.org/1999/xlink" fill="none" version="1.1" width="41.4764289855957" height="41.238250732421875" viewBox="0 0 41.4764289855957 41.238250732421875"><defs><clipPath id="master_svg0_62_05631"><rect x="0" y="0" width="41.4764289855957" height="41.238250732421875" rx="0"/></clipPath><linearGradient x1="0.5" y1="0" x2="0.5" y2="1" id="master_svg1_1_02239"><stop offset="0%" stop-color="#E4F7FF" stop-opacity="1"/><stop offset="100%" stop-color="#B2E8FF" stop-opacity="1"/></linearGradient></defs><g><g clip-path="url(#master_svg0_62_05631)"><g><path d="M30.99515390625,27.776601171875L38.49105390625,35.229301171875C39.33505390625,36.068801171874995,39.33475390625,37.429601171875,38.49045390625,38.268801171875C37.64615390625,39.108001171875,36.27745390625,39.107701171875,35.43345390625,38.268201171875L27.93765390625,30.815401171875C25.45995390625,32.636601171875,22.45905390625,33.617401171875,19.37775390625,33.613101171875C11.40693390625,33.611901171875004,4.94775390625,27.187601171875,4.94775390625,19.264701171875C4.94775390625,11.340781171875001,11.40807390625,4.918701171875,19.37775390625,4.918701171875C27.34635390625,4.918701171875,33.80675390625,11.341911171875001,33.80675390625,19.265901171875C33.811753906250004,22.329101171875,32.826053906249996,25.312801171875,30.99515390625,27.776601171875ZM19.37775390625,29.313601171875C25.00125390625,29.372901171875,29.59195390625,24.856801171875,29.59195390625,19.265301171875002C29.59195390625,13.673821171875,25.00125390625,9.157731171875,19.37775390625,9.217081171875C13.83810390625,9.275541171875,9.37822390625,13.757121171875,9.37822390625,19.265301171875002C9.37822390625,24.773501171875,13.83810390625,29.255101171875,19.37775390625,29.313601171875Z" fill="url(#master_svg1_1_02239)" fill-opacity="1"/></g></g></g></svg>