<svg width="71" height="94" viewBox="0 0 71 94" fill="none" xmlns="http://www.w3.org/2000/svg">
<g id="&#231;&#188;&#150;&#231;&#187;&#132; 8">
<rect id="&#231;&#159;&#169;&#229;&#189;&#162;" x="0.601562" width="69.8991" height="93.9999" fill="url(#paint0_linear_212_9356)"/>
<rect id="&#231;&#159;&#169;&#229;&#189;&#162;_2" x="0.601562" width="69.8991" height="93.9999" fill="url(#paint1_linear_212_9356)"/>
<rect id="&#231;&#159;&#169;&#229;&#189;&#162;_3" x="0.601562" width="2.21902" height="8.54544" fill="#4F94E6"/>
<rect id="&#231;&#159;&#169;&#229;&#189;&#162;_4" x="0.601562" width="10.5908" height="2.98412" fill="#4F94E6"/>
<rect id="&#231;&#159;&#169;&#229;&#189;&#162;_5" x="0.601562" y="13.6729" width="2.21902" height="68.3636" fill="#4F94E6"/>
<rect id="&#231;&#159;&#169;&#229;&#189;&#162;_6" x="68.3828" y="13.6729" width="2.21902" height="68.3636" fill="#4F94E6"/>
<rect id="&#231;&#159;&#169;&#229;&#189;&#162;_7" width="2.21902" height="8.54544" transform="matrix(-1 0 0 1 70.6016 0)" fill="#4F94E6"/>
<rect id="&#231;&#159;&#169;&#229;&#189;&#162;_8" width="10.5908" height="2.98412" transform="matrix(-1 0 0 1 70.5 0)" fill="#4F94E6"/>
<rect id="&#231;&#159;&#169;&#229;&#189;&#162;_9" width="2.11816" height="8.54544" transform="matrix(1 0 0 -1 0.601562 92.5083)" fill="#4F94E6"/>
<rect id="&#231;&#159;&#169;&#229;&#189;&#162;_10" width="10.5908" height="2.98412" transform="matrix(1 0 0 -1 0.601562 93.7832)" fill="#4F94E6"/>
<rect id="&#231;&#159;&#169;&#229;&#189;&#162;_11" width="40.245" height="2.98412" transform="matrix(1 0 0 -1 15.4297 93.7832)" fill="#4F94E6"/>
<rect id="&#231;&#159;&#169;&#229;&#189;&#162;_12" width="40.245" height="2.98412" transform="matrix(1 0 0 -1 15.4297 2.98389)" fill="#4F94E6"/>
<rect id="&#231;&#159;&#169;&#229;&#189;&#162;_13" x="70.5" y="92.5083" width="2.11816" height="8.54544" transform="rotate(180 70.5 92.5083)" fill="#4F94E6"/>
<rect id="&#231;&#159;&#169;&#229;&#189;&#162;_14" x="70.5" y="93.7827" width="10.5908" height="2.98412" transform="rotate(180 70.5 93.7827)" fill="#4F94E6"/>
</g>
<defs>
<linearGradient id="paint0_linear_212_9356" x1="84.906" y1="93.9999" x2="84.906" y2="-38.7444" gradientUnits="userSpaceOnUse">
<stop stop-color="#3662A4"/>
<stop offset="0.477344" stop-color="#213B65"/>
<stop offset="1" stop-color="#0A101F"/>
</linearGradient>
<linearGradient id="paint1_linear_212_9356" x1="69.1816" y1="93.9999" x2="69.1816" y2="3.54794" gradientUnits="userSpaceOnUse">
<stop stop-color="#3662A4"/>
<stop offset="0.503256" stop-color="#0A1A42"/>
<stop offset="1" stop-color="#3662A4"/>
</linearGradient>
</defs>
</svg>
