<svg width="708" height="66" viewBox="0 0 708 66" fill="none" xmlns="http://www.w3.org/2000/svg">
<g id="&#229;&#176;&#143;&#230;&#160;&#135;&#233;&#162;&#152;&#232;&#131;&#140;&#230;&#153;&#175;">
<path id="Rectangle 34624749" d="M0 1H508L470 65H0V1Z" fill="url(#paint0_linear_212_9380)"/>
<g id="&#230;&#176;&#180;&#232;&#183;&#175;&#232;&#191;&#144;&#232;&#190;&#147;" filter="url(#filter0_d_212_9380)">
<path d="M39.2 19.256L30.128 44.792H21.008L28.496 23.816H24.416L25.04 19.256H39.2ZM32.432 47.432L36.8 42.968L40.736 14.696L39.2 12.872H50.144L45.728 44.264C45.6 45.16 45.152 45.912 44.384 46.52C43.648 47.128 42.816 47.432 41.888 47.432H32.432ZM63.152 17.432L59.552 23.816L62.048 44.792H52.928L50.432 23.816L54.032 17.432H63.152ZM76.8282 29.864L75.0522 42.488L76.5402 42.296L78.6522 27.32H73.2282L75.1482 13.784H89.7403L87.8202 27.32H85.3722L84.8923 30.92H87.5802L86.9563 35.096H84.2682L83.3562 41.576L86.7162 41.24L86.0923 45.704L69.5322 47.336L70.1562 42.968L70.9242 42.92L72.7962 29.864H76.8282ZM103.852 31.448L100.588 28.904L96.8923 31.448H88.0603L88.6842 27.176H94.9723L97.6122 25.16L95.7882 23.72L95.6923 23.864H88.5882L94.2043 14.072L93.1962 12.872H102.076L101.02 14.648H112.492L111.82 19.688L104.428 25.448L106.636 27.176H112.444L111.82 31.448H103.852ZM109.996 32.84L108.076 46.568H87.7723L89.6922 32.84H109.996ZM101.644 42.296L102.412 37.112H96.0282L95.2603 42.296H101.644ZM80.3802 17.384L79.4682 23.864H82.5403L83.4523 17.384H80.3802ZM98.7643 18.536L98.2842 19.352L101.212 21.608L105.196 18.536H98.7643ZM119.64 46.616L122.136 41.864L124.392 25.64H122.568L123.24 21.08H133.272L130.584 40.088L137.16 42.056H159.481L158.857 46.616H133.32L128.568 45.224L127.848 46.616H119.64ZM156.601 30.2L157.945 40.232H150.649L150.457 38.984L133.368 39.8L133.944 35.672L138.36 27.464H134.184L134.808 22.904H160.345L159.721 27.464H147.481L143.305 35.24L149.929 34.952L149.305 30.2H156.601ZM159.816 13.832L159.192 18.344H137.304L137.928 13.832H159.816ZM131.544 13.784L133.512 19.256H126.216L124.248 13.784H131.544ZM170.421 28.184L172.917 20.84H170.901L171.525 16.376H174.453L175.173 14.36L174.693 12.92H180.453L179.301 16.376H186.549L185.925 20.84H177.765L175.317 28.136H176.997L177.813 22.424H182.469L181.653 28.136H184.293L183.621 32.744H180.981L180.549 35.864L183.189 35.432L182.517 40.232L179.877 40.664L178.917 47.384H173.253L174.069 41.672L167.589 42.728L168.261 37.928L174.741 36.872L175.317 32.744H169.749L170.421 28.184ZM188.517 47.384L190.389 45.176L190.869 41.576H188.325L187.509 47.384H182.517L185.589 25.688H198.117L195.477 44.408C195.349 45.272 195.029 45.992 194.517 46.568C194.005 47.112 193.429 47.384 192.789 47.384H188.517ZM190.005 14.312L188.997 13.016H207.333L210.309 24.632H203.973L202.917 17.336H194.997L191.493 24.632H184.821L190.005 14.312ZM198.309 47.384L202.053 43.4L204.597 25.496H210.069L207.429 44.216C207.301 45.112 206.869 45.864 206.133 46.472C205.429 47.08 204.613 47.384 203.685 47.384H198.309ZM203.493 26.792L201.285 42.392H196.677L198.885 26.792H203.493ZM203.349 20.984L202.821 24.824H192.789L193.317 20.984H203.349ZM188.805 38.168H191.349L191.733 35.48H189.189L188.805 38.168ZM189.669 31.976H192.213L192.597 29.384H190.053L189.669 31.976Z" fill="white"/>
</g>
<path id="Vector 3873" d="M222 45H494L516 12H657" stroke="url(#paint1_linear_212_9380)" stroke-width="2"/>
<g id="Group 1321316691">
<g id="Group 1321316688">
<rect id="Rectangle 34624750" x="392" y="63" width="12" height="2.8" fill="url(#paint2_linear_212_9380)"/>
<path id="Vector 3870" d="M437 1L394 63" stroke="#1D578C" stroke-width="2" stroke-linecap="round"/>
</g>
<g id="Group 1321316689">
<rect id="Rectangle 34624751" x="410" y="63" width="12" height="2.8" fill="url(#paint3_linear_212_9380)"/>
<path id="Vector 3871" d="M455 1L412 63" stroke="#2F6AB4" stroke-width="2" stroke-linecap="round" stroke-linejoin="round"/>
</g>
<g id="Group 1321316690">
<rect id="Rectangle 34624752" x="428" y="63" width="12" height="2.8" fill="url(#paint4_linear_212_9380)"/>
<path id="Vector 3872" d="M429.178 62.4301C428.864 62.8839 428.976 63.507 429.43 63.8217C429.884 64.1365 430.507 64.0237 430.822 63.5699L429.178 62.4301ZM472.178 0.430101L429.178 62.4301L430.822 63.5699L473.822 1.5699L472.178 0.430101Z" fill="#1F588F"/>
</g>
</g>
<g id="Vector">
<path d="M530 21H536V33H530V21Z" fill="url(#paint5_linear_212_9380)"/>
<path d="M548 21H554V33H548V21Z" fill="url(#paint6_linear_212_9380)"/>
<path d="M566 21H572V33H566V21Z" fill="url(#paint7_linear_212_9380)"/>
</g>
</g>
<defs>
<filter id="filter0_d_212_9380" x="13.0078" y="12.8721" width="205.301" height="50.5598" filterUnits="userSpaceOnUse" color-interpolation-filters="sRGB">
<feFlood flood-opacity="0" result="BackgroundImageFix"/>
<feColorMatrix in="SourceAlpha" type="matrix" values="0 0 0 0 0 0 0 0 0 0 0 0 0 0 0 0 0 0 127 0" result="hardAlpha"/>
<feOffset dy="8"/>
<feGaussianBlur stdDeviation="4"/>
<feComposite in2="hardAlpha" operator="out"/>
<feColorMatrix type="matrix" values="0 0 0 0 0 0 0 0 0 0 0 0 0 0 0 0 0 0 0.25 0"/>
<feBlend mode="normal" in2="BackgroundImageFix" result="effect1_dropShadow_212_9380"/>
<feBlend mode="normal" in="SourceGraphic" in2="effect1_dropShadow_212_9380" result="shape"/>
</filter>
<linearGradient id="paint0_linear_212_9380" x1="318" y1="1" x2="318" y2="65" gradientUnits="userSpaceOnUse">
<stop stop-color="#156E9E"/>
<stop offset="1" stop-color="#156E9E" stop-opacity="0"/>
</linearGradient>
<linearGradient id="paint1_linear_212_9380" x1="382" y1="28.5" x2="654" y2="34" gradientUnits="userSpaceOnUse">
<stop stop-color="#17517B" stop-opacity="0.2"/>
<stop offset="0.51" stop-color="#17517B"/>
<stop offset="1" stop-color="#17517B" stop-opacity="0.2"/>
</linearGradient>
<linearGradient id="paint2_linear_212_9380" x1="392" y1="64.4" x2="404" y2="64.4" gradientUnits="userSpaceOnUse">
<stop stop-color="#173F6B"/>
<stop offset="1" stop-color="#173F6B" stop-opacity="0.1"/>
</linearGradient>
<linearGradient id="paint3_linear_212_9380" x1="410" y1="64.4" x2="422" y2="64.4" gradientUnits="userSpaceOnUse">
<stop stop-color="#234C89"/>
<stop offset="1" stop-color="#234C89" stop-opacity="0.1"/>
</linearGradient>
<linearGradient id="paint4_linear_212_9380" x1="428" y1="64.4" x2="440" y2="64.4" gradientUnits="userSpaceOnUse">
<stop stop-color="#173F6B"/>
<stop offset="1" stop-color="#173F6B" stop-opacity="0.1"/>
</linearGradient>
<linearGradient id="paint5_linear_212_9380" x1="530" y1="27" x2="572" y2="27" gradientUnits="userSpaceOnUse">
<stop stop-color="#D6D7D9"/>
<stop offset="1" stop-color="#D6D7D9" stop-opacity="0.1"/>
</linearGradient>
<linearGradient id="paint6_linear_212_9380" x1="530" y1="27" x2="572" y2="27" gradientUnits="userSpaceOnUse">
<stop stop-color="#D6D7D9"/>
<stop offset="1" stop-color="#D6D7D9" stop-opacity="0.1"/>
</linearGradient>
<linearGradient id="paint7_linear_212_9380" x1="530" y1="27" x2="572" y2="27" gradientUnits="userSpaceOnUse">
<stop stop-color="#D6D7D9"/>
<stop offset="1" stop-color="#D6D7D9" stop-opacity="0.1"/>
</linearGradient>
</defs>
</svg>
