<svg width="210" height="186" viewBox="0 0 210 186" fill="none" xmlns="http://www.w3.org/2000/svg">
<g id="icon">
<g id="Ellipse 2340">
<circle cx="102" cy="92" r="79" fill="#2D414D" fill-opacity="0.2"/>
<circle cx="102" cy="92" r="77.5" stroke="#3EABFF" stroke-opacity="0.2" stroke-width="3"/>
</g>
<circle id="Ellipse 2341" cx="102" cy="92" r="60.5" fill="url(#paint0_radial_212_9412)" fill-opacity="0.95" stroke="url(#paint1_linear_212_9412)" stroke-width="3"/>
<g id="Ellipse 2342" opacity="0.6" filter="url(#filter0_d_212_9412)">
<ellipse cx="102.5" cy="74" rx="48.5" ry="39" fill="url(#paint2_linear_212_9412)"/>
</g>
<g id="&#232;&#183;&#175;&#229;&#190;&#132;" filter="url(#filter1_ddi_212_9412)">
<path fill-rule="evenodd" clip-rule="evenodd" d="M90.8501 74.7323C86.0301 75.6607 81.9901 76.7226 77.3901 78.5747L77.3901 67.7473H74.845V64.4287H106.72V67.7475H104.35V78.6366C99.7001 76.713 95.7501 75.6226 90.8501 74.7323ZM89.835 116.285C90.285 105.124 89.875 92.3016 88.94 78.1176C80.555 79.7554 72.69 83.736 65.67 87.3451C67.0378 90.2834 68.6766 93.192 70.3154 96.1009C73.5949 101.922 76.8748 107.743 77.985 113.804C81.57 115.351 86.12 116.142 89.835 116.285ZM119.52 100.596C119.06 100.41 118.545 100.625 118.355 101.082C118.16 101.539 118.37 102.058 118.83 102.243L125.395 104.986C125.85 105.181 126.365 104.957 126.55 104.5L132.955 89.1116C133.145 88.664 132.915 88.1308 132.465 87.9451C132.015 87.7594 131.49 87.9736 131.295 88.4308L125.25 102.996L119.52 100.596ZM129 101.077C129.23 100.991 129.475 100.929 129.72 100.891L129.786 100.885L129.871 100.878C129.927 100.873 129.983 100.868 130.035 100.863H130.37C132.185 100.948 133.63 102.415 133.7 104.239V104.343C133.7 104.51 133.7 104.667 133.66 104.838H136.52L136.51 104.73C136.497 104.602 136.485 104.477 136.485 104.343V104.238C136.565 102.358 138.1 100.853 140 100.853C140.19 100.853 140.39 100.872 140.58 100.91C140.77 100.939 140.945 100.986 141.12 101.048C141.345 101.125 141.57 101.215 141.765 101.339V92.497C141.765 92.1732 141.5 91.9018 141.17 91.9018H133.155C132.885 91.9018 132.67 92.078 132.595 92.3209L129 101.077ZM140.58 93.0969H137.47V98.1106H140.58V93.0969ZM133.57 93.0969H136.32V98.1106H131.515L133.57 93.0969ZM110.624 116.533C110.632 116.496 110.64 116.46 110.65 116.423C112.69 117.565 114.895 117.537 117.235 116.423V116.989L117.227 116.968C117.22 116.948 117.213 116.927 117.205 116.899C116.005 119.194 111.675 119.165 110.58 116.704C110.598 116.646 110.611 116.589 110.624 116.533ZM140.865 107.033C142.005 106.671 142.825 105.605 142.825 104.348C142.825 102.8 141.555 101.529 140.005 101.529C138.44 101.529 137.185 102.8 137.185 104.348C137.185 105.6 137.985 106.671 139.12 107.033H131.09C132.23 106.671 133.05 105.605 133.05 104.348C133.05 102.8 131.77 101.529 130.22 101.529C128.655 101.529 127.4 102.8 127.4 104.348C127.4 105.6 128.22 106.671 129.35 107.033H113.325V112.737H119.62V119.227H145V107.033H140.865ZM98.9 116.432V116.423C103.04 118.394 106.905 118.432 110.475 116.423C110.502 116.533 110.524 116.644 110.546 116.754C110.557 116.81 110.568 116.867 110.58 116.923C108.665 121.275 100.89 121.294 98.895 117.137V117.394C96.215 122.965 85.9 123.003 83.17 117.275C81.08 121.279 73.52 121.246 71.57 116.985C70.32 119.194 66.065 119.141 65 116.704C65.0089 116.647 65.023 116.593 65.0372 116.538C65.047 116.5 65.0568 116.462 65.065 116.423C67.1 117.565 69.305 117.537 71.655 116.423C75.235 118.432 79.1 118.394 83.24 116.423C88.08 119.137 93.3 119.084 98.9 116.432ZM115.48 98.0725C115.55 98.2391 115.685 98.3725 115.85 98.4534L123.905 101.829C124.08 101.896 124.255 101.886 124.425 101.829V101.824H124.435C124.6 101.753 124.73 101.639 124.81 101.463L128.04 93.7301C128.125 93.5634 128.105 93.3683 128.04 93.2111V93.1968C127.97 93.0397 127.845 92.9016 127.67 92.8302L119.62 89.4544C119.45 89.3782 119.265 89.3878 119.1 89.4544C118.935 89.5211 118.79 89.6497 118.72 89.8258L115.49 97.5582C115.405 97.7249 115.41 97.9058 115.48 98.0725ZM122.5 91.954L119.62 90.7448L116.765 97.5438L123.905 100.524L126.745 93.7348L123.875 92.5397L123.005 94.6299L121.62 94.0538L122.5 91.954ZM95.71 69.1043H102.59V72.4278H95.71L95.71 69.1043ZM94.22 69.1043H87.345V72.4278H94.22V69.1043ZM78.94 69.1043H85.815V72.4278H78.94L78.94 69.1043ZM103.795 113.804C99.99 115.166 95.035 116.004 91.325 116.228C91.055 103.643 91.6 90.8971 92.51 78.0509C99.6566 79.3618 106.527 82.6982 113.042 85.8616C114.076 86.3633 115.1 86.8608 116.115 87.345C114.747 90.2797 113.11 93.1849 111.473 96.0901C108.191 101.915 104.909 107.74 103.795 113.804ZM94.72 97.1487L95.075 96.9915C95.1309 97.0303 95.1842 97.0727 95.2381 97.1157C95.2904 97.1573 95.3434 97.1994 95.4 97.2393C95.5597 97.3718 95.7214 97.5019 95.885 97.6296C96.085 97.782 96.285 97.9486 96.455 98.1439C96.595 98.2867 96.795 98.52 96.69 98.7343C96.615 98.8914 96.435 98.9199 96.24 98.9009C96.865 99.9628 98.3 100.558 99.47 100.805V95.4728H98.2C98.05 95.6109 97.85 95.6918 97.645 95.6918C97.2 95.6918 96.84 95.3442 96.84 94.8919C96.84 94.4538 97.195 94.1015 97.645 94.1015C97.9 94.1015 98.155 94.2301 98.295 94.4349H99.47V93.792C98.9009 93.5403 98.5342 92.9763 98.535 92.3541C98.535 91.8351 98.795 91.3685 99.185 91.078C98.215 90.6447 97.615 89.545 97.805 88.3546C98.02 86.9166 99.275 85.8929 100.605 86.0691C101.945 86.2357 102.845 87.5404 102.62 88.9688C102.475 89.9354 101.85 90.7258 101.045 91.0732C101.44 91.3638 101.69 91.8256 101.69 92.359C101.69 92.9731 101.34 93.5206 100.79 93.7873V94.4396H101.985C102.139 94.2292 102.384 94.1052 102.645 94.1063C103.09 94.1063 103.44 94.4586 103.44 94.8967C103.44 95.349 103.09 95.7014 102.645 95.7014C102.43 95.7014 102.23 95.6109 102.08 95.4775H100.795V100.825C101.985 100.567 103.465 99.9722 104.095 98.901C103.91 98.92 103.72 98.8914 103.645 98.7343C103.545 98.52 103.74 98.2868 103.875 98.1487C104.05 97.9535 104.255 97.7868 104.455 97.6392L104.581 97.5338C104.696 97.4374 104.813 97.3393 104.93 97.2488C104.98 97.2079 105.03 97.17 105.081 97.1324C105.142 97.0867 105.202 97.0412 105.26 96.9916L105.615 97.1488C105.615 97.2966 105.618 97.4444 105.62 97.5933C105.624 97.7946 105.628 97.9979 105.625 98.2058L105.625 98.2084C105.62 98.4598 105.615 98.7162 105.58 98.9676C105.55 99.1581 105.495 99.4581 105.26 99.5057C105.12 99.5342 105.01 99.4581 104.925 99.3485C104.535 100.268 103.91 100.967 103.035 101.524C102.46 101.884 101.846 102.138 101.23 102.392C100.941 102.512 100.651 102.632 100.365 102.762L100.17 102.848L99.975 102.762C99.6935 102.634 99.4101 102.518 99.1276 102.401C98.507 102.145 97.8907 101.891 97.31 101.524C96.425 100.967 95.81 100.268 95.41 99.3486C95.32 99.4581 95.22 99.5343 95.08 99.5057C94.8479 99.4587 94.7963 99.1702 94.7613 98.9749L94.76 98.9676C94.725 98.7153 94.72 98.4581 94.72 98.2058C94.71 97.964 94.7134 97.7286 94.7167 97.4953C94.7183 97.3794 94.72 97.264 94.72 97.1487ZM100.12 92.9683C99.7831 92.9683 99.51 92.6933 99.51 92.354C99.51 92.0148 99.7831 91.7398 100.12 91.7398C100.457 91.7398 100.73 92.0148 100.73 92.354C100.73 92.6933 100.457 92.9683 100.12 92.9683Z" fill="url(#paint3_linear_212_9412)"/>
</g>
</g>
<defs>
<filter id="filter0_d_212_9412" x="9.9" y="6.9" width="185.2" height="166.2" filterUnits="userSpaceOnUse" color-interpolation-filters="sRGB">
<feFlood flood-opacity="0" result="BackgroundImageFix"/>
<feColorMatrix in="SourceAlpha" type="matrix" values="0 0 0 0 0 0 0 0 0 0 0 0 0 0 0 0 0 0 127 0" result="hardAlpha"/>
<feOffset dy="16"/>
<feGaussianBlur stdDeviation="22.05"/>
<feComposite in2="hardAlpha" operator="out"/>
<feColorMatrix type="matrix" values="0 0 0 0 0 0 0 0 0 0.136643 0 0 0 0 0.186985 0 0 0 1 0"/>
<feBlend mode="normal" in2="BackgroundImageFix" result="effect1_dropShadow_212_9412"/>
<feBlend mode="normal" in="SourceGraphic" in2="effect1_dropShadow_212_9412" result="shape"/>
</filter>
<filter id="filter1_ddi_212_9412" x="0.677193" y="0.105904" width="208.646" height="185.788" filterUnits="userSpaceOnUse" color-interpolation-filters="sRGB">
<feFlood flood-opacity="0" result="BackgroundImageFix"/>
<feColorMatrix in="SourceAlpha" type="matrix" values="0 0 0 0 0 0 0 0 0 0 0 0 0 0 0 0 0 0 127 0" result="hardAlpha"/>
<feOffset/>
<feGaussianBlur stdDeviation="32.1614"/>
<feComposite in2="hardAlpha" operator="out"/>
<feColorMatrix type="matrix" values="0 0 0 0 0.254902 0 0 0 0 0.482353 0 0 0 0 1 0 0 0 0.77 0"/>
<feBlend mode="normal" in2="BackgroundImageFix" result="effect1_dropShadow_212_9412"/>
<feColorMatrix in="SourceAlpha" type="matrix" values="0 0 0 0 0 0 0 0 0 0 0 0 0 0 0 0 0 0 127 0" result="hardAlpha"/>
<feOffset dy="34.5735"/>
<feGaussianBlur stdDeviation="10.8545"/>
<feComposite in2="hardAlpha" operator="out"/>
<feColorMatrix type="matrix" values="0 0 0 0 0.709804 0 0 0 0 0.835294 0 0 0 0 0.972549 0 0 0 0.06 0"/>
<feBlend mode="normal" in2="effect1_dropShadow_212_9412" result="effect2_dropShadow_212_9412"/>
<feBlend mode="normal" in="SourceGraphic" in2="effect2_dropShadow_212_9412" result="shape"/>
<feColorMatrix in="SourceAlpha" type="matrix" values="0 0 0 0 0 0 0 0 0 0 0 0 0 0 0 0 0 0 127 0" result="hardAlpha"/>
<feOffset/>
<feGaussianBlur stdDeviation="0.402018"/>
<feComposite in2="hardAlpha" operator="arithmetic" k2="-1" k3="1"/>
<feColorMatrix type="matrix" values="0 0 0 0 1 0 0 0 0 1 0 0 0 0 1 0 0 0 0.7 0"/>
<feBlend mode="normal" in2="shape" result="effect3_innerShadow_212_9412"/>
</filter>
<radialGradient id="paint0_radial_212_9412" cx="0" cy="0" r="1" gradientUnits="userSpaceOnUse" gradientTransform="translate(102 104.5) rotate(90) scale(42.5 150.992)">
<stop stop-color="#002533"/>
<stop offset="1" stop-color="#002C6A"/>
</radialGradient>
<linearGradient id="paint1_linear_212_9412" x1="102" y1="30" x2="102" y2="154" gradientUnits="userSpaceOnUse">
<stop stop-color="#00608B"/>
<stop offset="1" stop-color="#39ACFF"/>
</linearGradient>
<linearGradient id="paint2_linear_212_9412" x1="102.5" y1="35" x2="103" y2="103.5" gradientUnits="userSpaceOnUse">
<stop stop-color="#4E9EDD"/>
<stop offset="1" stop-color="#002237"/>
</linearGradient>
<linearGradient id="paint3_linear_212_9412" x1="105" y1="64.4287" x2="105" y2="121.572" gradientUnits="userSpaceOnUse">
<stop stop-color="#EBF1F7"/>
<stop offset="1" stop-color="#4D9EFF"/>
</linearGradient>
</defs>
</svg>
