<svg width="187" height="176" viewBox="0 0 187 176" fill="none" xmlns="http://www.w3.org/2000/svg">
<g id="Frame 1321316595">
<g id="Ellipse 2340">
<circle cx="93" cy="86" r="79" fill="#2D414D" fill-opacity="0.2"/>
<circle cx="93" cy="86" r="77.5" stroke="#3EABFF" stroke-opacity="0.2" stroke-width="3"/>
</g>
<circle id="Ellipse 2341" cx="93" cy="86" r="60.5" fill="url(#paint0_radial_221_10076)" fill-opacity="0.95" stroke="url(#paint1_linear_221_10076)" stroke-width="3"/>
<g id="Ellipse 2342" opacity="0.6" filter="url(#filter0_d_221_10076)">
<ellipse cx="93.5" cy="68" rx="48.5" ry="39" fill="url(#paint2_linear_221_10076)"/>
</g>
<g id="&#232;&#183;&#175;&#229;&#190;&#132;" filter="url(#filter1_d_221_10076)">
<path fill-rule="evenodd" clip-rule="evenodd" d="M126 91.5729L80.2 59H75L67.8 71.2118V75.2847L108.8 104L112.2 103.573L126 91.5729ZM72.4 91.5729L66 90.5V119L72.4 116.642V106.788H82.6L87 99.5035L81.4 95.8612L78.8 100.788H72.4V91.5729ZM67.8 84.2847V77.8576C67.8 77.8576 109.2 106.785 111 108.285C111.4 108.285 116.6 104.215 116.6 104.215L114.8 110.427L113 112.573H109.2L67.8 84.2847Z" fill="url(#paint3_linear_221_10076)"/>
</g>
</g>
<defs>
<filter id="filter0_d_221_10076" x="0.900002" y="0.900002" width="185.2" height="166.2" filterUnits="userSpaceOnUse" color-interpolation-filters="sRGB">
<feFlood flood-opacity="0" result="BackgroundImageFix"/>
<feColorMatrix in="SourceAlpha" type="matrix" values="0 0 0 0 0 0 0 0 0 0 0 0 0 0 0 0 0 0 127 0" result="hardAlpha"/>
<feOffset dy="16"/>
<feGaussianBlur stdDeviation="22.05"/>
<feComposite in2="hardAlpha" operator="out"/>
<feColorMatrix type="matrix" values="0 0 0 0 0 0 0 0 0 0.136643 0 0 0 0 0.186985 0 0 0 1 0"/>
<feBlend mode="normal" in2="BackgroundImageFix" result="effect1_dropShadow_221_10076"/>
<feBlend mode="normal" in="SourceGraphic" in2="effect1_dropShadow_221_10076" result="shape"/>
</filter>
<filter id="filter1_d_221_10076" x="44.2911" y="59" width="103.418" height="116.282" filterUnits="userSpaceOnUse" color-interpolation-filters="sRGB">
<feFlood flood-opacity="0" result="BackgroundImageFix"/>
<feColorMatrix in="SourceAlpha" type="matrix" values="0 0 0 0 0 0 0 0 0 0 0 0 0 0 0 0 0 0 127 0" result="hardAlpha"/>
<feOffset dy="34.5735"/>
<feGaussianBlur stdDeviation="10.8545"/>
<feComposite in2="hardAlpha" operator="out"/>
<feColorMatrix type="matrix" values="0 0 0 0 0.709804 0 0 0 0 0.835294 0 0 0 0 0.972549 0 0 0 0.06 0"/>
<feBlend mode="normal" in2="BackgroundImageFix" result="effect1_dropShadow_221_10076"/>
<feBlend mode="normal" in="SourceGraphic" in2="effect1_dropShadow_221_10076" result="shape"/>
</filter>
<radialGradient id="paint0_radial_221_10076" cx="0" cy="0" r="1" gradientUnits="userSpaceOnUse" gradientTransform="translate(93 98.5) rotate(90) scale(42.5 150.992)">
<stop stop-color="#002533"/>
<stop offset="1" stop-color="#002C6A"/>
</radialGradient>
<linearGradient id="paint1_linear_221_10076" x1="93" y1="24" x2="93" y2="148" gradientUnits="userSpaceOnUse">
<stop stop-color="#00608B"/>
<stop offset="1" stop-color="#39ACFF"/>
</linearGradient>
<linearGradient id="paint2_linear_221_10076" x1="93.5" y1="29" x2="94" y2="97.5" gradientUnits="userSpaceOnUse">
<stop stop-color="#4E9EDD"/>
<stop offset="1" stop-color="#002237"/>
</linearGradient>
<linearGradient id="paint3_linear_221_10076" x1="96" y1="59" x2="96" y2="119" gradientUnits="userSpaceOnUse">
<stop stop-color="#EBF1F7"/>
<stop offset="1" stop-color="#4D9EFF"/>
</linearGradient>
</defs>
</svg>
